<?xml version="1.0" encoding="UTF-8"?>
<svg xmlns="http://www.w3.org/2000/svg" viewBox="0 0 159.54 79.35">
  <defs>
    <style>
      .t, .u, .v, .w, .x, .y {
        fill: none;
      }

      .u {
        stroke: #fff;
      }

      .u, .v, .w, .x, .y {
        stroke-linecap: round;
        stroke-linejoin: round;
      }

      .u, .z {
        opacity: .5;
      }

      .v {
        stroke: #1f4277;
      }

      .v, .x {
        stroke-width: .5px;
      }

      .w {
        stroke: #8fb1d8;
        stroke-width: .75px;
      }

      .aa {
        fill: #fff;
      }

      .ab {
        fill: #e0ebf8;
      }

      .ab, .ac {
        opacity: .3;
      }

      .x {
        stroke: #000;
      }

      .ad, .ac {
        fill: #1e4377;
      }

      .y {
        stroke: #e0ebf8;
        stroke-width: .25px;
      }
    </style>
  </defs>
  <g id="a" data-name="background">
    <rect class="ab" x="12.67" y=".82" width="142.44" height="67.54"/>
  </g>
  <g id="c" data-name="Lines">
    <g>
      <line class="y" x1="12.64" y1=".69" x2="155.14" y2=".69"/>
      <line class="y" x1="12.64" y1="7.46" x2="155.14" y2="7.46"/>
      <line class="y" x1="12.64" y1="14.22" x2="155.14" y2="14.22"/>
      <line class="y" x1="12.64" y1="27.76" x2="155.14" y2="27.76"/>
      <line class="y" x1="12.64" y1="41.29" x2="155.14" y2="41.29"/>
      <line class="y" x1="12.64" y1="54.83" x2="155.14" y2="54.83"/>
      <line class="y" x1="12.64" y1="20.99" x2="155.14" y2="20.99"/>
      <line class="y" x1="12.64" y1="34.53" x2="155.14" y2="34.53"/>
      <line class="y" x1="12.64" y1="48.06" x2="155.14" y2="48.06"/>
      <line class="y" x1="12.64" y1="61.59" x2="155.14" y2="61.59"/>
    </g>
  </g>
  <g id="d" data-name="Axes">
    <g>
      <line class="x" x1="12.67" y1="68.36" x2="155.11" y2="68.36"/>
      <line class="x" x1="155.11" y1="68.36" x2="155.11" y2="66.96"/>
      <line class="x" x1="12.67" y1="68.36" x2="12.67" y2=".82"/>
      <line class="x" x1="12.67" y1=".82" x2="14.07" y2=".82"/>
      <line class="x" x1="12.67" y1="7.46" x2="14.07" y2="7.46"/>
      <line class="x" x1="12.67" y1="14.22" x2="14.07" y2="14.22"/>
      <line class="x" x1="12.67" y1="20.99" x2="14.07" y2="20.99"/>
      <line class="x" x1="12.67" y1="27.76" x2="14.07" y2="27.76"/>
      <line class="x" x1="12.67" y1="34.59" x2="14.07" y2="34.59"/>
      <line class="x" x1="12.67" y1="41.32" x2="14.07" y2="41.32"/>
      <line class="x" x1="12.67" y1="48.06" x2="14.07" y2="48.06"/>
      <line class="x" x1="12.67" y1="54.83" x2="14.07" y2="54.83"/>
      <line class="x" x1="12.67" y1="61.59" x2="14.07" y2="61.59"/>
    </g>
  </g>
  <g id="e" data-name="Layer 22" class="z">
    <circle class="ac" cx="12.75" cy="50.13" r="3.28" transform="translate(-6.11 1.96) rotate(-7.11)"/>
    <circle class="ac" cx="25.33" cy="39.7" r="4.02" transform="translate(-17.98 58.21) rotate(-80.61)"/>
    <circle class="ac" cx="37.9" cy="64.4" r="3.26" transform="translate(-6.89 4.58) rotate(-6.35)"/>
    <circle class="ac" cx="50.48" cy="48.22" r="3.28" transform="translate(-6.28 7.58) rotate(-8.09)"/>
    <circle class="ac" cx="63.11" cy="49.66" r="3.18"/>
    <circle class="ac" cx="75.69" cy="52.13" r="3.63" transform="translate(-5.83 9.69) rotate(-7.05)"/>
    <circle class="ac" cx="138.86" cy="51.18" r="3.52"/>
    <circle class="ac" cx="12.75" cy="48.51" r="3.24"/>
    <circle class="ac" cx="25.33" cy="56.51" r="3.26" transform="translate(-33.12 77) rotate(-85.18)"/>
    <circle class="ac" cx="37.9" cy="38.9" r="3.4"/>
    <circle class="ac" cx="50.48" cy="52.35" r="3.22" transform="translate(-6.82 7.57) rotate(-8.04)"/>
    <circle class="ac" cx="63.11" cy="55.43" r="3.09" transform="translate(-5.66 7.2) rotate(-6.25)"/>
    <circle class="ac" cx="75.69" cy="48.14" r="2.9" transform="translate(-3.45 5.91) rotate(-4.37)"/>
    <circle class="ac" cx="138.86" cy="48.21" r="3.28"/>
    <circle class="ac" cx="12.75" cy="44.03" r="3.14"/>
    <circle class="ac" cx="37.9" cy="47.26" r="2.76" transform="translate(-12.2 81.31) rotate(-85.47)"/>
    <circle class="ac" cx="50.48" cy="61.56" r="3.01" transform="translate(-19.04 100.36) rotate(-79.81)"/>
    <circle class="ac" cx="63.11" cy="28.22" r="3.4"/>
    <circle class="ac" cx="75.69" cy="19.72" r="4.52" transform="translate(-.91 3.92) rotate(-2.95)"/>
    <circle class="ac" cx="138.86" cy="5.65" r="3.9" transform="translate(0 11.41) rotate(-4.7)"/>
    <circle class="ac" cx="12.75" cy="57.78" r="4.08" transform="translate(-4.62 1.22) rotate(-4.63)"/>
    <circle class="ac" cx="25.33" cy="34.72" r="3.4"/>
    <circle class="ac" cx="37.9" cy="47.91" r="3.85" transform="translate(-17.05 74.6) rotate(-77.56)"/>
    <circle class="ac" cx="50.48" cy="51.79" r="3.43" transform="translate(-7.53 8.6) rotate(-9.06)"/>
    <circle class="ac" cx="63.11" cy="23.78" r="3.22"/>
    <circle class="ac" cx="75.69" cy="57.6" r="3.59"/>
    <circle class="ac" cx="138.86" cy="47.82" r="3.22" transform="translate(-1.88 5.84) rotate(-2.39)"/>
    <circle class="ac" cx="12.75" cy="15.5" r="3.71" transform="translate(-3.84 26.79) rotate(-84.81)"/>
    <circle class="ac" cx="25.33" cy="53.02" r="3.18"/>
    <circle class="ac" cx="37.9" cy="40.63" r="3.71" transform="translate(-5.61 75.17) rotate(-85.43)"/>
    <circle class="ac" cx="50.48" cy="46.01" r="2.81"/>
    <circle class="ac" cx="63.11" cy="52.47" r="3.04" transform="translate(-4.75 6.31) rotate(-5.52)"/>
    <circle class="ac" cx="75.69" cy="24.25" r="4.08"/>
    <path class="ac" d="M141.88,46.54c0-1.67-1.35-3.02-3.02-3.02s-3.02,1.35-3.02,3.02,1.35,3.02,3.02,3.02,3.02-1.35,3.02-3.02Z"/>
    <circle class="ac" cx="12.75" cy="39.99" r="4.08" transform="translate(-2.13 .74) rotate(-3.08)"/>
    <circle class="ac" cx="25.33" cy="41.43" r="3.07" transform="translate(-17.71 63.91) rotate(-86.15)"/>
    <circle class="ac" cx="37.9" cy="42.83" r="3.4"/>
    <circle class="ac" cx="50.48" cy="19.96" r="4.23" transform="translate(26.17 68.49) rotate(-84.97)"/>
    <circle class="ac" cx="63.11" cy="48.4" r="3.4" transform="translate(9.92 107.53) rotate(-85.51)"/>
    <circle class="ac" cx="75.69" cy="30.13" r="3.33"/>
    <circle class="ac" cx="12.75" cy="57.97" r="3.07" transform="translate(-46.58 56.31) rotate(-75.99)"/>
    <circle class="ac" cx="25.33" cy="57.73" r="2.9" transform="translate(-7.76 4.07) rotate(-7.97)"/>
    <circle class="ac" cx="37.9" cy="67.37" r="3.35" transform="translate(-37.1 86.06) rotate(-74.63)"/>
    <circle class="ac" cx="50.48" cy="51.3" r="3.05"/>
    <circle class="ac" cx="75.69" cy="50.91" r="3.26" transform="translate(19.46 122.73) rotate(-85.87)"/>
    <circle class="ac" cx="63.11" cy="29.4" r="3.43" transform="translate(29.9 90.59) rotate(-86.49)"/>
    <path class="ac" d="M141.88,26.24c0-1.67-1.35-3.02-3.02-3.02s-3.02,1.35-3.02,3.02,1.35,3.02,3.02,3.02,3.02-1.35,3.02-3.02Z"/>
    <circle class="ac" cx="12.75" cy="50.41" r="3.14" transform="translate(-2.91 .83) rotate(-3.33)"/>
    <circle class="ac" cx="25.33" cy="66.66" r="3.07" transform="translate(-45.19 77.27) rotate(-77.75)"/>
    <circle class="ac" cx="37.9" cy="52.95" r="4.02" transform="translate(-20.17 82.41) rotate(-81.3)"/>
    <circle class="ac" cx="50.48" cy="51.68" r="3.4" transform="translate(-3.89 4.11) rotate(-4.49)"/>
    <circle class="ac" cx="63.11" cy="38.74" r="3.85" transform="translate(21.05 99.69) rotate(-86.94)"/>
    <circle class="ac" cx="75.69" cy="60.22" r="3.02" transform="translate(-10.03 105.03) rotate(-66.11)"/>
    <circle class="ac" cx="138.86" cy="38.9" r="3.9" transform="translate(-2.72 11.52) rotate(-4.7)"/>
    <circle class="ac" cx="12.75" cy="29.3" r="3.35" transform="translate(-17.37 39.97) rotate(-86)"/>
    <circle class="ac" cx="25.33" cy="6.93" r="3.52"/>
    <circle class="ac" cx="37.9" cy="35.22" r="2.99"/>
    <circle class="ac" cx="50.48" cy="33.44" r="2.91" transform="translate(12.73 80.78) rotate(-84.94)"/>
    <circle class="ac" cx="63.11" cy="13.3" r="3.56"/>
    <circle class="ac" cx="138.86" cy="25.72" r="3.35"/>
  </g>
  <g id="f" data-name="Data-Dots">
    <g id="g" data-name="Ebene 13 Kopie">
      <circle class="ad" cx="25.26" cy="39.74" r=".38"/>
      <circle class="ad" cx="37.84" cy="64.4" r=".38"/>
      <circle class="ad" cx="50.42" cy="48.25" r=".38"/>
      <circle class="ad" cx="63.05" cy="49.69" r=".38"/>
      <circle class="ad" cx="75.63" cy="52.16" r=".38"/>
      <circle class="ad" cx="25.26" cy="56.53" r=".38"/>
      <circle class="ad" cx="37.84" cy="38.94" r=".38"/>
      <circle class="ad" cx="50.42" cy="52.37" r=".38"/>
      <circle class="ad" cx="63.05" cy="55.45" r=".38"/>
      <circle class="ad" cx="75.63" cy="48.17" r=".38"/>
      <circle class="ad" cx="37.84" cy="47.29" r=".38"/>
      <circle class="ad" cx="50.42" cy="61.57" r=".38"/>
      <circle class="ad" cx="63.05" cy="28.28" r=".38"/>
      <circle class="ad" cx="75.63" cy="19.8" r=".38"/>
      <circle class="ad" cx="25.26" cy="34.77" r=".38"/>
      <circle class="ad" cx="37.84" cy="47.94" r=".38"/>
      <circle class="ad" cx="50.42" cy="51.81" r=".38"/>
      <circle class="ad" cx="63.05" cy="23.85" r=".38"/>
      <circle class="ad" cx="75.63" cy="57.62" r=".38"/>
      <circle class="ad" cx="12.67" cy="15.58" r=".38"/>
      <circle class="ad" cx="25.26" cy="53.04" r=".38"/>
      <circle class="ad" cx="37.84" cy="40.67" r=".38"/>
      <circle class="ad" cx="50.42" cy="46.04" r=".38"/>
      <circle class="ad" cx="63.05" cy="52.49" r=".38"/>
      <circle class="ad" cx="75.63" cy="24.31" r=".38"/>
      <circle class="ad" cx="25.26" cy="41.47" r=".38"/>
      <circle class="ad" cx="37.84" cy="42.87" r=".38"/>
      <circle class="ad" cx="50.42" cy="20.03" r=".38"/>
      <circle class="ad" cx="63.05" cy="48.43" r=".38"/>
      <circle class="ad" cx="75.63" cy="30.19" r=".38"/>
      <circle class="ad" cx="25.26" cy="57.74" r=".38"/>
      <circle class="ad" cx="37.84" cy="67.37" r=".38"/>
      <circle class="ad" cx="50.42" cy="51.32" r=".38"/>
      <circle class="ad" cx="75.63" cy="50.93" r=".38"/>
      <circle class="ad" cx="63.05" cy="29.46" r=".38"/>
      <circle class="ad" cx="25.26" cy="66.66" r=".38"/>
      <circle class="ad" cx="37.84" cy="52.97" r=".38"/>
      <circle class="ad" cx="50.42" cy="51.71" r=".38"/>
      <circle class="ad" cx="63.05" cy="38.78" r=".38"/>
      <circle class="ad" cx="75.63" cy="60.23" r=".38"/>
      <circle class="ad" cx="25.26" cy="7.03" r=".38"/>
      <circle class="ad" cx="37.84" cy="35.27" r=".38"/>
      <circle class="ad" cx="50.42" cy="33.49" r=".38"/>
      <circle class="ad" cx="63.05" cy="13.39" r=".38"/>
      <circle class="ad" cx="12.67" cy="50.16" r=".38"/>
      <circle class="ad" cx="12.67" cy="48.54" r=".38"/>
      <circle class="ad" cx="12.67" cy="44.06" r=".38"/>
      <circle class="ad" cx="12.67" cy="57.8" r=".38"/>
      <circle class="ad" cx="12.67" cy="40.03" r=".38"/>
      <circle class="ad" cx="12.67" cy="57.99" r=".38"/>
      <circle class="ad" cx="12.67" cy="50.44" r=".38"/>
      <circle class="ad" cx="12.67" cy="29.36" r=".38"/>
      <circle class="ad" cx="138.83" cy="51.21" r=".38"/>
      <circle class="ad" cx="138.83" cy="48.24" r=".38"/>
      <circle class="ad" cx="138.83" cy="5.74" r=".38"/>
      <circle class="ad" cx="138.83" cy="47.85" r=".38"/>
      <circle class="ad" cx="138.83" cy="46.57" r=".38"/>
      <circle class="ad" cx="138.83" cy="26.3" r=".38"/>
      <circle class="ad" cx="138.83" cy="38.95" r=".38"/>
      <circle class="ad" cx="138.83" cy="25.78" r=".38"/>
    </g>
  </g>
  <g id="j" data-name="Text">
    <g>
      <path d="M62.72,72.79l-.38,1.83h.01c.13-.16.3-.29.49-.39.19-.1.4-.14.62-.14.24,0,.45.04.63.12.18.08.32.18.44.32.12.13.2.3.26.49s.09.4.09.64c0,.28-.04.56-.13.83-.08.27-.21.5-.37.71-.16.21-.36.37-.6.5-.24.13-.51.19-.82.19-.17,0-.32-.02-.46-.07-.14-.04-.26-.1-.37-.17-.1-.07-.19-.15-.26-.24s-.11-.18-.13-.27h-.01l-.13.67h-.53l1.05-5h.59ZM64.23,75.24c-.04-.13-.09-.24-.15-.33-.07-.09-.15-.17-.26-.22-.1-.05-.22-.08-.36-.08-.26,0-.49.06-.67.18s-.34.27-.46.45-.21.38-.26.59c-.06.21-.08.42-.08.61,0,.29.09.51.27.67.18.16.42.24.71.24.21,0,.4-.06.57-.17.16-.11.3-.25.41-.42.11-.17.2-.35.25-.55.06-.2.08-.39.08-.56,0-.14-.02-.28-.05-.41Z"/>
      <path d="M66.87,72.79l-1.05,5h-.59l1.04-5h.6Z"/>
      <path d="M69.11,77.78l.11-.55h-.01c-.15.21-.34.37-.57.47s-.47.15-.72.15c-.34,0-.59-.07-.76-.22-.17-.15-.25-.38-.25-.7,0-.08,0-.18.03-.31s.04-.26.08-.4l.44-2.07h.59l-.46,2.11s-.02.08-.03.13c0,.05-.02.1-.03.16,0,.05-.02.11-.02.15s0,.09,0,.12c0,.17.06.3.18.38.12.08.27.12.45.12.17,0,.32-.03.47-.1.14-.07.27-.15.38-.26.11-.11.21-.24.28-.38.08-.14.13-.29.16-.44l.42-2h.59l-.76,3.62h-.57Z"/>
      <path d="M71.98,74.16l-.17.78h.01c.14-.25.32-.45.54-.62.22-.16.48-.25.78-.25.04,0,.07,0,.11,0,.03,0,.07,0,.11,0l-.14.64s-.05,0-.09,0h-.08c-.08,0-.14,0-.18,0-.05,0-.11.01-.18.03-.16.04-.31.11-.44.22-.13.1-.24.23-.33.37-.08.12-.14.25-.19.41-.05.16-.08.3-.11.44l-.34,1.6h-.59l.75-3.62h.56Z"/>
      <path d="M76.3,74.16l-.76,3.62h-.59l.75-3.62h.6ZM75.83,73.51l.15-.73h.6l-.15.73h-.6Z"/>
      <path d="M77.84,74.16l-.11.55h.01c.15-.21.34-.37.57-.47.23-.11.47-.16.72-.16.34,0,.59.08.76.22.17.15.25.38.25.71,0,.08,0,.18-.03.31s-.04.26-.08.4l-.44,2.06h-.59l.46-2.11s.01-.08.02-.13c0-.05.02-.1.03-.15,0-.05.02-.1.02-.15,0-.05.01-.09.01-.12,0-.17-.06-.3-.18-.38-.12-.08-.27-.12-.45-.12-.16,0-.33.04-.49.12-.16.08-.3.18-.41.3-.11.09-.19.21-.25.34s-.11.27-.15.42l-.42,2h-.59l.76-3.62h.57Z"/>
      <path d="M82.69,74.16l-.11.53h-.72l-.45,2.13s0,.08-.01.12c0,.04,0,.08,0,.12,0,.09.04.16.11.19s.16.05.25.05c.06,0,.12,0,.17-.02s.11-.03.17-.05l-.11.55c-.07,0-.14.02-.21.02-.07,0-.14.01-.21.01-.11,0-.22,0-.31-.02-.1-.02-.18-.05-.26-.09-.07-.04-.13-.1-.17-.18-.04-.07-.07-.17-.07-.29,0-.05,0-.1.01-.15,0-.05.01-.1.02-.15l.48-2.25h-.61l.11-.53h.61l.22-1.07h.6l-.22,1.07h.72Z"/>
      <path d="M83.3,76.47c0,.14.03.26.08.37.05.11.12.2.21.27.09.07.19.13.3.17.11.04.23.06.35.06.27,0,.49-.06.66-.18.17-.12.3-.29.38-.51h.6c-.05.2-.12.38-.22.53-.1.15-.23.28-.37.38-.14.1-.3.18-.48.23-.18.05-.36.08-.56.08-.3,0-.55-.04-.75-.14-.2-.09-.36-.21-.47-.35-.12-.14-.2-.3-.25-.47-.05-.17-.07-.33-.07-.49,0-.34.05-.66.15-.95.1-.29.24-.53.41-.74.17-.21.37-.36.59-.48.23-.11.46-.17.71-.17.53,0,.92.14,1.17.42.25.28.37.67.37,1.18,0,.09,0,.18-.02.27s-.03.15-.04.2h-2.72c-.01.1-.02.21-.02.32ZM85.48,75.25c-.03-.12-.07-.23-.14-.33-.07-.1-.16-.17-.27-.23-.11-.06-.25-.09-.41-.09s-.33.03-.46.08c-.14.05-.26.13-.36.22-.1.09-.19.2-.26.33-.07.12-.13.25-.17.4h2.1c0-.13,0-.25-.02-.38Z"/>
      <path d="M87.69,74.16l-.11.55h.01c.15-.21.34-.37.57-.47.23-.11.47-.16.72-.16.34,0,.59.08.76.22.17.15.25.38.25.71,0,.08,0,.18-.03.31-.02.13-.04.26-.08.4l-.44,2.06h-.59l.46-2.11s.01-.08.02-.13.02-.1.03-.15c0-.05.02-.1.02-.15,0-.05,0-.09,0-.12,0-.17-.06-.3-.18-.38-.12-.08-.27-.12-.45-.12-.16,0-.33.04-.49.12-.16.08-.3.18-.41.3-.11.09-.19.21-.25.34s-.11.27-.15.42l-.42,2h-.59l.76-3.62h.57Z"/>
      <path d="M92.56,74.76c-.15-.1-.33-.16-.54-.16-.09,0-.18,0-.27.02-.09.01-.18.04-.25.07s-.13.08-.18.14-.07.13-.07.23c0,.08.03.16.08.22s.13.12.22.17c.09.05.19.1.31.14.12.04.23.09.35.14.12.05.24.11.35.17.11.06.21.13.3.21.09.08.16.17.22.27.06.11.08.23.08.37,0,.2-.04.37-.13.51-.09.14-.2.26-.34.35-.14.09-.3.15-.47.19-.17.04-.35.06-.53.06-.21,0-.4-.02-.58-.06-.18-.04-.33-.11-.46-.2-.13-.09-.23-.22-.3-.38-.08-.16-.11-.35-.11-.58h.59c0,.13.01.24.06.33.05.09.12.16.2.22s.19.09.3.12c.11.02.23.04.36.04.1,0,.2,0,.29-.03.1-.02.19-.05.27-.09.08-.04.14-.1.19-.17.05-.07.07-.16.07-.26,0-.09-.03-.16-.08-.23-.06-.06-.13-.12-.22-.17-.09-.05-.19-.1-.3-.14-.11-.04-.23-.09-.35-.14-.12-.05-.24-.1-.35-.15-.12-.06-.22-.12-.31-.2s-.16-.17-.22-.27c-.05-.1-.08-.22-.08-.36,0-.17.04-.32.12-.45.08-.13.18-.24.3-.33.12-.09.27-.15.43-.2.16-.05.33-.07.49-.07s.33.02.5.06c.16.04.31.11.44.2.13.09.23.21.31.36.08.15.12.33.12.54h-.6c0-.21-.06-.36-.21-.47Z"/>
      <path d="M94.96,74.16l-.76,3.62h-.59l.75-3.62h.59ZM94.5,73.51l.15-.73h.6l-.15.73h-.6Z"/>
      <path d="M97.47,74.16l-.11.53h-.72l-.45,2.13s0,.08-.01.12c0,.04,0,.08,0,.12,0,.09.04.16.11.19s.16.05.25.05c.06,0,.12,0,.17-.02s.11-.03.17-.05l-.11.55c-.07,0-.14.02-.21.02-.07,0-.14.01-.21.01-.11,0-.22,0-.31-.02s-.18-.05-.26-.09c-.07-.04-.13-.1-.17-.18-.04-.07-.07-.17-.07-.29,0-.05,0-.1.01-.15,0-.05.01-.1.02-.15l.48-2.25h-.61l.11-.53h.61l.22-1.07h.6l-.22,1.07h.72Z"/>
      <path d="M98.32,78.73c-.08.11-.16.2-.25.27-.09.08-.19.14-.3.18-.11.04-.24.07-.39.07-.07,0-.14,0-.22-.02-.07-.02-.14-.04-.2-.07l.1-.48s.1.05.17.07.12.03.17.03c.14,0,.25-.04.33-.11s.16-.17.23-.28l.37-.6-.64-3.62h.64l.42,2.88h.01l1.52-2.88h.65l-2.39,4.23c-.07.12-.15.23-.22.33Z"/>
      <path d="M102.93,75.98c.06-.27.15-.51.29-.73s.3-.41.5-.57c.2-.16.42-.29.67-.37.25-.09.52-.13.81-.13h1.81l-.11.53h-.84c.15.14.25.32.3.56.04.24.04.48,0,.73-.05.22-.13.44-.24.67-.11.22-.26.43-.44.61-.18.18-.39.33-.62.45s-.5.17-.79.17-.51-.05-.7-.15c-.19-.1-.35-.23-.46-.4-.11-.17-.18-.37-.2-.6s0-.48.05-.74ZM103.56,75.98c-.05.23-.06.43-.04.6.02.17.07.31.15.43.07.11.17.2.29.26.12.06.25.08.4.08.18,0,.34-.03.49-.1.15-.07.28-.16.39-.28.11-.12.21-.26.29-.43.08-.17.14-.35.18-.55.07-.32.08-.58.03-.79-.04-.21-.13-.38-.25-.5h-.35c-.19,0-.37.03-.54.08-.17.05-.32.13-.46.24-.14.11-.26.24-.36.4-.1.16-.17.35-.22.57Z"/>
    </g>
    <g>
      <rect class="t" x="16.77" y="3.26" width="33.63" height="10.94"/>
      <path d="M19.3,4.14c.3,0,.55.06.73.19.18.12.31.3.39.52.08.23.11.5.09.82s-.06.68-.15,1.07c-.08.39-.19.75-.31,1.06-.12.32-.27.59-.45.82-.18.23-.38.4-.61.53s-.5.19-.8.19-.55-.06-.73-.19c-.18-.13-.3-.31-.38-.54s-.11-.5-.09-.82c.01-.32.06-.67.14-1.05.08-.38.18-.73.3-1.05.12-.32.27-.59.45-.82.17-.23.38-.41.61-.54s.5-.19.81-.19ZM18.31,8.82c.19,0,.35-.03.48-.1s.25-.17.35-.32.2-.34.28-.58c.09-.24.17-.54.26-.89h-1.96c-.07.35-.11.65-.13.89s0,.43.05.58c.04.15.12.25.23.32.11.07.25.1.43.1ZM19.79,6.46c.05-.28.08-.54.09-.76s0-.41-.05-.56-.11-.27-.22-.35c-.1-.08-.24-.12-.42-.12-.19,0-.36.04-.49.12-.14.08-.26.2-.36.35-.1.15-.2.34-.28.56s-.15.48-.22.76h1.95Z"/>
      <path d="M21.54,7.02v-.48h3.53v.48h-3.53ZM25.07,7.96v.48h-3.53v-.48h3.53Z"/>
      <path d="M26.76,5.29c.09-.21.21-.38.36-.53s.33-.26.54-.34c.21-.08.45-.12.71-.12.2,0,.39.03.56.09.17.06.32.15.44.26.12.11.22.25.29.42.07.16.11.35.11.55s-.04.38-.11.55-.16.32-.28.45c-.11.14-.25.26-.4.38s-.31.22-.47.32c-.16.1-.33.2-.49.29s-.32.18-.46.27c-.08.05-.16.11-.24.17-.08.06-.16.13-.23.2-.07.07-.14.15-.2.23-.06.08-.11.17-.14.26h2.58l-.11.52h-3.16c.02-.25.07-.47.15-.66.08-.19.18-.36.31-.51.12-.15.26-.28.42-.4.16-.12.32-.23.5-.34s.35-.21.53-.32c.18-.1.35-.21.51-.34.09-.07.17-.14.25-.21s.15-.15.21-.23c.06-.08.1-.17.14-.27.03-.1.05-.21.05-.34,0-.27-.08-.47-.22-.62-.15-.14-.35-.22-.61-.22-.17,0-.32.03-.45.09-.13.06-.24.15-.33.25-.09.1-.16.23-.21.37-.05.14-.08.29-.09.44h-.63c.03-.26.09-.49.18-.7Z"/>
      <path d="M30.23,6.8c.04-.23.09-.46.16-.69.08-.23.17-.46.29-.68.12-.22.25-.41.41-.58.16-.17.34-.3.55-.41.21-.1.44-.15.7-.15.43,0,.77.15.99.44s.34.77.34,1.44c0,.15-.01.34-.04.55-.03.21-.08.44-.14.68s-.15.47-.26.7-.24.44-.4.62c-.16.18-.34.33-.55.44-.21.11-.45.17-.73.17s-.48-.05-.65-.15c-.17-.1-.32-.23-.42-.41-.11-.17-.18-.38-.23-.61-.04-.23-.07-.49-.07-.76,0-.19.02-.39.05-.62ZM30.99,8.47c.12.24.33.35.62.35.18,0,.34-.05.49-.15.14-.1.27-.23.38-.39s.2-.33.27-.53c.07-.19.13-.38.18-.57.04-.18.08-.35.1-.5.02-.15.03-.26.03-.33,0-.09,0-.19,0-.3,0-.11,0-.22,0-.33,0-.11-.02-.22-.05-.33-.03-.11-.07-.2-.12-.28s-.13-.15-.22-.2c-.09-.05-.21-.07-.36-.07-.18,0-.34.05-.48.15-.15.1-.27.23-.38.39s-.2.34-.28.54c-.08.2-.15.4-.2.6-.05.2-.09.39-.11.57s-.04.32-.04.44c0,.4.06.71.18.95Z"/>
      <path d="M34.51,4.93c.05-.13.13-.24.22-.33.09-.09.2-.17.33-.22s.26-.08.41-.08.28.03.41.08.24.13.33.22c.09.09.17.2.22.33s.08.26.08.41-.03.28-.08.41-.13.24-.22.33c-.09.09-.2.17-.33.22-.13.05-.26.08-.41.08s-.28-.03-.41-.08c-.13-.05-.24-.13-.33-.22-.09-.09-.17-.2-.22-.33s-.08-.26-.08-.41.03-.28.08-.41ZM34.98,5.83c.13.13.29.2.49.2s.36-.06.49-.2c.13-.13.2-.29.2-.49s-.07-.36-.2-.49c-.13-.13-.29-.2-.49-.2s-.36.07-.49.2c-.13.13-.2.29-.2.49s.07.36.2.49Z"/>
    </g>
  </g>
  <g id="l" data-name="numbers 5pt">
    <g>
      <rect class="t" x="-5.7" y="-.24" width="16.24" height="10.78"/>
      <path d="M4.28,4.04l.58-2.69c-.16.04-.31.06-.46.08-.14.02-.3.02-.46.02l.07-.34c.11,0,.22-.01.33-.04.11-.02.22-.06.32-.11s.2-.12.28-.19.15-.17.21-.27h.33l-.75,3.54h-.45Z"/>
      <path d="M6.26,2.29c.03-.16.06-.33.12-.49.05-.17.12-.33.21-.48.08-.16.18-.29.29-.42s.25-.22.39-.29c.15-.07.32-.11.5-.11.31,0,.55.1.71.31s.25.55.25,1.02c0,.11-.01.24-.03.4s-.06.31-.1.48c-.05.17-.11.33-.19.5s-.17.31-.29.44c-.11.13-.24.24-.39.32s-.32.12-.52.12-.34-.04-.47-.1c-.12-.07-.23-.17-.3-.29-.08-.12-.13-.27-.16-.44-.03-.17-.05-.35-.05-.54,0-.13.01-.28.04-.44ZM6.8,3.48c.09.17.24.25.45.25.13,0,.25-.04.35-.11s.19-.17.27-.28c.08-.11.14-.24.19-.38.05-.14.09-.27.12-.4.03-.13.05-.25.07-.36.02-.11.02-.19.02-.24,0-.07,0-.14,0-.22,0-.08,0-.16,0-.24s-.02-.16-.04-.23-.05-.14-.09-.2c-.04-.06-.09-.1-.16-.14-.07-.03-.15-.05-.25-.05-.13,0-.24.04-.34.11s-.19.17-.27.28c-.08.12-.15.24-.2.39-.06.14-.1.29-.14.43-.04.14-.06.28-.08.4-.02.13-.02.23-.02.31,0,.28.04.51.13.68Z"/>
      <path d="M10.81.38l-.95,1.44h-.34l.75-1.44h.54Z"/>
    </g>
    <g>
      <rect class="t" x="4.7" y="68.71" width="14.11" height="10.04"/>
      <path d="M9.7,71.24c.03-.16.06-.32.12-.49.05-.17.12-.33.21-.48.08-.16.18-.29.29-.41.11-.12.25-.22.39-.29.15-.07.32-.11.5-.11.31,0,.55.1.71.31.16.21.25.55.25,1.03,0,.11-.01.24-.03.4s-.06.31-.1.48c-.05.17-.11.33-.19.5s-.17.31-.29.44-.24.24-.39.32c-.15.08-.32.12-.52.12s-.34-.04-.47-.1c-.12-.07-.23-.17-.3-.29s-.13-.27-.16-.44c-.03-.17-.05-.35-.05-.54,0-.13.01-.28.04-.44ZM10.24,72.43c.09.17.24.25.45.25.13,0,.25-.04.35-.11s.19-.17.27-.28c.08-.11.14-.24.19-.38.05-.14.09-.27.12-.41.03-.13.05-.25.07-.36.02-.11.02-.19.02-.24,0-.07,0-.14,0-.22s0-.16,0-.24-.02-.16-.04-.24c-.02-.08-.05-.14-.09-.2s-.09-.1-.16-.14c-.07-.04-.15-.05-.25-.05-.13,0-.24.04-.34.11s-.19.17-.27.28c-.08.11-.15.24-.2.39-.06.14-.1.29-.14.43-.04.14-.06.28-.08.41-.02.13-.02.23-.02.31,0,.28.04.51.13.68Z"/>
      <path d="M14.25,69.33l-.95,1.43h-.34l.75-1.43h.54Z"/>
    </g>
    <g>
      <rect class="t" x="140.88" y="68.71" width="14.56" height="10.04"/>
      <path d="M149.7,70.97c.12-.01.22-.04.32-.08.09-.04.17-.11.23-.2.06-.09.09-.21.09-.36,0-.11-.02-.19-.05-.25-.04-.06-.08-.11-.14-.15-.06-.04-.12-.06-.19-.07-.07-.01-.14-.02-.22-.02-.2,0-.36.06-.49.17-.12.11-.2.3-.23.55h-.45c.02-.15.06-.29.11-.42s.13-.25.23-.35c.1-.1.21-.18.35-.24.14-.06.31-.09.5-.09.31,0,.56.07.75.22.18.14.28.37.28.67,0,.1-.02.2-.06.29-.04.09-.08.17-.14.24-.06.07-.13.13-.2.18-.08.05-.16.08-.23.11.17.08.29.18.36.3s.1.27.1.43c0,.12-.03.25-.08.39-.05.14-.13.27-.23.38-.11.12-.24.21-.4.29-.16.08-.35.11-.57.11-.35,0-.62-.09-.82-.28-.2-.18-.3-.48-.29-.87h.45c0,.1,0,.19.02.29.02.09.05.18.1.25s.12.13.21.18.21.07.34.07c.12,0,.23-.02.33-.05.1-.04.19-.09.26-.16.07-.07.13-.15.17-.24.04-.1.06-.21.06-.33,0-.14-.03-.24-.08-.32-.05-.08-.12-.13-.2-.17s-.18-.07-.28-.08c-.11,0-.21-.01-.32-.01l.07-.34c.11,0,.23,0,.34,0Z"/>
      <path d="M151.16,71.24c.03-.16.06-.32.12-.49.05-.17.12-.33.21-.48.08-.16.18-.29.29-.41.11-.12.25-.22.39-.29.15-.07.32-.11.5-.11.31,0,.55.1.71.31.16.21.25.55.25,1.03,0,.11-.01.24-.03.4s-.06.31-.1.48c-.05.17-.11.33-.19.5s-.17.31-.29.44-.24.24-.39.32c-.15.08-.32.12-.52.12s-.34-.04-.47-.1c-.12-.07-.23-.17-.3-.29s-.13-.27-.16-.44c-.03-.17-.05-.35-.05-.54,0-.13.01-.28.04-.44ZM151.7,72.43c.09.17.24.25.45.25.13,0,.25-.04.35-.11s.19-.17.27-.28c.08-.11.14-.24.19-.38.05-.14.09-.27.12-.41.03-.13.05-.25.07-.36.02-.11.02-.19.02-.24,0-.07,0-.14,0-.22s0-.16,0-.24-.02-.16-.04-.24c-.02-.08-.05-.14-.09-.2s-.09-.1-.16-.14c-.07-.04-.15-.05-.25-.05-.13,0-.24.04-.34.11s-.19.17-.27.28c-.08.11-.15.24-.2.39-.06.14-.1.29-.14.43-.04.14-.06.28-.08.41-.02.13-.02.23-.02.31,0,.28.04.51.13.68Z"/>
      <path d="M155.71,69.33l-.95,1.43h-.34l.75-1.43h.54Z"/>
    </g>
  </g>
  <g id="m" data-name="Fits">
    <g>
      <polyline class="u" points="155.11 13.88 138.83 17.89 138.7 17.92 138.58 17.96 138.45 17.99 138.32 18.02 138.2 18.05 138.07 18.08 137.95 18.11 137.82 18.14 137.69 18.17 137.57 18.2 137.44 18.24 137.31 18.27 137.19 18.3 137.06 18.33 136.94 18.36 136.81 18.39 136.68 18.42 136.56 18.45 136.43 18.48 136.31 18.52 136.18 18.55 136.05 18.58 135.93 18.61 135.8 18.64 135.67 18.67 135.55 18.7 135.42 18.73 135.3 18.76 135.17 18.8 135.04 18.83 134.92 18.86 134.79 18.89 134.67 18.92 134.54 18.95 134.41 18.98 134.29 19.01 134.16 19.04 134.03 19.08 133.91 19.11 133.78 19.14 133.66 19.17 133.53 19.2 133.4 19.23 133.28 19.26 133.15 19.29 133.03 19.32 132.9 19.35 132.77 19.39 132.65 19.42 132.52 19.45 132.39 19.48 132.27 19.51 132.14 19.54 132.02 19.57 131.89 19.6 131.76 19.63 131.64 19.67 131.51 19.7 131.39 19.73 131.26 19.76 131.13 19.79 131.01 19.82 130.88 19.85 130.75 19.88 130.63 19.91 130.5 19.95 130.38 19.98 130.25 20.01 130.12 20.04 130 20.07 129.87 20.1 129.74 20.13 129.62 20.16 129.49 20.19 129.37 20.23 129.24 20.26 129.11 20.29 128.99 20.32 128.86 20.35 128.74 20.38 128.61 20.41 128.48 20.44 128.36 20.47 128.23 20.51 128.1 20.54 127.98 20.57 127.85 20.6 127.73 20.63 127.6 20.66 127.47 20.69 127.35 20.72 127.22 20.75 127.1 20.78 126.97 20.82 126.84 20.85 126.72 20.88 126.59 20.91 126.46 20.94 126.34 20.97 126.21 21 126.09 21.03 125.96 21.06 125.83 21.1 125.71 21.13 125.58 21.16 125.46 21.19 125.33 21.22 125.2 21.25 125.08 21.28 124.95 21.31 124.82 21.34 124.7 21.38 124.57 21.41 124.45 21.44 124.32 21.47 124.19 21.5 124.07 21.53 123.94 21.56 123.82 21.59 123.69 21.62 123.56 21.66 123.44 21.69 123.31 21.72 123.18 21.75 123.06 21.78 122.93 21.81 122.81 21.84 122.68 21.87 122.55 21.9 122.43 21.94 122.3 21.97 122.18 22 122.05 22.03 121.92 22.06 121.8 22.09 121.67 22.12 121.54 22.15 121.42 22.18 121.29 22.21 121.17 22.25 121.04 22.28 120.91 22.31 120.79 22.34 120.66 22.37 120.54 22.4 120.41 22.43 120.28 22.46 120.16 22.49 120.03 22.53 119.9 22.56 119.78 22.59 119.65 22.62 119.53 22.65 119.4 22.68 119.27 22.71 119.15 22.74 119.02 22.77 118.9 22.81 118.77 22.84 118.64 22.87 118.52 22.9 118.39 22.93 118.26 22.96 118.14 22.99 118.01 23.02 117.89 23.05 117.76 23.09 117.63 23.12 117.51 23.15 117.38 23.18 117.26 23.21 117.13 23.24 117 23.27 116.88 23.3 116.75 23.33 116.62 23.37 116.5 23.4 116.37 23.43 116.25 23.46 116.12 23.49 115.99 23.52 115.87 23.55 115.74 23.58 115.62 23.61 115.49 23.65 115.36 23.68 115.24 23.71 115.11 23.74 114.98 23.77 114.86 23.8 114.73 23.83 114.61 23.86 114.48 23.89 114.35 23.92 114.23 23.96 114.1 23.99 113.98 24.02 113.85 24.05 113.72 24.08 113.6 24.11 113.47 24.14 113.34 24.17 113.22 24.2 113.09 24.24 112.97 24.27 112.84 24.3 112.71 24.33 112.59 24.36 112.46 24.39 112.34 24.42 112.21 24.45 112.08 24.48 111.96 24.52 111.83 24.55 111.7 24.58 111.58 24.61 111.45 24.64 111.33 24.67 111.2 24.7 111.07 24.73 110.95 24.76 110.82 24.8 110.7 24.83 110.57 24.86 110.44 24.89 110.32 24.92 110.19 24.95 110.06 24.98 109.94 25.01 109.81 25.04 109.69 25.08 109.56 25.11 109.43 25.14 109.31 25.17 109.18 25.2 109.06 25.23 108.93 25.26 108.8 25.29 108.68 25.32 108.55 25.35 108.42 25.39 108.3 25.42 108.17 25.45 108.05 25.48 107.92 25.51 107.79 25.54 107.67 25.57 107.54 25.6 107.42 25.63 107.29 25.67 107.16 25.7 107.04 25.73 106.91 25.76 106.78 25.79 106.66 25.82 106.53 25.85 106.41 25.88 106.28 25.91 106.15 25.95 106.03 25.98 105.9 26.01 105.78 26.04 105.65 26.07 105.52 26.1 105.4 26.13 105.27 26.16 105.14 26.19 105.02 26.23 104.89 26.26 104.77 26.29 104.64 26.32 104.51 26.35 104.39 26.38 104.26 26.41 104.14 26.44 104.01 26.47 103.88 26.51 103.76 26.54 103.63 26.57 103.5 26.6 103.38 26.63 103.25 26.66 103.13 26.69 103 26.72 102.87 26.75 102.75 26.78 102.62 26.82 102.5 26.85 102.37 26.88 102.24 26.91 102.12 26.94 101.99 26.97 101.86 27 101.74 27.03 101.61 27.06 101.49 27.1 101.36 27.13 101.23 27.16 101.11 27.19 100.98 27.22 100.86 27.25 100.73 27.28 100.6 27.31 100.48 27.34 100.35 27.38 100.22 27.41 100.1 27.44 99.97 27.47 99.85 27.5 99.72 27.53 99.59 27.56 99.47 27.59 99.34 27.62 99.22 27.66 99.09 27.69 98.96 27.72 98.84 27.75 98.71 27.78 98.58 27.81 98.46 27.84 98.33 27.87 98.21 27.9 98.08 27.94 97.95 27.97 97.83 28 97.7 28.03 97.58 28.06 97.45 28.09 97.32 28.12 97.2 28.15 97.07 28.18 96.94 28.22 96.82 28.25 96.69 28.28 96.57 28.31 96.44 28.34 96.31 28.37 96.19 28.4 96.06 28.43 95.94 28.46 95.81 28.49 95.68 28.53 95.56 28.56 95.43 28.59 95.3 28.62 95.18 28.65 95.05 28.68 94.93 28.71 94.8 28.74 94.67 28.77 94.55 28.81 94.42 28.84 94.3 28.87 94.17 28.9 94.04 28.93 93.92 28.96 93.79 28.99 93.66 29.02 93.54 29.05 93.41 29.09 93.29 29.12 93.16 29.15 93.03 29.18 92.91 29.21 92.78 29.24 92.66 29.27 92.53 29.3 92.4 29.33 92.28 29.37 92.15 29.4 92.02 29.43 91.9 29.46 91.77 29.49 91.65 29.52 91.52 29.55 91.39 29.58 91.27 29.61 91.14 29.65 91.02 29.68 90.89 29.71 90.76 29.74 90.64 29.77 90.51 29.8 90.38 29.83 90.26 29.86 90.13 29.89 90.01 29.92 89.88 29.96 89.75 29.99 89.63 30.02 89.5 30.05 89.38 30.08 89.25 30.11 89.12 30.14 89 30.17 88.87 30.2 88.74 30.24 88.62 30.27 88.49 30.3 88.37 30.33 88.24 30.36 88.11 30.39 87.99 30.42 87.86 30.45 87.74 30.48 87.61 30.52 87.48 30.55 87.36 30.58 87.23 30.61 87.1 30.64 86.98 30.67 86.85 30.7 86.73 30.73 86.6 30.76 86.47 30.8 86.35 30.83 86.22 30.86 86.1 30.89 85.97 30.92 85.84 30.95 85.72 30.98 85.59 31.01 85.46 31.04 85.34 31.08 85.21 31.11 85.09 31.14 84.96 31.17 84.83 31.2 84.71 31.23 84.58 31.26 84.46 31.29 84.33 31.32 84.2 31.36 84.08 31.39 83.95 31.42 83.82 31.45 83.7 31.48 83.57 31.51 83.45 31.54 83.32 31.57 83.19 31.6 83.07 31.63 82.94 31.67 82.82 31.7 82.69 31.73 82.56 31.76 82.44 31.79 82.31 31.82 82.18 31.85 82.06 31.88 81.93 31.91 81.81 31.95 81.68 31.98 81.55 32.01 81.43 32.04 81.3 32.07 81.18 32.1 81.05 32.13 80.92 32.16 80.8 32.19 80.67 32.23 80.54 32.26 80.42 32.29 80.29 32.32 80.17 32.35 80.04 32.38 79.91 32.41 79.79 32.44 79.66 32.47 79.54 32.51 79.41 32.54 79.28 32.57 79.16 32.6 79.03 32.63 78.9 32.66 78.78 32.69 78.65 32.72 78.53 32.75 78.4 32.79 78.27 32.82 78.15 32.85 78.02 32.88 77.9 32.91 77.77 32.94 77.64 32.97 77.52 33 77.39 33.03 77.26 33.06 77.14 33.1 77.01 33.13 76.89 33.16 76.76 33.19 76.63 33.22 76.51 33.25 76.38 33.28 76.26 33.31 76.13 33.34 76 33.38 75.88 33.41 75.75 33.44 75.63 33.47 75.62 33.47 75.5 33.5 75.37 33.53 75.25 33.56 75.12 33.59 74.99 33.62 74.87 33.66 74.74 33.69 74.62 33.72 74.49 33.75 74.36 33.78 74.24 33.81 74.11 33.84 73.98 33.87 73.86 33.9 73.73 33.94 73.61 33.97 73.48 34 73.35 34.03 73.23 34.06 73.1 34.09 72.98 34.12 72.85 34.15 72.72 34.18 72.6 34.22 72.47 34.25 72.34 34.28 72.22 34.31 72.09 34.34 71.97 34.37 71.84 34.4 71.71 34.43 71.59 34.46 71.46 34.49 71.34 34.53 71.21 34.56 71.08 34.59 70.96 34.62 70.83 34.65 70.7 34.68 70.58 34.71 70.45 34.74 70.33 34.77 70.2 34.81 70.07 34.84 69.95 34.87 69.82 34.9 69.7 34.93 69.57 34.96 69.44 34.99 69.32 35.02 69.19 35.05 69.06 35.09 68.94 35.12 68.81 35.15 68.69 35.18 68.56 35.21 68.43 35.24 68.31 35.27 68.18 35.3 68.06 35.33 67.93 35.37 67.8 35.4 67.68 35.43 67.55 35.46 67.42 35.49 67.3 35.52 67.17 35.55 67.05 35.58 66.92 35.61 66.79 35.65 66.67 35.68 66.54 35.71 66.42 35.74 66.29 35.77 66.16 35.8 66.04 35.83 65.91 35.86 65.78 35.89 65.66 35.93 65.53 35.96 65.41 35.99 65.28 36.02 65.15 36.05 65.03 36.08 64.9 36.11 64.78 36.14 64.65 36.17 64.52 36.2 64.4 36.24 64.27 36.27 64.14 36.3 64.02 36.33 63.89 36.36 63.77 36.39 63.64 36.42 63.51 36.45 63.39 36.48 63.26 36.52 63.14 36.55 63.05 36.57 63.01 36.58 62.88 36.61 62.76 36.64 62.63 36.67 62.5 36.7 62.38 36.73 62.25 36.76 62.13 36.8 62 36.83 61.87 36.86 61.75 36.89 61.62 36.92 61.5 36.95 61.37 36.98 61.24 37.01 61.12 37.04 60.99 37.08 60.86 37.11 60.74 37.14 60.61 37.17 60.49 37.2 60.36 37.23 60.23 37.26 60.11 37.29 59.98 37.32 59.86 37.36 59.73 37.39 59.6 37.42 59.48 37.45 59.35 37.48 59.22 37.51 59.1 37.54 58.97 37.57 58.85 37.6 58.72 37.63 58.59 37.67 58.47 37.7 58.34 37.73 58.22 37.76 58.09 37.79 57.96 37.82 57.84 37.85 57.71 37.88 57.58 37.91 57.46 37.95 57.33 37.98 57.21 38.01 57.08 38.04 56.95 38.07 56.83 38.1 56.7 38.13 56.58 38.16 56.45 38.19 56.32 38.23 56.2 38.26 56.07 38.29 55.94 38.32 55.82 38.35 55.69 38.38 55.57 38.41 55.44 38.44 55.31 38.47 55.19 38.51 55.06 38.54 54.94 38.57 54.81 38.6 54.68 38.63 54.56 38.66 54.43 38.69 54.3 38.72 54.18 38.75 54.05 38.79 53.93 38.82 53.8 38.85 53.67 38.88 53.55 38.91 53.42 38.94 53.3 38.97 53.17 39 53.04 39.03 52.92 39.07 52.79 39.1 52.66 39.13 52.54 39.16 52.41 39.19 52.29 39.22 52.16 39.25 52.03 39.28 51.91 39.31 51.78 39.34 51.66 39.38 51.53 39.41 51.4 39.44 51.28 39.47 51.15 39.5 51.02 39.53 50.9 39.56 50.77 39.59 50.65 39.62 50.52 39.66 50.42 39.68 50.39 39.69 50.27 39.72 50.14 39.75 50.02 39.78 49.89 39.81 49.76 39.84 49.64 39.87 49.51 39.9 49.38 39.94 49.26 39.97 49.13 40 49.01 40.03 48.88 40.06 48.75 40.09 48.63 40.12 48.5 40.15 48.38 40.18 48.25 40.22 48.12 40.25 48 40.28 47.87 40.31 47.74 40.34 47.62 40.37 47.49 40.4 47.37 40.43 47.24 40.46 47.11 40.49 46.99 40.53 46.86 40.56 46.74 40.59 46.61 40.62 46.48 40.65 46.36 40.68 46.23 40.71 46.1 40.74 45.98 40.77 45.85 40.8 45.73 40.84 45.6 40.87 45.47 40.9 45.35 40.93 45.22 40.96 45.1 40.99 44.97 41.02 44.84 41.05 44.72 41.08 44.59 41.11 44.46 41.15 44.34 41.18 44.21 41.21 44.09 41.24 43.96 41.27 43.83 41.3 43.71 41.33 43.58 41.36 43.46 41.39 43.33 41.42 43.2 41.45 43.08 41.48 42.95 41.51 42.82 41.54 42.7 41.57 42.57 41.6 42.45 41.64 42.32 41.67 42.19 41.7 42.07 41.73 41.94 41.76 41.82 41.79 41.69 41.82 41.56 41.85 41.44 41.87 41.31 41.9 41.18 41.93 41.06 41.96 40.93 41.99 40.81 42.02 40.68 42.05 40.55 42.08 40.43 42.11 40.3 42.14 40.18 42.16 40.05 42.19 39.92 42.22 39.8 42.25 39.67 42.27 39.54 42.3 39.42 42.33 39.29 42.35 39.17 42.38 39.04 42.4 38.91 42.43 38.79 42.45 38.66 42.48 38.54 42.5 38.41 42.53 38.28 42.55 38.16 42.57 38.03 42.59 37.9 42.61 37.84 42.63 37.78 42.64 37.65 42.66 37.53 42.68 37.4 42.69 37.27 42.71 37.15 42.73 37.02 42.75 36.9 42.76 36.77 42.78 36.64 42.8 36.52 42.81 36.39 42.83 36.26 42.84 36.14 42.85 36.01 42.86 35.89 42.88 35.76 42.89 35.63 42.9 35.51 42.91 35.38 42.92 35.26 42.93 35.13 42.94 35 42.94 34.88 42.95 34.75 42.96 34.62 42.97 34.5 42.97 34.37 42.98 34.25 42.98 34.12 42.99 33.99 42.99 33.87 43 33.74 43 33.62 43.01 33.49 43.01 33.36 43.01 33.24 43.02 33.11 43.02 32.98 43.02 32.86 43.03 32.73 43.03 32.61 43.03 32.48 43.03 32.35 43.03 32.23 43.04 32.1 43.04 31.98 43.04 31.85 43.04 31.72 43.04 31.6 43.04 31.47 43.04 31.34 43.05 31.22 43.05 31.09 43.05 30.97 43.05 30.84 43.05 30.71 43.05 30.59 43.05 30.46 43.05 30.33 43.05 30.21 43.05 30.08 43.05 29.96 43.05 29.83 43.05 29.7 43.05 29.58 43.05 29.45 43.05 29.33 43.05 29.2 43.06 29.07 43.06 28.95 43.06 28.82 43.06 28.69 43.06 28.57 43.06 28.44 43.06 28.32 43.06 28.19 43.06 28.06 43.06 27.94 43.06 27.81 43.06 27.69 43.06 27.56 43.06 27.43 43.06 27.31 43.06 27.18 43.06 27.05 43.06 26.93 43.06 26.8 43.06 26.68 43.06 26.55 43.06 26.42 43.06 26.3 43.06 26.17 43.06 26.05 43.06 25.92 43.06 25.79 43.06 25.67 43.06 25.54 43.06 25.41 43.06 25.29 43.06 25.26 43.06 25.16 43.06 25.04 43.06 24.91 43.06 24.78 43.06 24.66 43.06 24.53 43.06 24.41 43.06 24.28 43.06 24.15 43.06 24.03 43.06 23.9 43.06 23.77 43.06 23.65 43.06 23.52 43.06 23.4 43.06 23.27 43.06 23.14 43.06 23.02 43.06 22.89 43.06 22.77 43.06 22.64 43.06 22.51 43.06 22.39 43.06 22.26 43.06 22.13 43.06 22.01 43.06 21.88 43.06 21.76 43.06 21.63 43.06 21.5 43.06 21.38 43.06 21.25 43.06 21.13 43.06 21 43.06 20.87 43.06 20.75 43.06 20.62 43.06 20.49 43.06 20.37 43.06 20.24 43.06 20.12 43.06 19.99 43.06 19.86 43.06 19.74 43.06 19.61 43.06 19.49 43.06 19.36 43.06 19.23 43.06 19.11 43.06 18.98 43.06 18.85 43.06 18.73 43.06 18.6 43.06 18.48 43.06 18.35 43.06 18.22 43.06 18.1 43.06 17.97 43.06 17.85 43.06 17.72 43.06 17.59 43.06 17.47 43.06 17.34 43.06 17.21 43.06 17.09 43.06 16.96 43.06 16.84 43.06 16.71 43.06 16.58 43.06 16.46 43.06 16.33 43.06 16.21 43.06 16.08 43.06 15.95 43.06 15.83 43.06 15.7 43.06 15.57 43.06 15.45 43.06 15.32 43.06 15.2 43.06 15.07 43.06 14.94 43.06 14.82 43.06 14.69 43.06 14.57 43.06 14.44 43.06 14.31 43.06 14.19 43.06 14.06 43.06 13.93 43.06 13.81 43.06 13.68 43.06 13.56 43.06 13.43 43.06 13.3 43.06 13.18 43.06 13.05 43.06 12.93 43.06 12.8 43.06 12.67 43.06"/>
      <polyline class="w" points="155.11 13.88 138.83 17.89 138.7 17.92 138.58 17.96 138.45 17.99 138.32 18.02 138.2 18.05 138.07 18.08 137.95 18.11 137.82 18.14 137.69 18.17 137.57 18.2 137.44 18.24 137.31 18.27 137.19 18.3 137.06 18.33 136.94 18.36 136.81 18.39 136.68 18.42 136.56 18.45 136.43 18.48 136.31 18.52 136.18 18.55 136.05 18.58 135.93 18.61 135.8 18.64 135.67 18.67 135.55 18.7 135.42 18.73 135.3 18.76 135.17 18.8 135.04 18.83 134.92 18.86 134.79 18.89 134.67 18.92 134.54 18.95 134.41 18.98 134.29 19.01 134.16 19.04 134.03 19.08 133.91 19.11 133.78 19.14 133.66 19.17 133.53 19.2 133.4 19.23 133.28 19.26 133.15 19.29 133.03 19.32 132.9 19.35 132.77 19.39 132.65 19.42 132.52 19.45 132.39 19.48 132.27 19.51 132.14 19.54 132.02 19.57 131.89 19.6 131.76 19.63 131.64 19.67 131.51 19.7 131.39 19.73 131.26 19.76 131.13 19.79 131.01 19.82 130.88 19.85 130.75 19.88 130.63 19.91 130.5 19.95 130.38 19.98 130.25 20.01 130.12 20.04 130 20.07 129.87 20.1 129.74 20.13 129.62 20.16 129.49 20.19 129.37 20.23 129.24 20.26 129.11 20.29 128.99 20.32 128.86 20.35 128.74 20.38 128.61 20.41 128.48 20.44 128.36 20.47 128.23 20.51 128.1 20.54 127.98 20.57 127.85 20.6 127.73 20.63 127.6 20.66 127.47 20.69 127.35 20.72 127.22 20.75 127.1 20.78 126.97 20.82 126.84 20.85 126.72 20.88 126.59 20.91 126.46 20.94 126.34 20.97 126.21 21 126.09 21.03 125.96 21.06 125.83 21.1 125.71 21.13 125.58 21.16 125.46 21.19 125.33 21.22 125.2 21.25 125.08 21.28 124.95 21.31 124.82 21.34 124.7 21.38 124.57 21.41 124.45 21.44 124.32 21.47 124.19 21.5 124.07 21.53 123.94 21.56 123.82 21.59 123.69 21.62 123.56 21.66 123.44 21.69 123.31 21.72 123.18 21.75 123.06 21.78 122.93 21.81 122.81 21.84 122.68 21.87 122.55 21.9 122.43 21.94 122.3 21.97 122.18 22 122.05 22.03 121.92 22.06 121.8 22.09 121.67 22.12 121.54 22.15 121.42 22.18 121.29 22.21 121.17 22.25 121.04 22.28 120.91 22.31 120.79 22.34 120.66 22.37 120.54 22.4 120.41 22.43 120.28 22.46 120.16 22.49 120.03 22.53 119.9 22.56 119.78 22.59 119.65 22.62 119.53 22.65 119.4 22.68 119.27 22.71 119.15 22.74 119.02 22.77 118.9 22.81 118.77 22.84 118.64 22.87 118.52 22.9 118.39 22.93 118.26 22.96 118.14 22.99 118.01 23.02 117.89 23.05 117.76 23.09 117.63 23.12 117.51 23.15 117.38 23.18 117.26 23.21 117.13 23.24 117 23.27 116.88 23.3 116.75 23.33 116.62 23.37 116.5 23.4 116.37 23.43 116.25 23.46 116.12 23.49 115.99 23.52 115.87 23.55 115.74 23.58 115.62 23.61 115.49 23.65 115.36 23.68 115.24 23.71 115.11 23.74 114.98 23.77 114.86 23.8 114.73 23.83 114.61 23.86 114.48 23.89 114.35 23.92 114.23 23.96 114.1 23.99 113.98 24.02 113.85 24.05 113.72 24.08 113.6 24.11 113.47 24.14 113.34 24.17 113.22 24.2 113.09 24.24 112.97 24.27 112.84 24.3 112.71 24.33 112.59 24.36 112.46 24.39 112.34 24.42 112.21 24.45 112.08 24.48 111.96 24.52 111.83 24.55 111.7 24.58 111.58 24.61 111.45 24.64 111.33 24.67 111.2 24.7 111.07 24.73 110.95 24.76 110.82 24.8 110.7 24.83 110.57 24.86 110.44 24.89 110.32 24.92 110.19 24.95 110.06 24.98 109.94 25.01 109.81 25.04 109.69 25.08 109.56 25.11 109.43 25.14 109.31 25.17 109.18 25.2 109.06 25.23 108.93 25.26 108.8 25.29 108.68 25.32 108.55 25.35 108.42 25.39 108.3 25.42 108.17 25.45 108.05 25.48 107.92 25.51 107.79 25.54 107.67 25.57 107.54 25.6 107.42 25.63 107.29 25.67 107.16 25.7 107.04 25.73 106.91 25.76 106.78 25.79 106.66 25.82 106.53 25.85 106.41 25.88 106.28 25.91 106.15 25.95 106.03 25.98 105.9 26.01 105.78 26.04 105.65 26.07 105.52 26.1 105.4 26.13 105.27 26.16 105.14 26.19 105.02 26.23 104.89 26.26 104.77 26.29 104.64 26.32 104.51 26.35 104.39 26.38 104.26 26.41 104.14 26.44 104.01 26.47 103.88 26.51 103.76 26.54 103.63 26.57 103.5 26.6 103.38 26.63 103.25 26.66 103.13 26.69 103 26.72 102.87 26.75 102.75 26.78 102.62 26.82 102.5 26.85 102.37 26.88 102.24 26.91 102.12 26.94 101.99 26.97 101.86 27 101.74 27.03 101.61 27.06 101.49 27.1 101.36 27.13 101.23 27.16 101.11 27.19 100.98 27.22 100.86 27.25 100.73 27.28 100.6 27.31 100.48 27.34 100.35 27.38 100.22 27.41 100.1 27.44 99.97 27.47 99.85 27.5 99.72 27.53 99.59 27.56 99.47 27.59 99.34 27.62 99.22 27.66 99.09 27.69 98.96 27.72 98.84 27.75 98.71 27.78 98.58 27.81 98.46 27.84 98.33 27.87 98.21 27.9 98.08 27.94 97.95 27.97 97.83 28 97.7 28.03 97.58 28.06 97.45 28.09 97.32 28.12 97.2 28.15 97.07 28.18 96.94 28.22 96.82 28.25 96.69 28.28 96.57 28.31 96.44 28.34 96.31 28.37 96.19 28.4 96.06 28.43 95.94 28.46 95.81 28.49 95.68 28.53 95.56 28.56 95.43 28.59 95.3 28.62 95.18 28.65 95.05 28.68 94.93 28.71 94.8 28.74 94.67 28.77 94.55 28.81 94.42 28.84 94.3 28.87 94.17 28.9 94.04 28.93 93.92 28.96 93.79 28.99 93.66 29.02 93.54 29.05 93.41 29.09 93.29 29.12 93.16 29.15 93.03 29.18 92.91 29.21 92.78 29.24 92.66 29.27 92.53 29.3 92.4 29.33 92.28 29.37 92.15 29.4 92.02 29.43 91.9 29.46 91.77 29.49 91.65 29.52 91.52 29.55 91.39 29.58 91.27 29.61 91.14 29.65 91.02 29.68 90.89 29.71 90.76 29.74 90.64 29.77 90.51 29.8 90.38 29.83 90.26 29.86 90.13 29.89 90.01 29.92 89.88 29.96 89.75 29.99 89.63 30.02 89.5 30.05 89.38 30.08 89.25 30.11 89.12 30.14 89 30.17 88.87 30.2 88.74 30.24 88.62 30.27 88.49 30.3 88.37 30.33 88.24 30.36 88.11 30.39 87.99 30.42 87.86 30.45 87.74 30.48 87.61 30.52 87.48 30.55 87.36 30.58 87.23 30.61 87.1 30.64 86.98 30.67 86.85 30.7 86.73 30.73 86.6 30.76 86.47 30.8 86.35 30.83 86.22 30.86 86.1 30.89 85.97 30.92 85.84 30.95 85.72 30.98 85.59 31.01 85.46 31.04 85.34 31.08 85.21 31.11 85.09 31.14 84.96 31.17 84.83 31.2 84.71 31.23 84.58 31.26 84.46 31.29 84.33 31.32 84.2 31.36 84.08 31.39 83.95 31.42 83.82 31.45 83.7 31.48 83.57 31.51 83.45 31.54 83.32 31.57 83.19 31.6 83.07 31.63 82.94 31.67 82.82 31.7 82.69 31.73 82.56 31.76 82.44 31.79 82.31 31.82 82.18 31.85 82.06 31.88 81.93 31.91 81.81 31.95 81.68 31.98 81.55 32.01 81.43 32.04 81.3 32.07 81.18 32.1 81.05 32.13 80.92 32.16 80.8 32.19 80.67 32.23 80.54 32.26 80.42 32.29 80.29 32.32 80.17 32.35 80.04 32.38 79.91 32.41 79.79 32.44 79.66 32.47 79.54 32.51 79.41 32.54 79.28 32.57 79.16 32.6 79.03 32.63 78.9 32.66 78.78 32.69 78.65 32.72 78.53 32.75 78.4 32.79 78.27 32.82 78.15 32.85 78.02 32.88 77.9 32.91 77.77 32.94 77.64 32.97 77.52 33 77.39 33.03 77.26 33.06 77.14 33.1 77.01 33.13 76.89 33.16 76.76 33.19 76.63 33.22 76.51 33.25 76.38 33.28 76.26 33.31 76.13 33.34 76 33.38 75.88 33.41 75.75 33.44 75.63 33.47 75.62 33.47 75.5 33.5 75.37 33.53 75.25 33.56 75.12 33.59 74.99 33.62 74.87 33.66 74.74 33.69 74.62 33.72 74.49 33.75 74.36 33.78 74.24 33.81 74.11 33.84 73.98 33.87 73.86 33.9 73.73 33.94 73.61 33.97 73.48 34 73.35 34.03 73.23 34.06 73.1 34.09 72.98 34.12 72.85 34.15 72.72 34.18 72.6 34.22 72.47 34.25 72.34 34.28 72.22 34.31 72.09 34.34 71.97 34.37 71.84 34.4 71.71 34.43 71.59 34.46 71.46 34.49 71.34 34.53 71.21 34.56 71.08 34.59 70.96 34.62 70.83 34.65 70.7 34.68 70.58 34.71 70.45 34.74 70.33 34.77 70.2 34.81 70.07 34.84 69.95 34.87 69.82 34.9 69.7 34.93 69.57 34.96 69.44 34.99 69.32 35.02 69.19 35.05 69.06 35.09 68.94 35.12 68.81 35.15 68.69 35.18 68.56 35.21 68.43 35.24 68.31 35.27 68.18 35.3 68.06 35.33 67.93 35.37 67.8 35.4 67.68 35.43 67.55 35.46 67.42 35.49 67.3 35.52 67.17 35.55 67.05 35.58 66.92 35.61 66.79 35.65 66.67 35.68 66.54 35.71 66.42 35.74 66.29 35.77 66.16 35.8 66.04 35.83 65.91 35.86 65.78 35.89 65.66 35.93 65.53 35.96 65.41 35.99 65.28 36.02 65.15 36.05 65.03 36.08 64.9 36.11 64.78 36.14 64.65 36.17 64.52 36.2 64.4 36.24 64.27 36.27 64.14 36.3 64.02 36.33 63.89 36.36 63.77 36.39 63.64 36.42 63.51 36.45 63.39 36.48 63.26 36.52 63.14 36.55 63.05 36.57 63.01 36.58 62.88 36.61 62.76 36.64 62.63 36.67 62.5 36.7 62.38 36.73 62.25 36.76 62.13 36.8 62 36.83 61.87 36.86 61.75 36.89 61.62 36.92 61.5 36.95 61.37 36.98 61.24 37.01 61.12 37.04 60.99 37.08 60.86 37.11 60.74 37.14 60.61 37.17 60.49 37.2 60.36 37.23 60.23 37.26 60.11 37.29 59.98 37.32 59.86 37.36 59.73 37.39 59.6 37.42 59.48 37.45 59.35 37.48 59.22 37.51 59.1 37.54 58.97 37.57 58.85 37.6 58.72 37.63 58.59 37.67 58.47 37.7 58.34 37.73 58.22 37.76 58.09 37.79 57.96 37.82 57.84 37.85 57.71 37.88 57.58 37.91 57.46 37.95 57.33 37.98 57.21 38.01 57.08 38.04 56.95 38.07 56.83 38.1 56.7 38.13 56.58 38.16 56.45 38.19 56.32 38.23 56.2 38.26 56.07 38.29 55.94 38.32 55.82 38.35 55.69 38.38 55.57 38.41 55.44 38.44 55.31 38.47 55.19 38.51 55.06 38.54 54.94 38.57 54.81 38.6 54.68 38.63 54.56 38.66 54.43 38.69 54.3 38.72 54.18 38.75 54.05 38.79 53.93 38.82 53.8 38.85 53.67 38.88 53.55 38.91 53.42 38.94 53.3 38.97 53.17 39 53.04 39.03 52.92 39.07 52.79 39.1 52.66 39.13 52.54 39.16 52.41 39.19 52.29 39.22 52.16 39.25 52.03 39.28 51.91 39.31 51.78 39.34 51.66 39.38 51.53 39.41 51.4 39.44 51.28 39.47 51.15 39.5 51.02 39.53 50.9 39.56 50.77 39.59 50.65 39.62 50.52 39.66 50.42 39.68 50.39 39.69 50.27 39.72 50.14 39.75 50.02 39.78 49.89 39.81 49.76 39.84 49.64 39.87 49.51 39.9 49.38 39.94 49.26 39.97 49.13 40 49.01 40.03 48.88 40.06 48.75 40.09 48.63 40.12 48.5 40.15 48.38 40.18 48.25 40.22 48.12 40.25 48 40.28 47.87 40.31 47.74 40.34 47.62 40.37 47.49 40.4 47.37 40.43 47.24 40.46 47.11 40.49 46.99 40.53 46.86 40.56 46.74 40.59 46.61 40.62 46.48 40.65 46.36 40.68 46.23 40.71 46.1 40.74 45.98 40.77 45.85 40.8 45.73 40.84 45.6 40.87 45.47 40.9 45.35 40.93 45.22 40.96 45.1 40.99 44.97 41.02 44.84 41.05 44.72 41.08 44.59 41.11 44.46 41.15 44.34 41.18 44.21 41.21 44.09 41.24 43.96 41.27 43.83 41.3 43.71 41.33 43.58 41.36 43.46 41.39 43.33 41.42 43.2 41.45 43.08 41.48 42.95 41.51 42.82 41.54 42.7 41.57 42.57 41.6 42.45 41.64 42.32 41.67 42.19 41.7 42.07 41.73 41.94 41.76 41.82 41.79 41.69 41.82 41.56 41.85 41.44 41.87 41.31 41.9 41.18 41.93 41.06 41.96 40.93 41.99 40.81 42.02 40.68 42.05 40.55 42.08 40.43 42.11 40.3 42.14 40.18 42.16 40.05 42.19 39.92 42.22 39.8 42.25 39.67 42.27 39.54 42.3 39.42 42.33 39.29 42.35 39.17 42.38 39.04 42.4 38.91 42.43 38.79 42.45 38.66 42.48 38.54 42.5 38.41 42.53 38.28 42.55 38.16 42.57 38.03 42.59 37.9 42.61 37.84 42.63 37.78 42.64 37.65 42.66 37.53 42.68 37.4 42.69 37.27 42.71 37.15 42.73 37.02 42.75 36.9 42.76 36.77 42.78 36.64 42.8 36.52 42.81 36.39 42.83 36.26 42.84 36.14 42.85 36.01 42.86 35.89 42.88 35.76 42.89 35.63 42.9 35.51 42.91 35.38 42.92 35.26 42.93 35.13 42.94 35 42.94 34.88 42.95 34.75 42.96 34.62 42.97 34.5 42.97 34.37 42.98 34.25 42.98 34.12 42.99 33.99 42.99 33.87 43 33.74 43 33.62 43.01 33.49 43.01 33.36 43.01 33.24 43.02 33.11 43.02 32.98 43.02 32.86 43.03 32.73 43.03 32.61 43.03 32.48 43.03 32.35 43.03 32.23 43.04 32.1 43.04 31.98 43.04 31.85 43.04 31.72 43.04 31.6 43.04 31.47 43.04 31.34 43.05 31.22 43.05 31.09 43.05 30.97 43.05 30.84 43.05 30.71 43.05 30.59 43.05 30.46 43.05 30.33 43.05 30.21 43.05 30.08 43.05 29.96 43.05 29.83 43.05 29.7 43.05 29.58 43.05 29.45 43.05 29.33 43.05 29.2 43.06 29.07 43.06 28.95 43.06 28.82 43.06 28.69 43.06 28.57 43.06 28.44 43.06 28.32 43.06 28.19 43.06 28.06 43.06 27.94 43.06 27.81 43.06 27.69 43.06 27.56 43.06 27.43 43.06 27.31 43.06 27.18 43.06 27.05 43.06 26.93 43.06 26.8 43.06 26.68 43.06 26.55 43.06 26.42 43.06 26.3 43.06 26.17 43.06 26.05 43.06 25.92 43.06 25.79 43.06 25.67 43.06 25.54 43.06 25.41 43.06 25.29 43.06 25.26 43.06 25.16 43.06 25.04 43.06 24.91 43.06 24.78 43.06 24.66 43.06 24.53 43.06 24.41 43.06 24.28 43.06 24.15 43.06 24.03 43.06 23.9 43.06 23.77 43.06 23.65 43.06 23.52 43.06 23.4 43.06 23.27 43.06 23.14 43.06 23.02 43.06 22.89 43.06 22.77 43.06 22.64 43.06 22.51 43.06 22.39 43.06 22.26 43.06 22.13 43.06 22.01 43.06 21.88 43.06 21.76 43.06 21.63 43.06 21.5 43.06 21.38 43.06 21.25 43.06 21.13 43.06 21 43.06 20.87 43.06 20.75 43.06 20.62 43.06 20.49 43.06 20.37 43.06 20.24 43.06 20.12 43.06 19.99 43.06 19.86 43.06 19.74 43.06 19.61 43.06 19.49 43.06 19.36 43.06 19.23 43.06 19.11 43.06 18.98 43.06 18.85 43.06 18.73 43.06 18.6 43.06 18.48 43.06 18.35 43.06 18.22 43.06 18.1 43.06 17.97 43.06 17.85 43.06 17.72 43.06 17.59 43.06 17.47 43.06 17.34 43.06 17.21 43.06 17.09 43.06 16.96 43.06 16.84 43.06 16.71 43.06 16.58 43.06 16.46 43.06 16.33 43.06 16.21 43.06 16.08 43.06 15.95 43.06 15.83 43.06 15.7 43.06 15.57 43.06 15.45 43.06 15.32 43.06 15.2 43.06 15.07 43.06 14.94 43.06 14.82 43.06 14.69 43.06 14.57 43.06 14.44 43.06 14.31 43.06 14.19 43.06 14.06 43.06 13.93 43.06 13.81 43.06 13.68 43.06 13.56 43.06 13.43 43.06 13.3 43.06 13.18 43.06 13.05 43.06 12.93 43.06 12.8 43.06 12.67 43.06"/>
    </g>
  </g>
  <g id="n" data-name="Means">
    <g id="o" data-name="20°">
      <g>
        <line class="v" x1="12.67" y1="42.97" x2="12.67" y2="47.58"/>
        <line class="v" x1="12.67" y1="42.97" x2="12.67" y2="38.36"/>
        <line class="v" x1="11.13" y1="47.58" x2="14.22" y2="47.58"/>
        <line class="v" x1="11.13" y1="38.36" x2="14.22" y2="38.36"/>
      </g>
      <g>
        <line class="v" x1="25.26" y1="41.06" x2="25.26" y2="47.19"/>
        <line class="v" x1="25.26" y1="41.06" x2="25.26" y2="34.94"/>
        <line class="v" x1="23.71" y1="47.19" x2="26.8" y2="47.19"/>
        <line class="v" x1="23.71" y1="34.94" x2="26.8" y2="34.94"/>
      </g>
      <g>
        <line class="v" x1="37.84" y1="48.93" x2="37.84" y2="52.12"/>
        <line class="v" x1="37.84" y1="48.93" x2="37.84" y2="45.73"/>
        <line class="v" x1="36.29" y1="52.12" x2="39.38" y2="52.12"/>
        <line class="v" x1="36.29" y1="45.73" x2="39.38" y2="45.73"/>
      </g>
      <g>
        <line class="v" x1="50.42" y1="41.56" x2="50.42" y2="46.46"/>
        <line class="v" x1="50.42" y1="41.56" x2="50.42" y2="36.66"/>
        <line class="v" x1="48.87" y1="46.46" x2="51.97" y2="46.46"/>
        <line class="v" x1="48.87" y1="36.66" x2="51.97" y2="36.66"/>
      </g>
      <g>
        <line class="v" x1="63.05" y1="35.97" x2="63.05" y2="40.44"/>
        <line class="v" x1="63.05" y1="35.97" x2="63.05" y2="31.5"/>
        <line class="v" x1="61.5" y1="40.44" x2="64.6" y2="40.44"/>
        <line class="v" x1="61.5" y1="31.5" x2="64.6" y2="31.5"/>
      </g>
      <g>
        <line class="v" x1="75.63" y1="24.91" x2="75.63" y2="33.27"/>
        <line class="v" x1="75.63" y1="24.91" x2="75.63" y2="16.56"/>
        <line class="v" x1="74.09" y1="33.27" x2="77.18" y2="33.27"/>
        <line class="v" x1="74.09" y1="16.56" x2="77.18" y2="16.56"/>
      </g>
      <g>
        <line class="v" x1="138.83" y1="20.95" x2="138.83" y2="29.42"/>
        <line class="v" x1="138.83" y1="20.95" x2="138.83" y2="12.47"/>
        <line class="v" x1="137.28" y1="29.42" x2="140.37" y2="29.42"/>
        <line class="v" x1="137.28" y1="12.47" x2="140.37" y2="12.47"/>
      </g>
      <g id="p" data-name="means">
        <g>
          <rect class="ad" x="11.51" y="41.81" width="2.33" height="2.33" transform="translate(-26.67 21.55) rotate(-45)"/>
          <g class="z">
            <path class="aa" d="M12.67,41.32l1.64,1.64-1.64,1.64-1.64-1.64,1.64-1.64M12.67,40.97l-.18.18-1.64,1.64-.18.18.18.18,1.64,1.64.18.18.18-.18,1.64-1.64.18-.18-.18-.18-1.64-1.64-.18-.18h0Z"/>
          </g>
        </g>
        <g>
          <rect class="ad" x="24.09" y="39.9" width="2.33" height="2.33" transform="translate(-21.64 29.89) rotate(-45)"/>
          <g class="z">
            <path class="aa" d="M25.26,39.42l1.64,1.64-1.64,1.64-1.64-1.64,1.64-1.64M25.26,39.07l-.18.18-1.64,1.64-.18.18.18.18,1.64,1.64.18.18.18-.18,1.64-1.64.18-.18-.18-.18-1.64-1.64-.18-.18h0Z"/>
          </g>
        </g>
        <g>
          <rect class="ad" x="36.67" y="47.76" width="2.33" height="2.33" transform="translate(-23.51 41.09) rotate(-45)"/>
          <g class="z">
            <path class="aa" d="M37.84,47.28l1.64,1.64-1.64,1.64-1.64-1.64,1.64-1.64M37.84,46.93l-.18.18-1.64,1.64-.18.18.18.18,1.64,1.64.18.18.18-.18,1.64-1.64.18-.18-.18-.18-1.64-1.64-.18-.18h0Z"/>
          </g>
        </g>
        <g>
          <rect class="ad" x="49.26" y="40.4" width="2.33" height="2.33" transform="translate(-14.62 47.82) rotate(-45)"/>
          <g class="z">
            <path class="aa" d="M50.42,39.91l1.64,1.64-1.64,1.64-1.64-1.64,1.64-1.64M50.42,39.56l-.18.18-1.64,1.64-.18.18.18.18,1.64,1.64.18.18.18-.18,1.64-1.64.18-.18-.18-.18-1.64-1.64-.18-.18h0Z"/>
          </g>
        </g>
        <g>
          <rect class="ad" x="61.89" y="34.81" width="2.33" height="2.33" transform="translate(-6.97 55.12) rotate(-45)"/>
          <g class="z">
            <path class="aa" d="M63.05,34.33l1.64,1.64-1.64,1.64-1.64-1.64,1.64-1.64M63.05,33.97l-.18.18-1.64,1.64-.18.18.18.18,1.64,1.64.18.18.18-.18,1.64-1.64.18-.18-.18-.18-1.64-1.64-.18-.18h0Z"/>
          </g>
        </g>
        <g>
          <rect class="ad" x="74.47" y="23.75" width="2.33" height="2.33" transform="translate(4.53 60.78) rotate(-45)"/>
          <g class="z">
            <path class="aa" d="M75.63,23.27l1.64,1.64-1.64,1.64-1.64-1.64,1.64-1.64M75.63,22.92l-.18.18-1.64,1.64-.18.18.18.18,1.64,1.64.18.18.18-.18,1.64-1.64.18-.18-.18-.18-1.64-1.64-.18-.18h0Z"/>
          </g>
        </g>
        <g>
          <rect class="ad" x="137.67" y="19.78" width="2.33" height="2.33" transform="translate(25.85 104.3) rotate(-45)"/>
          <g class="z">
            <path class="aa" d="M138.83,19.3l1.64,1.64-1.64,1.64-1.64-1.64,1.64-1.64M138.83,18.95l-.18.18-1.64,1.64-.18.18.18.18,1.64,1.64.18.18.18-.18,1.64-1.64.18-.18-.18-.18-1.64-1.64-.18-.18h0Z"/>
          </g>
        </g>
      </g>
    </g>
  </g>
  <g id="s" data-name="Layer 19">
    <g>
      <path d="M1.84,49.71l.52.11v.72l2.13.45s.08,0,.12.01c.04,0,.08,0,.12,0,.09,0,.16-.04.19-.11.04-.07.05-.16.05-.25,0-.06,0-.12-.02-.17s-.03-.11-.04-.17l.55.11c0,.07.02.14.02.21,0,.07.01.14.01.21,0,.11,0,.22-.02.31-.02.1-.05.18-.09.26-.04.07-.1.13-.18.17-.08.04-.17.07-.29.07-.05,0-.1,0-.15-.01-.05,0-.1-.01-.15-.02l-2.25-.48v.61l-.52-.11v-.61l-1.07-.22v-.6l1.07.22v-.72Z"/>
      <path d="M.46,48.16l1.91.43h.01c-.21-.16-.37-.35-.47-.58-.1-.23-.16-.47-.16-.72,0-.34.07-.59.22-.76.15-.17.38-.25.71-.25.08,0,.18,0,.31.03s.26.04.4.08l2.07.44v.59l-2.11-.46s-.08-.01-.13-.02c-.05,0-.1-.02-.15-.03-.05,0-.11-.02-.15-.02s-.09-.01-.12-.01c-.17,0-.3.06-.38.18-.08.12-.12.27-.12.45,0,.16.04.33.12.49.08.16.18.3.3.41.09.11.21.19.34.25s.27.11.42.15l2,.42v.59l-5-1.05v-.59Z"/>
      <path d="M1.84,44.6l.78.17h0c-.25-.15-.45-.33-.62-.55s-.25-.48-.25-.78c0-.04,0-.07,0-.11,0-.03,0-.07,0-.11l.64.14s0,.05,0,.09v.08c0,.08,0,.14,0,.18,0,.05.01.11.03.18.04.16.11.31.22.44.1.13.23.24.37.33.12.08.25.14.41.19.16.05.3.08.44.11l1.6.34v.59l-3.62-.75v-.56Z"/>
      <path d="M4.14,43.01c.14,0,.26-.03.38-.08.11-.05.2-.12.27-.21s.13-.19.17-.3c.04-.11.06-.23.06-.35,0-.27-.06-.49-.18-.66-.12-.17-.29-.3-.51-.39v-.59c.2.05.38.12.53.22.15.1.28.23.38.37.1.15.18.31.23.48.05.18.08.36.08.56,0,.3-.05.55-.14.75s-.21.36-.35.47c-.14.12-.3.2-.47.25-.17.05-.33.07-.49.07-.35,0-.66-.05-.95-.15-.29-.1-.53-.24-.74-.41-.21-.17-.36-.37-.48-.59s-.17-.46-.17-.71c0-.53.14-.92.42-1.17s.67-.37,1.18-.37c.09,0,.18,0,.27.02.08.01.15.03.2.04v2.72c.1.01.21.02.31.02ZM2.93,40.83c-.12.03-.23.07-.33.14-.1.07-.17.16-.23.27-.06.11-.09.25-.09.41,0,.17.03.33.08.47s.13.26.22.36c.09.1.2.19.33.26.12.07.26.13.4.17v-2.1c-.13,0-.25,0-.37.02Z"/>
      <path d="M2.44,37.64c-.11.15-.16.33-.16.54,0,.09,0,.18.02.27s.04.18.07.25.08.13.14.18c.06.05.13.07.23.07.08,0,.16-.03.22-.08.06-.05.12-.13.17-.22.05-.09.1-.19.14-.31.04-.11.09-.23.14-.35.05-.12.11-.24.17-.35s.13-.22.21-.3.17-.16.27-.22c.1-.06.23-.08.37-.08.2,0,.37.04.51.13s.26.2.35.34c.09.14.15.3.19.47.04.17.06.35.06.53,0,.21-.02.4-.06.58-.04.18-.11.33-.2.46-.09.13-.22.23-.37.3-.16.07-.35.11-.58.11v-.59c.13,0,.24-.01.33-.06s.16-.12.22-.2c.05-.09.09-.19.12-.3s.04-.23.04-.36c0-.1,0-.2-.03-.29-.02-.1-.05-.19-.09-.27-.04-.08-.1-.14-.17-.19-.07-.05-.16-.07-.26-.07-.09,0-.17.03-.23.08-.06.06-.12.13-.17.22-.05.09-.1.19-.14.3-.04.11-.09.23-.14.35-.05.12-.1.24-.15.35-.06.11-.12.22-.2.31-.08.09-.17.16-.27.22-.1.05-.22.08-.36.08-.17,0-.32-.04-.45-.12s-.24-.18-.33-.3c-.09-.13-.15-.27-.2-.43-.05-.16-.07-.33-.07-.49s.02-.33.06-.5c.04-.16.1-.31.2-.44.09-.13.21-.23.36-.31.15-.08.33-.12.54-.12v.59c-.21,0-.36.06-.46.21Z"/>
      <path d="M.46,34.93l1.91.43h.01c-.21-.16-.37-.35-.47-.58-.1-.23-.16-.47-.16-.72,0-.34.07-.59.22-.76s.38-.25.71-.25c.08,0,.18,0,.31.03.13.02.26.04.4.08l2.07.44v.6l-2.11-.46s-.08-.01-.13-.02c-.05,0-.1-.02-.15-.03-.05,0-.11-.02-.15-.02s-.09-.01-.12-.01c-.17,0-.3.06-.38.18-.08.12-.12.27-.12.45,0,.16.04.33.12.49.08.16.18.3.3.41.09.11.21.19.34.25s.27.11.42.15l2,.42v.59l-5-1.05v-.59Z"/>
      <path d="M3.17,32.4c-.28-.09-.52-.22-.73-.4-.21-.18-.38-.39-.5-.64s-.19-.53-.19-.85c0-.49.13-.86.38-1.12.25-.26.63-.38,1.12-.38.29,0,.58.04.85.13.28.09.52.22.73.39.21.17.38.38.51.63.13.25.19.53.19.85,0,.24-.04.45-.11.64s-.18.35-.31.48c-.13.13-.29.23-.48.3-.18.07-.39.1-.61.1-.29,0-.58-.05-.85-.14ZM4.74,31.69c.18-.17.27-.42.27-.74,0-.22-.06-.41-.17-.58-.11-.17-.25-.31-.42-.42-.17-.11-.36-.2-.56-.26-.2-.06-.39-.09-.57-.09-.14,0-.27.02-.4.06-.13.04-.23.1-.33.18-.09.08-.16.18-.22.3s-.08.26-.08.42c0,.23.06.43.17.6.11.17.25.32.42.43.17.12.36.2.56.26.21.06.4.09.59.09.3,0,.54-.08.72-.25Z"/>
      <path d="M.46,27.03l5,1.05v.59l-5-1.04v-.59Z"/>
      <path d="M5.46,24.46l-.52-.13h0c.23.19.39.37.47.56.08.19.12.4.12.65,0,.23-.04.43-.11.61-.07.18-.17.33-.3.45-.13.12-.28.21-.46.27-.18.06-.38.09-.6.09-.28,0-.55-.05-.82-.14-.27-.09-.52-.22-.74-.39-.22-.17-.4-.38-.54-.63s-.21-.53-.21-.85c0-.11.01-.23.03-.34.02-.12.06-.23.11-.33.05-.1.11-.2.2-.28.08-.08.18-.14.3-.17h0s-1.93-.4-1.93-.4v-.59l5,1.06v.56ZM4.76,26.15c.17-.15.26-.38.26-.71,0-.22-.06-.42-.17-.6s-.26-.33-.44-.44c-.18-.12-.37-.21-.58-.27-.21-.06-.41-.09-.6-.09-.27,0-.49.08-.67.23-.18.16-.27.38-.27.68,0,.24.06.45.17.62s.25.33.42.45c.17.12.36.21.57.27.21.06.42.09.62.09.29,0,.53-.07.7-.22Z"/>
      <path d="M1.02,18.23l4.44.94v.67l-4.44-.94v1.68l-.56-.12v-4.03l.56.13v1.68Z"/>
    </g>
  </g>
</svg>