<?xml version="1.0" encoding="UTF-8"?>
<svg xmlns="http://www.w3.org/2000/svg" viewBox="0 0 159.54 79.35">
  <defs>
    <style>
      .t, .u, .v, .w, .x, .y, .z {
        fill: none;
      }

      .u {
        stroke: #fff;
      }

      .u, .v, .w, .x, .y, .z {
        stroke-linecap: round;
      }

      .u, .v, .w, .y, .z {
        stroke-linejoin: round;
      }

      .u, .aa {
        opacity: .5;
      }

      .v, .x {
        stroke: #1f4277;
      }

      .v, .x, .y {
        stroke-width: .5px;
      }

      .w {
        stroke: #8fb1d8;
        stroke-width: .75px;
      }

      .ab {
        fill: #fff;
      }

      .ac {
        fill: #e0ebf8;
      }

      .ac, .ad {
        opacity: .3;
      }

      .x {
        stroke-miterlimit: 2;
      }

      .y {
        stroke: #000;
      }

      .ae, .ad {
        fill: #1e4377;
      }

      .z {
        stroke: #e0ebf8;
        stroke-width: .25px;
      }
    </style>
  </defs>
  <g id="a" data-name="background">
    <rect class="ac" x="12.54" y=".82" width="142.44" height="67.54"/>
  </g>
  <g id="c" data-name="Lines">
    <g>
      <line class="z" x1="12.49" y1=".69" x2="154.99" y2=".69"/>
      <line class="z" x1="12.49" y1="11.95" x2="154.99" y2="11.95"/>
      <line class="z" x1="12.49" y1="23.21" x2="154.99" y2="23.21"/>
      <line class="z" x1="12.49" y1="34.48" x2="154.99" y2="34.48"/>
      <line class="z" x1="12.49" y1="45.74" x2="154.99" y2="45.74"/>
      <line class="z" x1="12.49" y1="57" x2="154.99" y2="57"/>
    </g>
  </g>
  <g id="d" data-name="Axes">
    <g>
      <line class="y" x1="12.49" y1="68.26" x2="155.03" y2="68.26"/>
      <line class="y" x1="155.03" y1="68.26" x2="155.03" y2="66.83"/>
      <line class="y" x1="12.49" y1="68.26" x2="12.49" y2=".69"/>
      <line class="y" x1="12.49" y1=".69" x2="13.92" y2=".69"/>
      <line class="y" x1="12.49" y1="11.95" x2="13.92" y2="11.95"/>
      <line class="y" x1="12.49" y1="23.21" x2="13.92" y2="23.21"/>
      <line class="y" x1="12.49" y1="34.48" x2="13.92" y2="34.48"/>
      <line class="y" x1="12.49" y1="45.74" x2="13.92" y2="45.74"/>
      <line class="y" x1="12.49" y1="57" x2="13.92" y2="57"/>
    </g>
  </g>
  <g id="e" data-name="Layer 22" class="aa">
    <circle class="ad" cx="40.95" cy="61.98" r="3.26"/>
    <circle class="ad" cx="12.44" cy="62.09" r="3.11"/>
    <circle class="ad" cx="97.99" cy="55.44" r="3.76" transform="translate(40.94 152.5) rotate(-89.06)"/>
    <circle class="ad" cx="126.5" cy="65.8" r="2.57"/>
    <circle class="ad" cx="69.47" cy="60.26" r="3.09" transform="translate(6.05 126.85) rotate(-87.34)"/>
    <circle class="ad" cx="155.02" cy="61.64" r="3.24" transform="translate(-2.1 5.56) rotate(-2.04)"/>
    <circle class="ad" cx="12.44" cy="59.25" r="3.63" transform="translate(-47.03 70.64) rotate(-88.98)"/>
    <circle class="ad" cx="40.95" cy="52.79" r="3.67" transform="translate(-12.59 92.75) rotate(-88.93)"/>
    <circle class="ad" cx="69.47" cy="43.81" r="3.6"/>
    <circle class="ad" cx="97.99" cy="57.98" r="3.2" transform="translate(33.97 152.14) rotate(-86.4)"/>
    <circle class="ad" cx="126.5" cy="35.7" r="4.09"/>
    <circle class="ad" cx="155.02" cy="45.45" r="3.47" transform="translate(-.78 2.74) rotate(-1.01)"/>
    <circle class="ad" cx="12.44" cy="54.61" r="4.42" transform="translate(-42.36 66.22) rotate(-89.13)"/>
    <circle class="ad" cx="40.95" cy="61.34" r="3.71"/>
    <circle class="ad" cx="69.47" cy="56.57" r="3.26" transform="translate(10.09 123.66) rotate(-87.64)"/>
    <circle class="ad" cx="97.99" cy="57.65" r="3.09" transform="translate(36.22 153.1) rotate(-87.56)"/>
    <circle class="ad" cx="126.5" cy="57.87" r="3.31"/>
    <circle class="ad" cx="155.02" cy="6.46" r="4.52"/>
    <circle class="ad" cx="12.44" cy="56.05" r="3.18" transform="translate(-43.85 67.39) rotate(-88.88)"/>
    <circle class="ad" cx="40.95" cy="64.07" r="2.63"/>
    <circle class="ad" cx="69.47" cy="57.31" r="2.95"/>
    <circle class="ad" cx="97.99" cy="59.1" r="3.12"/>
    <circle class="ad" cx="126.5" cy="35.64" r="4.16" transform="translate(88.75 161.52) rotate(-89.04)"/>
    <circle class="ad" cx="155.02" cy="29.61" r="3.63" transform="translate(-.48 2.61) rotate(-.96)"/>
    <circle class="ad" cx="12.44" cy="45.37" r="3.6"/>
    <circle class="ad" cx="40.95" cy="56.71" r="3.2" transform="translate(-16.6 96.46) rotate(-88.8)"/>
    <circle class="ad" cx="69.47" cy="61.19" r="2.76" transform="translate(-1.53 1.78) rotate(-1.45)"/>
    <circle class="ad" cx="97.99" cy="19.53" r="3.85" transform="translate(76.67 117.14) rotate(-88.95)"/>
    <circle class="ad" cx="126.5" cy="22.44" r="3.67" transform="translate(-.36 2.13) rotate(-.96)"/>
    <circle class="ad" cx="155.02" cy="15.6" r="4.42" transform="translate(136.69 170.32) rotate(-88.99)"/>
    <circle class="ad" cx="12.44" cy="57.61" r="3.67" transform="translate(-45.59 67.95) rotate(-87.92)"/>
    <circle class="ad" cx="40.95" cy="50.62" r="3.28" transform="translate(-10.58 90.42) rotate(-88.7)"/>
    <circle class="ad" cx="69.47" cy="22.53" r="3.76"/>
    <circle class="ad" cx="97.99" cy="13.75" r="4.16"/>
    <circle class="ad" cx="126.5" cy="16.75" r="4.52" transform="translate(-.19 1.53) rotate(-.69)"/>
    <circle class="ad" cx="155.02" cy="28.67" r="3.8" transform="translate(121.83 182.79) rotate(-88.32)"/>
    <circle class="ad" cx="12.44" cy="61.06" r="3.38" transform="translate(-1.29 .28) rotate(-1.21)"/>
    <circle class="ad" cx="97.99" cy="45.21" r="3.8" transform="translate(-2.26 5.26) rotate(-3.04)"/>
    <path class="ad" d="M72.5,63.07c0-1.67-1.35-3.03-3.03-3.03s-3.03,1.35-3.03,3.03,1.35,3.03,3.03,3.03,3.03-1.35,3.03-3.03Z"/>
    <circle class="ad" cx="155.02" cy="39.78" r="3.33" transform="translate(-.63 2.55) rotate(-.94)"/>
    <circle class="ad" cx="40.95" cy="54.13" r="3.31" transform="translate(-1 .77) rotate(-1.06)"/>
    <path class="ad" d="M15.28,64.27c0-1.57-1.27-2.84-2.84-2.84s-2.84,1.27-2.84,2.84,1.27,2.84,2.84,2.84,2.84-1.27,2.84-2.84Z"/>
    <circle class="ad" cx="40.95" cy="62" r="2.95" transform="translate(-3.55 2.5) rotate(-3.35)"/>
    <circle class="ad" cx="69.47" cy="59.3" r="3.38"/>
    <circle class="ad" cx="97.99" cy="45.02" r="3.96" transform="translate(51.19 142.17) rotate(-88.96)"/>
    <path class="ad" d="M129.68,35.86c0-1.76-1.42-3.18-3.18-3.18s-3.18,1.42-3.18,3.18,1.42,3.18,3.18,3.18,3.18-1.42,3.18-3.18Z"/>
    <circle class="ad" cx="155.02" cy="31.43" r="3.67" transform="translate(-.51 2.61) rotate(-.96)"/>
    <circle class="ad" cx="12.44" cy="58.33" r="3.56" transform="translate(-1 .22) rotate(-.99)"/>
    <circle class="ad" cx="40.95" cy="54.06" r="3.47" transform="translate(-13.9 93.94) rotate(-88.87)"/>
    <circle class="ad" cx="69.47" cy="41.03" r="3.2" transform="translate(-1.6 2.83) rotate(-2.31)"/>
    <circle class="ad" cx="97.99" cy="60.2" r="2.66" transform="translate(-3.03 5.24) rotate(-3.01)"/>
    <circle class="ad" cx="126.5" cy="28.44" r="3.38" transform="translate(95.94 154.45) rotate(-89.04)"/>
    <circle class="ad" cx="155.02" cy="14.25" r="4.52" transform="translate(-.37 4.79) rotate(-1.77)"/>
    <circle class="ad" cx="69.47" cy="22.84" r="3.67" transform="translate(45.23 91.83) rotate(-88.84)"/>
  </g>
  <g id="f" data-name="Data-Dots">
    <g id="i" data-name="Ebene 11 Kopie">
      <circle class="ae" cx="12.49" cy="59.17" r=".38"/>
      <circle class="ae" cx="12.49" cy="54.53" r=".38"/>
      <circle class="ae" cx="12.49" cy="57.53" r=".38"/>
      <circle class="ae" cx="12.49" cy="60.98" r=".38"/>
      <circle class="ae" cx="12.49" cy="58.25" r=".38"/>
      <circle class="ae" cx="12.49" cy="62" r=".38"/>
      <circle class="ae" cx="12.49" cy="55.97" r=".38"/>
      <circle class="ae" cx="12.49" cy="45.31" r=".38"/>
      <circle class="ae" cx="12.49" cy="64.18" r=".38"/>
      <circle class="ae" cx="41" cy="61.89" r=".38"/>
      <circle class="ae" cx="41" cy="52.71" r=".38"/>
      <circle class="ae" cx="41" cy="61.25" r=".38"/>
      <circle class="ae" cx="41" cy="63.98" r=".38"/>
      <circle class="ae" cx="41" cy="56.63" r=".38"/>
      <circle class="ae" cx="41" cy="50.54" r=".38"/>
      <circle class="ae" cx="41" cy="54.05" r=".38"/>
      <circle class="ae" cx="41" cy="61.91" r=".38"/>
      <circle class="ae" cx="41" cy="53.98" r=".38"/>
      <circle class="ae" cx="69.51" cy="60.17" r=".38"/>
      <circle class="ae" cx="69.51" cy="43.75" r=".38"/>
      <circle class="ae" cx="69.51" cy="56.49" r=".38"/>
      <circle class="ae" cx="69.51" cy="57.23" r=".38"/>
      <circle class="ae" cx="69.51" cy="61.11" r=".38"/>
      <circle class="ae" cx="69.51" cy="22.5" r=".38"/>
      <circle class="ae" cx="69.51" cy="62.98" r=".38"/>
      <circle class="ae" cx="69.51" cy="59.21" r=".38"/>
      <circle class="ae" cx="69.51" cy="40.97" r=".38"/>
      <circle class="ae" cx="69.51" cy="22.81" r=".38"/>
      <circle class="ae" cx="98.02" cy="55.36" r=".38"/>
      <circle class="ae" cx="98.02" cy="57.9" r=".38"/>
      <circle class="ae" cx="98.02" cy="57.57" r=".38"/>
      <circle class="ae" cx="98.02" cy="59.02" r=".38"/>
      <circle class="ae" cx="98.02" cy="19.5" r=".38"/>
      <circle class="ae" cx="98.02" cy="13.73" r=".38"/>
      <circle class="ae" cx="98.02" cy="45.15" r=".38"/>
      <circle class="ae" cx="98.02" cy="44.96" r=".38"/>
      <circle class="ae" cx="98.02" cy="60.11" r=".38"/>
      <circle class="ae" cx="126.53" cy="65.7" r=".38"/>
      <circle class="ae" cx="126.53" cy="35.64" r=".38"/>
      <circle class="ae" cx="126.53" cy="57.78" r=".38"/>
      <circle class="ae" cx="126.53" cy="35.58" r=".38"/>
      <circle class="ae" cx="126.53" cy="22.41" r=".38"/>
      <circle class="ae" cx="126.53" cy="16.72" r=".38"/>
      <circle class="ae" cx="126.53" cy="35.81" r=".38"/>
      <circle class="ae" cx="126.53" cy="28.4" r=".38"/>
      <circle class="ae" cx="155.03" cy="61.55" r=".38"/>
      <circle class="ae" cx="155.03" cy="45.38" r=".38"/>
      <circle class="ae" cx="155.03" cy="6.45" r=".38"/>
      <circle class="ae" cx="155.03" cy="29.57" r=".38"/>
      <circle class="ae" cx="155.03" cy="15.58" r=".38"/>
      <circle class="ae" cx="155.03" cy="28.63" r=".38"/>
      <circle class="ae" cx="155.03" cy="39.72" r=".38"/>
      <circle class="ae" cx="155.03" cy="31.39" r=".38"/>
      <circle class="ae" cx="155.03" cy="14.23" r=".38"/>
    </g>
  </g>
  <g id="j" data-name="Text">
    <g>
      <path d="M1.7,49.71l.52.11v.72l2.13.45s.08,0,.12.01c.04,0,.08,0,.12,0,.09,0,.16-.04.19-.11.04-.07.05-.16.05-.25,0-.06,0-.12-.02-.17s-.03-.11-.05-.17l.55.11c0,.07.02.14.02.21,0,.07.01.14.01.21,0,.11,0,.22-.02.31-.02.1-.05.18-.09.26s-.1.13-.18.17-.17.07-.29.07c-.05,0-.1,0-.15-.01-.05,0-.1-.01-.15-.02l-2.25-.48v.61l-.52-.11v-.61l-1.07-.22v-.6l1.07.22v-.72Z"/>
      <path d="M.33,48.16l1.91.43h.01c-.21-.16-.37-.35-.47-.58-.1-.23-.16-.47-.16-.72,0-.34.07-.59.22-.76.15-.17.38-.25.71-.25.08,0,.18,0,.31.03s.26.04.4.08l2.06.44v.59l-2.11-.46s-.08-.01-.13-.02c-.05,0-.1-.02-.15-.03-.05,0-.1-.02-.15-.02-.05,0-.09-.01-.12-.01-.17,0-.3.06-.38.18-.08.12-.12.27-.12.45,0,.16.04.33.12.49.08.16.18.3.3.41.09.11.21.19.34.25s.27.11.42.15l2,.42v.59l-5-1.05v-.59Z"/>
      <path d="M1.7,44.6l.78.17h0c-.25-.15-.45-.33-.62-.55-.16-.22-.25-.48-.25-.78,0-.04,0-.07,0-.11,0-.03,0-.07,0-.11l.64.14s0,.05,0,.09v.08c0,.08,0,.14,0,.18,0,.05.01.11.03.18.04.16.11.31.22.44.1.13.23.24.37.33.12.08.25.14.41.19.16.05.3.08.44.11l1.6.34v.59l-3.62-.75v-.56Z"/>
      <path d="M4.01,43.01c.14,0,.26-.03.37-.08.11-.05.2-.12.27-.21s.13-.19.17-.3.06-.23.06-.35c0-.27-.06-.49-.18-.66-.12-.17-.29-.3-.51-.39v-.59c.2.05.38.12.53.22s.28.23.38.37c.1.15.18.31.23.48.05.18.08.36.08.56,0,.3-.05.55-.14.75-.09.2-.21.36-.35.47-.14.12-.3.2-.47.25-.17.05-.33.07-.49.07-.35,0-.66-.05-.95-.15-.29-.1-.53-.24-.74-.41-.21-.17-.36-.37-.48-.59-.11-.23-.17-.46-.17-.71,0-.53.14-.92.42-1.17.28-.25.67-.37,1.18-.37.09,0,.18,0,.27.02.08.01.15.03.2.04v2.72c.1.01.21.02.31.02ZM2.79,40.83c-.12.03-.23.07-.33.14-.1.07-.17.16-.23.27-.06.11-.09.25-.09.41,0,.17.03.33.08.47.05.14.13.26.22.36s.2.19.33.26c.12.07.26.13.4.17v-2.1c-.13,0-.25,0-.37.02Z"/>
      <path d="M2.3,37.64c-.1.15-.16.33-.16.54,0,.09,0,.18.02.27.01.09.04.18.07.25s.08.13.14.18c.06.05.13.07.23.07.08,0,.16-.03.22-.08.06-.05.12-.13.17-.22s.1-.19.14-.31.09-.23.14-.35c.05-.12.11-.24.17-.35s.13-.22.21-.3c.08-.09.17-.16.27-.22s.23-.08.37-.08c.2,0,.37.04.51.13.14.09.26.2.35.34.09.14.15.3.19.47s.06.35.06.53c0,.21-.02.4-.06.58-.04.18-.11.33-.2.46-.09.13-.22.23-.37.3-.16.07-.35.11-.58.11v-.59c.13,0,.24-.01.33-.06.09-.05.16-.12.22-.2.05-.09.09-.19.12-.3s.04-.23.04-.36c0-.1,0-.2-.03-.29-.02-.1-.05-.19-.09-.27-.04-.08-.1-.14-.17-.19-.07-.05-.16-.07-.26-.07-.09,0-.16.03-.23.08-.06.06-.12.13-.17.22-.05.09-.1.19-.14.3-.04.11-.09.23-.14.35-.05.12-.1.24-.15.35s-.12.22-.2.31c-.08.09-.17.16-.27.22-.1.05-.22.08-.36.08-.17,0-.32-.04-.45-.12-.13-.08-.24-.18-.33-.3s-.15-.27-.2-.43c-.05-.16-.07-.33-.07-.49s.02-.33.06-.5.1-.31.2-.44c.09-.13.21-.23.36-.31s.33-.12.54-.12v.59c-.21,0-.36.06-.47.21Z"/>
      <path d="M.33,34.93l1.91.43h.01c-.21-.16-.37-.35-.47-.58-.1-.23-.16-.47-.16-.72,0-.34.07-.59.22-.76s.38-.25.71-.25c.08,0,.18,0,.31.03.13.02.26.04.4.08l2.06.44v.6l-2.11-.46s-.08-.01-.13-.02c-.05,0-.1-.02-.15-.03-.05,0-.1-.02-.15-.02-.05,0-.09-.01-.12-.01-.17,0-.3.06-.38.18-.08.12-.12.27-.12.45,0,.16.04.33.12.49.08.16.18.3.3.41.09.11.21.19.34.25s.27.11.42.15l2,.42v.59l-5-1.05v-.59Z"/>
      <path d="M3.04,32.4c-.27-.09-.52-.22-.73-.4-.21-.18-.38-.39-.5-.64s-.19-.53-.19-.85c0-.49.13-.86.38-1.12.25-.26.63-.38,1.12-.38.29,0,.58.04.85.13.28.09.52.22.73.39.21.17.38.38.51.63.13.25.19.53.19.85,0,.24-.04.45-.11.64-.07.19-.18.35-.31.48-.13.13-.29.23-.48.3-.18.07-.39.1-.61.1-.29,0-.58-.05-.85-.14ZM4.61,31.69c.18-.17.27-.42.27-.74,0-.22-.06-.41-.17-.58-.11-.17-.25-.31-.42-.42-.17-.11-.36-.2-.56-.26-.2-.06-.39-.09-.57-.09-.14,0-.27.02-.4.06-.13.04-.23.1-.33.18-.09.08-.16.18-.22.3-.05.12-.08.26-.08.42,0,.23.06.43.17.6.11.17.25.32.42.43s.36.2.56.26c.21.06.4.09.59.09.3,0,.54-.08.72-.25Z"/>
      <path d="M.33,27.03l5,1.05v.59l-5-1.04v-.59Z"/>
      <path d="M5.32,24.46l-.52-.13h0c.23.19.39.37.47.56s.12.4.12.65c0,.23-.04.43-.11.61-.07.18-.17.33-.3.45-.13.12-.28.21-.47.27-.18.06-.38.09-.6.09-.28,0-.55-.05-.82-.14-.27-.09-.52-.22-.74-.39s-.4-.38-.54-.63-.21-.53-.21-.85c0-.11.01-.23.03-.34.02-.12.06-.23.1-.33.05-.1.11-.2.2-.28.08-.08.18-.14.3-.17h0s-1.93-.4-1.93-.4v-.59l5,1.06v.56ZM4.62,26.15c.17-.15.26-.38.26-.71,0-.22-.06-.42-.18-.6-.12-.18-.26-.33-.44-.44-.18-.12-.37-.21-.58-.27s-.41-.09-.6-.09c-.27,0-.49.08-.67.23-.18.16-.27.38-.27.68,0,.24.06.45.16.62.11.18.25.33.42.45.17.12.36.21.57.27.21.06.42.09.62.09.29,0,.53-.07.7-.22Z"/>
      <path d="M.89,18.23l4.44.94v.67l-4.44-.94v1.68l-.56-.12v-4.03l.56.13v1.68Z"/>
    </g>
    <g>
      <path d="M62.59,72.79l-.38,1.83h.01c.13-.16.3-.29.49-.39.19-.1.4-.14.62-.14.24,0,.45.04.63.12.18.08.32.18.44.32.12.13.2.3.26.49s.09.4.09.64c0,.28-.04.56-.13.83-.08.27-.21.5-.37.71-.16.21-.36.37-.6.5-.24.13-.51.19-.82.19-.17,0-.32-.02-.46-.07-.14-.04-.26-.1-.37-.17-.1-.07-.19-.15-.26-.24s-.11-.18-.13-.27h-.01l-.13.67h-.53l1.05-5h.59ZM64.1,75.24c-.04-.13-.09-.24-.15-.33-.07-.09-.15-.17-.26-.22-.1-.05-.22-.08-.36-.08-.26,0-.49.06-.67.18s-.34.27-.46.45-.21.38-.26.59c-.06.21-.08.42-.08.61,0,.29.09.51.27.67.18.16.42.24.71.24.21,0,.4-.06.57-.17.16-.11.3-.25.41-.42.11-.17.2-.35.25-.55.06-.2.08-.39.08-.56,0-.14-.02-.28-.05-.41Z"/>
      <path d="M66.74,72.79l-1.05,5h-.59l1.04-5h.6Z"/>
      <path d="M68.98,77.78l.11-.55h-.01c-.15.21-.34.37-.57.47s-.47.15-.72.15c-.34,0-.59-.07-.76-.22-.17-.15-.25-.38-.25-.7,0-.08,0-.18.03-.31s.04-.26.08-.4l.44-2.07h.59l-.46,2.11s-.02.08-.03.13c0,.05-.02.1-.03.16,0,.05-.02.11-.02.15s0,.09,0,.12c0,.17.06.3.18.38.12.08.27.12.45.12.17,0,.32-.03.47-.1.14-.07.27-.15.38-.26.11-.11.21-.24.28-.38.08-.14.13-.29.16-.44l.42-2h.59l-.76,3.62h-.57Z"/>
      <path d="M71.86,74.16l-.17.78h.01c.14-.25.32-.45.54-.62.22-.16.48-.25.78-.25.04,0,.07,0,.11,0,.03,0,.07,0,.11,0l-.14.64s-.05,0-.09,0h-.08c-.08,0-.14,0-.18,0-.05,0-.11.01-.18.03-.16.04-.31.11-.44.22-.13.1-.24.23-.33.37-.08.12-.14.25-.19.41-.05.16-.08.3-.11.44l-.34,1.6h-.59l.75-3.62h.56Z"/>
      <path d="M76.17,74.16l-.76,3.62h-.59l.75-3.62h.6ZM75.7,73.51l.15-.73h.6l-.15.73h-.6Z"/>
      <path d="M77.71,74.16l-.11.55h.01c.15-.21.34-.37.57-.47.23-.11.47-.16.72-.16.34,0,.59.08.76.22.17.15.25.38.25.71,0,.08,0,.18-.03.31s-.04.26-.08.4l-.44,2.06h-.59l.46-2.11s.01-.08.02-.13c0-.05.02-.1.03-.15,0-.05.02-.1.02-.15,0-.05.01-.09.01-.12,0-.17-.06-.3-.18-.38-.12-.08-.27-.12-.45-.12-.16,0-.33.04-.49.12-.16.08-.3.18-.41.3-.11.09-.19.21-.25.34s-.11.27-.15.42l-.42,2h-.59l.76-3.62h.57Z"/>
      <path d="M82.56,74.16l-.11.53h-.72l-.45,2.13s0,.08-.01.12c0,.04,0,.08,0,.12,0,.09.04.16.11.19s.16.05.25.05c.06,0,.12,0,.17-.02s.11-.03.17-.05l-.11.55c-.07,0-.14.02-.21.02-.07,0-.14.01-.21.01-.11,0-.22,0-.31-.02-.1-.02-.18-.05-.26-.09-.07-.04-.13-.1-.17-.18-.04-.07-.07-.17-.07-.29,0-.05,0-.1.01-.15,0-.05.01-.1.02-.15l.48-2.25h-.61l.11-.53h.61l.22-1.07h.6l-.22,1.07h.72Z"/>
      <path d="M83.17,76.47c0,.14.03.26.08.37.05.11.12.2.21.27.09.07.19.13.3.17.11.04.23.06.35.06.27,0,.49-.06.66-.18.17-.12.3-.29.38-.51h.6c-.05.2-.12.38-.22.53-.1.15-.23.28-.37.38-.14.1-.31.18-.48.23-.18.05-.36.08-.56.08-.3,0-.55-.04-.75-.14-.2-.09-.36-.21-.47-.35-.12-.14-.2-.3-.25-.47-.05-.17-.07-.33-.07-.49,0-.34.05-.66.15-.95.1-.29.24-.53.41-.74.17-.21.37-.36.59-.48.23-.11.46-.17.71-.17.53,0,.92.14,1.17.42.24.28.37.67.37,1.18,0,.09,0,.18-.02.27-.01.08-.03.15-.03.2h-2.72c-.01.1-.02.21-.02.32ZM85.35,75.25c-.03-.12-.07-.23-.14-.33-.07-.1-.16-.17-.27-.23-.11-.06-.25-.09-.41-.09-.17,0-.33.03-.47.08-.14.05-.26.13-.36.22-.1.09-.19.2-.26.33-.07.12-.13.25-.17.4h2.1c0-.13,0-.25-.02-.38Z"/>
      <path d="M87.56,74.16l-.11.55h.01c.15-.21.34-.37.57-.47.23-.11.47-.16.72-.16.34,0,.59.08.76.22s.25.38.25.71c0,.08,0,.18-.03.31-.02.13-.04.26-.08.4l-.44,2.06h-.6l.46-2.11s.01-.08.02-.13.02-.1.03-.15c0-.05.02-.1.02-.15,0-.05.01-.09.01-.12,0-.17-.06-.3-.18-.38-.12-.08-.27-.12-.45-.12-.16,0-.33.04-.49.12s-.3.18-.41.3c-.11.09-.19.21-.25.34s-.11.27-.15.42l-.42,2h-.59l.76-3.62h.57Z"/>
      <path d="M92.43,74.76c-.15-.1-.33-.16-.54-.16-.09,0-.18,0-.27.02-.09.01-.18.04-.25.07s-.13.08-.18.14c-.05.06-.07.13-.07.23,0,.08.03.16.08.22s.13.12.22.17c.09.05.19.1.31.14.11.04.23.09.35.14.12.05.24.11.35.17s.22.13.3.21c.09.08.16.17.22.27.06.11.08.23.08.37,0,.2-.04.37-.13.51-.09.14-.2.26-.34.35-.14.09-.3.15-.47.19-.18.04-.35.06-.53.06-.21,0-.4-.02-.58-.06-.18-.04-.33-.11-.46-.2s-.23-.22-.3-.38c-.07-.16-.11-.35-.11-.58h.59c0,.13.01.24.06.33.05.09.12.16.2.22s.19.09.3.12c.11.02.23.04.36.04.1,0,.2,0,.29-.03s.19-.05.27-.09c.08-.04.14-.1.19-.17.05-.07.07-.16.07-.26,0-.09-.03-.16-.08-.23-.06-.06-.13-.12-.22-.17-.09-.05-.19-.1-.3-.14-.11-.04-.23-.09-.35-.14-.12-.05-.24-.1-.35-.15-.11-.06-.22-.12-.31-.2s-.16-.17-.22-.27c-.05-.1-.08-.22-.08-.36,0-.17.04-.32.12-.45.08-.13.18-.24.3-.33.13-.09.27-.15.43-.2.16-.05.33-.07.49-.07s.33.02.5.06c.16.04.31.11.44.2s.23.21.31.36c.08.15.12.33.12.54h-.6c0-.21-.06-.36-.21-.47Z"/>
      <path d="M94.84,74.16l-.76,3.62h-.59l.75-3.62h.59ZM94.37,73.51l.15-.73h.6l-.15.73h-.6Z"/>
      <path d="M97.34,74.16l-.11.53h-.72l-.45,2.13s0,.08-.01.12c0,.04,0,.08,0,.12,0,.09.04.16.11.19.07.04.15.05.25.05.06,0,.12,0,.17-.02s.11-.03.17-.05l-.1.55c-.07,0-.14.02-.21.02-.07,0-.14.01-.21.01-.11,0-.22,0-.31-.02-.1-.02-.18-.05-.26-.09-.07-.04-.13-.1-.17-.18-.04-.07-.07-.17-.07-.29,0-.05,0-.1.01-.15,0-.05.02-.1.02-.15l.48-2.25h-.61l.11-.53h.61l.22-1.07h.6l-.22,1.07h.72Z"/>
      <path d="M98.19,78.73c-.07.11-.16.2-.25.27-.09.08-.19.14-.3.18-.11.04-.24.07-.39.07-.07,0-.14,0-.22-.02s-.14-.04-.2-.07l.1-.48s.1.05.17.07c.07.02.12.03.17.03.14,0,.25-.04.33-.11s.16-.17.23-.28l.36-.6-.64-3.62h.64l.42,2.88h.01l1.52-2.88h.65l-2.39,4.23c-.07.12-.15.23-.22.33Z"/>
      <path d="M102.8,75.98c.06-.27.15-.51.29-.73s.3-.41.5-.57c.2-.16.42-.29.67-.37.25-.09.52-.13.81-.13h1.81l-.11.53h-.84c.15.14.25.32.3.56.04.24.04.48-.01.73-.05.22-.13.44-.24.67-.11.22-.26.43-.44.61-.18.18-.39.33-.62.45s-.5.17-.79.17-.51-.05-.7-.15c-.19-.1-.35-.23-.45-.4-.11-.17-.18-.37-.2-.6-.03-.23-.01-.48.05-.74ZM103.43,75.98c-.05.23-.06.43-.03.6.02.17.07.31.15.43.07.11.17.2.29.26.12.06.25.08.4.08.18,0,.34-.03.49-.1s.28-.16.39-.28c.11-.12.21-.26.29-.43.08-.17.14-.35.18-.55.07-.32.08-.58.03-.79-.04-.21-.13-.38-.25-.5h-.35c-.19,0-.37.03-.54.08s-.32.13-.46.24-.26.24-.36.4c-.1.16-.17.35-.22.57Z"/>
    </g>
    <g>
      <rect class="t" x="16.45" y="3.21" width="35.36" height="10.94"/>
      <path d="M18.99,4.09c.3,0,.55.06.73.19.18.12.31.3.39.52.08.23.11.5.09.82-.01.32-.06.68-.15,1.07-.08.39-.19.75-.31,1.06-.12.32-.27.59-.45.82-.17.23-.38.4-.61.53s-.5.19-.8.19-.55-.06-.73-.19c-.18-.13-.3-.31-.38-.54-.08-.23-.11-.5-.09-.82.01-.32.06-.67.14-1.05.08-.38.18-.73.3-1.05s.27-.59.45-.82c.17-.23.38-.41.61-.54s.5-.19.81-.19ZM17.99,8.77c.19,0,.35-.03.48-.1s.25-.17.35-.32.2-.34.28-.58c.09-.24.17-.54.26-.89h-1.96c-.07.35-.11.65-.13.89s0,.43.05.58.12.25.23.32.25.1.43.1ZM19.47,6.41c.05-.28.08-.54.09-.76s0-.41-.05-.56-.11-.27-.22-.35c-.1-.08-.24-.12-.42-.12-.19,0-.36.04-.49.12-.14.08-.26.2-.36.35s-.2.34-.28.56c-.08.22-.15.48-.22.76h1.95Z"/>
      <path d="M21.23,6.97v-.48h3.53v.48h-3.53ZM24.76,7.91v.48h-3.53v-.48h3.53Z"/>
      <path d="M26.02,6.75c.04-.23.09-.46.16-.69s.17-.46.29-.68c.12-.22.25-.41.41-.58s.34-.3.55-.41c.21-.1.44-.15.7-.15.43,0,.77.15.99.44s.34.77.34,1.44c0,.15-.02.34-.05.55-.03.21-.08.44-.14.68-.07.24-.15.47-.26.7s-.24.44-.4.62-.34.33-.55.44c-.21.11-.45.17-.73.17-.26,0-.48-.05-.65-.15-.18-.1-.32-.23-.42-.41-.11-.17-.18-.38-.23-.61-.04-.23-.07-.49-.07-.76,0-.19.02-.39.05-.62ZM26.78,8.41c.12.24.33.35.62.35.18,0,.35-.05.49-.15.14-.1.27-.23.38-.39s.2-.33.27-.53c.07-.19.13-.38.17-.57.04-.18.08-.35.1-.5s.03-.26.03-.33c0-.09,0-.19,0-.3,0-.11,0-.22,0-.33,0-.11-.02-.22-.05-.33-.03-.11-.07-.2-.12-.28s-.13-.15-.22-.2c-.09-.05-.21-.07-.36-.07-.18,0-.34.05-.48.15-.14.1-.27.23-.38.39-.11.16-.2.34-.28.54s-.14.4-.2.6c-.05.2-.09.39-.11.57s-.03.32-.03.44c0,.4.06.71.18.95Z"/>
      <path d="M30.3,4.87c.05-.13.13-.24.22-.33.09-.09.2-.17.33-.22s.26-.08.41-.08.28.03.41.08.24.13.33.22c.09.09.17.2.22.33s.08.26.08.41-.03.28-.08.41-.13.24-.22.33-.2.17-.33.22c-.13.05-.26.08-.41.08s-.28-.03-.41-.08c-.13-.05-.24-.13-.33-.22s-.17-.2-.22-.33c-.05-.13-.08-.26-.08-.41s.03-.28.08-.41ZM30.77,5.77c.13.13.29.2.49.2s.36-.06.49-.2c.13-.13.2-.29.2-.49s-.07-.36-.2-.49c-.13-.13-.29-.2-.49-.2s-.36.07-.49.2c-.13.13-.2.29-.2.49s.06.36.2.49Z"/>
    </g>
  </g>
  <g id="l" data-name="numbers 5pt">
    <g>
      <rect class="t" x=".9" y="-.24" width="9.61" height="14.75"/>
      <path d="M8.21,1.01c-.09-.09-.23-.14-.42-.14-.17,0-.31.04-.42.12-.12.08-.21.18-.29.3-.08.12-.14.26-.19.41-.05.15-.09.28-.13.42h.01c.08-.12.2-.21.34-.27s.29-.08.44-.08.28.03.4.08c.12.05.23.13.32.22.09.1.16.21.21.33s.07.26.07.41c0,.18-.03.35-.09.51-.06.16-.14.3-.25.41-.11.12-.24.21-.4.27-.15.06-.33.1-.53.1-.18,0-.34-.03-.48-.09-.13-.06-.25-.14-.33-.25-.09-.1-.15-.23-.19-.38-.04-.15-.06-.3-.06-.47,0-.12,0-.24.02-.37s.03-.26.06-.38c.03-.13.06-.25.09-.37s.08-.23.12-.33c.13-.3.3-.53.51-.7.21-.17.49-.25.84-.25.29,0,.52.08.68.24.16.16.24.39.25.68h-.45c0-.18-.05-.32-.13-.41ZM7.92,2.33c-.11-.13-.27-.19-.48-.19-.13,0-.24.02-.33.07s-.18.11-.25.19c-.07.08-.12.17-.15.28s-.05.22-.05.34c0,.21.05.38.16.51.11.13.27.2.5.2.13,0,.24-.02.34-.08.1-.05.18-.12.24-.2.06-.09.11-.18.15-.29s.05-.22.05-.34c0-.2-.06-.37-.17-.49Z"/>
      <path d="M10.78.38l-.96,1.44h-.34l.75-1.44h.54Z"/>
    </g>
    <g>
      <rect class="t" x="6.62" y="68.71" width="8.75" height="10.04"/>
      <path d="M8.93,71.24c.02-.16.06-.32.12-.49.05-.17.12-.33.21-.48.08-.16.18-.29.29-.41.11-.12.25-.22.4-.29.15-.07.32-.11.5-.11.31,0,.55.1.71.31.16.21.25.55.25,1.03,0,.11-.01.24-.03.4-.02.15-.06.31-.1.48-.05.17-.11.33-.19.5-.08.17-.17.31-.29.44s-.25.24-.4.32c-.15.08-.32.12-.52.12-.19,0-.34-.04-.47-.1-.12-.07-.23-.17-.3-.29s-.13-.27-.16-.44c-.03-.17-.05-.35-.05-.54,0-.13.01-.28.04-.44ZM9.47,72.43c.09.17.23.25.44.25.13,0,.25-.04.35-.11s.19-.17.27-.28.14-.24.19-.38c.05-.14.09-.27.12-.41s.06-.25.07-.36c.01-.11.02-.19.02-.24,0-.07,0-.14,0-.22,0-.08,0-.16,0-.24,0-.08-.02-.16-.04-.24-.02-.08-.05-.14-.09-.2s-.09-.1-.16-.14c-.07-.04-.15-.05-.25-.05-.13,0-.24.04-.35.11s-.19.17-.27.28c-.08.11-.15.24-.2.39-.06.14-.1.29-.14.43-.04.14-.06.28-.08.41-.02.13-.02.23-.02.31,0,.28.04.51.13.68Z"/>
      <path d="M13.48,69.33l-.96,1.43h-.34l.75-1.43h.54Z"/>
    </g>
    <g>
      <rect class="t" x="139.42" y="68.71" width="16.03" height="10.04"/>
      <path d="M149.19,73l.58-2.7c-.16.04-.31.06-.46.08-.14.01-.3.02-.46.02l.07-.34c.11,0,.22-.01.33-.04.11-.02.22-.06.32-.12.1-.05.2-.12.28-.19.08-.08.15-.17.21-.26h.33l-.75,3.54h-.45Z"/>
      <path d="M152.09,69.89l-.28.96h0c.09-.06.19-.11.29-.14.11-.03.22-.05.33-.05.16,0,.3.03.43.08.12.06.23.13.31.23.08.09.15.21.19.34.04.13.06.27.06.42,0,.19-.03.37-.1.54-.06.17-.17.32-.3.45-.14.12-.29.21-.44.26-.15.05-.32.07-.5.07-.32,0-.58-.09-.77-.26-.19-.17-.29-.42-.29-.75h.45c0,.42.21.63.64.63.14,0,.26-.02.37-.07.11-.05.2-.12.27-.2.07-.08.13-.18.17-.3.04-.11.06-.23.06-.36,0-.23-.06-.41-.18-.53-.12-.12-.3-.18-.53-.18-.13,0-.25.03-.36.09s-.21.15-.27.25h-.38l.55-1.87h1.8l-.08.38h-1.46Z"/>
      <path d="M155.72,69.33l-.96,1.43h-.34l.75-1.43h.54Z"/>
    </g>
  </g>
  <g id="m" data-name="Fits">
    <g>
      <polyline class="u" points="12.49 56.64 12.64 56.64 12.78 56.64 12.92 56.64 13.06 56.64 13.21 56.64 13.35 56.64 13.49 56.64 13.63 56.64 13.78 56.64 13.92 56.64 14.06 56.64 14.2 56.64 14.35 56.64 14.49 56.64 14.63 56.64 14.77 56.64 14.92 56.64 15.06 56.64 15.2 56.64 15.34 56.64 15.49 56.64 15.63 56.64 15.77 56.64 15.92 56.64 16.06 56.63 16.2 56.63 16.34 56.63 16.49 56.63 16.63 56.63 16.77 56.63 16.91 56.63 17.06 56.63 17.2 56.63 17.34 56.63 17.48 56.63 17.63 56.63 17.77 56.63 17.91 56.63 18.05 56.63 18.2 56.63 18.34 56.63 18.48 56.63 18.62 56.63 18.77 56.63 18.91 56.63 19.05 56.63 19.19 56.63 19.34 56.63 19.48 56.63 19.62 56.63 19.76 56.63 19.91 56.63 20.05 56.63 20.19 56.63 20.33 56.63 20.48 56.63 20.62 56.63 20.76 56.63 20.9 56.63 21.05 56.63 21.19 56.62 21.33 56.62 21.47 56.62 21.62 56.62 21.76 56.62 21.9 56.62 22.04 56.62 22.19 56.62 22.33 56.62 22.47 56.62 22.61 56.62 22.76 56.62 22.9 56.62 23.04 56.61 23.18 56.61 23.33 56.61 23.47 56.61 23.61 56.61 23.75 56.61 23.9 56.61 24.04 56.61 24.18 56.61 24.33 56.6 24.47 56.6 24.61 56.6 24.75 56.6 24.9 56.6 25.04 56.6 25.18 56.59 25.32 56.59 25.47 56.59 25.61 56.59 25.75 56.58 25.89 56.58 26.04 56.58 26.18 56.58 26.32 56.57 26.46 56.57 26.61 56.57 26.75 56.57 26.89 56.56 27.03 56.56 27.18 56.56 27.32 56.55 27.46 56.55 27.6 56.55 27.75 56.54 27.89 56.54 28.03 56.53 28.17 56.53 28.32 56.52 28.46 56.52 28.6 56.51 28.74 56.51 28.89 56.5 29.03 56.5 29.17 56.49 29.31 56.48 29.46 56.48 29.6 56.47 29.74 56.46 29.88 56.46 30.03 56.45 30.17 56.44 30.31 56.43 30.45 56.43 30.6 56.42 30.74 56.41 30.88 56.4 31.02 56.39 31.17 56.38 31.31 56.37 31.45 56.36 31.59 56.35 31.74 56.34 31.88 56.32 32.02 56.31 32.16 56.3 32.31 56.29 32.45 56.27 32.59 56.26 32.73 56.25 32.88 56.23 33.02 56.22 33.16 56.2 33.31 56.19 33.45 56.17 33.59 56.15 33.73 56.14 33.88 56.12 34.02 56.1 34.16 56.08 34.3 56.06 34.45 56.04 34.59 56.03 34.73 56.01 34.87 55.98 35.02 55.96 35.16 55.94 35.3 55.92 35.44 55.9 35.59 55.87 35.73 55.85 35.87 55.83 36.01 55.8 36.16 55.78 36.3 55.75 36.44 55.73 36.58 55.7 36.73 55.68 36.87 55.65 37.01 55.62 37.15 55.6 37.3 55.57 37.44 55.54 37.58 55.51 37.72 55.48 37.87 55.45 38.01 55.42 38.15 55.39 38.29 55.36 38.44 55.33 38.58 55.3 38.72 55.27 38.86 55.24 39.01 55.21 39.15 55.17 39.29 55.14 39.43 55.11 39.58 55.08 39.72 55.04 39.86 55.01 40 54.98 40.15 54.94 40.29 54.91 40.43 54.87 40.57 54.84 40.72 54.8 40.86 54.77 41 54.73 41.14 54.7 41.29 54.66 41.43 54.63 41.57 54.59 41.71 54.55 41.86 54.52 42 54.48 42.14 54.44 42.29 54.41 42.43 54.37 42.57 54.33 42.71 54.3 42.86 54.26 43 54.22 43.14 54.18 43.28 54.15 43.43 54.11 43.57 54.07 43.71 54.03 43.85 54 44 53.96 44.14 53.92 44.28 53.88 44.42 53.84 44.57 53.8 44.71 53.77 44.85 53.73 44.99 53.69 45.14 53.65 45.28 53.61 45.42 53.57 45.56 53.53 45.71 53.5 45.85 53.46 45.99 53.42 46.13 53.38 46.28 53.34 46.42 53.3 46.56 53.26 46.7 53.22 46.85 53.18 46.99 53.14 47.13 53.1 47.27 53.06 47.42 53.03 47.56 52.99 47.7 52.95 47.84 52.91 47.99 52.87 48.13 52.83 48.27 52.79 48.41 52.75 48.56 52.71 48.7 52.67 48.84 52.63 48.98 52.59 49.13 52.55 49.27 52.51 49.41 52.47 49.55 52.43 49.7 52.39 49.84 52.35 49.98 52.31 50.12 52.27 50.27 52.23 50.41 52.19 50.55 52.15 50.69 52.11 50.84 52.07 50.98 52.03 51.12 51.99 51.27 51.95 51.41 51.91 51.55 51.87 51.69 51.83 51.84 51.79 51.98 51.76 52.12 51.72 52.26 51.68 52.41 51.64 52.55 51.6 52.69 51.56 52.83 51.52 52.98 51.48 53.12 51.44 53.26 51.4 53.4 51.36 53.55 51.32 53.69 51.28 53.83 51.24 53.97 51.2 54.12 51.16 54.26 51.12 54.4 51.08 54.54 51.04 54.69 51 54.83 50.96 54.97 50.92 55.11 50.88 55.26 50.84 55.4 50.8 55.54 50.76 55.68 50.72 55.83 50.68 55.97 50.64 56.11 50.6 56.25 50.56 56.4 50.52 56.54 50.48 56.68 50.44 56.82 50.4 56.97 50.36 57.11 50.32 57.25 50.28 57.39 50.24 57.54 50.2 57.68 50.16 57.82 50.12 57.96 50.08 58.11 50.04 58.25 50 58.39 49.95 58.53 49.91 58.68 49.87 58.82 49.83 58.96 49.79 59.1 49.75 59.25 49.71 59.39 49.67 59.53 49.63 59.67 49.59 59.82 49.55 59.96 49.51 60.1 49.47 60.25 49.43 60.39 49.39 60.53 49.35 60.67 49.31 60.82 49.27 60.96 49.23 61.1 49.19 61.24 49.15 61.39 49.11 61.53 49.07 61.67 49.03 61.81 48.99 61.96 48.95 62.1 48.91 62.24 48.87 62.38 48.83 62.53 48.79 62.67 48.75 62.81 48.71 62.95 48.67 63.1 48.63 63.24 48.59 63.38 48.55 63.52 48.51 63.67 48.47 63.81 48.43 63.95 48.39 64.09 48.35 64.24 48.31 64.38 48.27 64.52 48.23 64.66 48.19 64.81 48.15 64.95 48.11 65.09 48.07 65.23 48.03 65.38 47.99 65.52 47.95 65.66 47.91 65.8 47.87 65.95 47.83 66.09 47.79 66.23 47.75 66.37 47.71 66.52 47.67 66.66 47.63 66.8 47.59 66.94 47.55 67.09 47.51 67.23 47.47 67.37 47.43 67.51 47.39 67.66 47.35 67.8 47.31 67.94 47.27 68.08 47.23 68.23 47.19 68.37 47.15 68.51 47.11 68.66 47.07 68.8 47.03 68.94 46.99 69.08 46.95 69.23 46.91 69.37 46.87 69.51 46.83 69.65 46.79 69.8 46.75 69.94 46.71 70.08 46.67 70.22 46.63 70.37 46.59 70.51 46.55 70.65 46.51 70.79 46.47 70.94 46.43 71.08 46.39 71.22 46.35 71.36 46.31 71.51 46.27 71.65 46.23 71.79 46.19 71.93 46.15 72.08 46.11 72.22 46.07 72.36 46.03 72.5 45.99 72.65 45.95 72.79 45.91 72.93 45.87 73.07 45.83 73.22 45.79 73.36 45.75 73.5 45.71 73.64 45.67 73.79 45.63 73.93 45.59 74.07 45.55 74.21 45.51 74.36 45.47 74.5 45.43 74.64 45.39 74.78 45.35 74.93 45.31 75.07 45.27 75.21 45.23 75.35 45.19 75.5 45.15 75.64 45.11 75.78 45.07 75.92 45.03 76.07 44.99 76.21 44.95 76.35 44.91 76.49 44.87 76.64 44.83 76.78 44.79 76.92 44.75 77.06 44.71 77.21 44.67 77.35 44.63 77.49 44.59 77.64 44.55 77.78 44.51 77.92 44.47 78.06 44.43 78.21 44.39 78.35 44.35 78.49 44.31 78.63 44.27 78.78 44.23 78.92 44.18 79.06 44.14 79.2 44.1 79.35 44.06 79.49 44.02 79.63 43.98 79.77 43.94 79.92 43.9 80.06 43.86 80.2 43.82 80.34 43.78 80.49 43.74 80.63 43.7 80.77 43.66 80.91 43.62 81.06 43.58 81.2 43.54 81.34 43.5 81.48 43.46 81.63 43.42 81.77 43.38 81.91 43.34 82.05 43.3 82.2 43.26 82.34 43.22 82.48 43.18 82.62 43.14 82.77 43.1 82.91 43.06 83.05 43.02 83.19 42.98 83.34 42.94 83.48 42.9 83.62 42.86 83.76 42.82 83.91 42.78 84.05 42.74 84.19 42.7 84.33 42.66 84.48 42.62 84.62 42.58 84.76 42.54 84.9 42.5 85.05 42.46 85.19 42.42 85.33 42.38 85.47 42.34 85.62 42.3 85.76 42.26 85.9 42.22 86.04 42.18 86.19 42.14 86.33 42.1 86.47 42.06 86.62 42.02 86.76 41.98 86.9 41.94 87.04 41.9 87.19 41.86 87.33 41.82 87.47 41.78 87.61 41.74 87.76 41.7 87.9 41.66 88.04 41.62 88.18 41.58 88.33 41.54 88.47 41.5 88.61 41.46 88.75 41.42 88.9 41.38 89.04 41.34 89.18 41.3 89.32 41.26 89.47 41.22 89.61 41.18 89.75 41.14 89.89 41.1 90.04 41.06 90.18 41.02 90.32 40.98 90.46 40.94 90.61 40.9 90.75 40.86 90.89 40.82 91.03 40.78 91.18 40.74 91.32 40.7 91.46 40.66 91.6 40.62 91.75 40.58 91.89 40.54 92.03 40.5 92.17 40.46 92.32 40.42 92.46 40.38 92.6 40.34 92.74 40.3 92.89 40.26 93.03 40.22 93.17 40.18 93.31 40.14 93.46 40.1 93.6 40.06 93.74 40.02 93.88 39.98 94.03 39.94 94.17 39.9 94.31 39.86 94.45 39.82 94.6 39.78 94.74 39.74 94.88 39.7 95.02 39.66 95.17 39.62 95.31 39.58 95.45 39.54 95.6 39.5 95.74 39.46 95.88 39.42 96.02 39.38 96.17 39.34 96.31 39.3 96.45 39.26 96.59 39.22 96.74 39.18 96.88 39.14 97.02 39.1 97.16 39.06 97.31 39.02 97.45 38.98 97.59 38.94 97.73 38.9 97.88 38.86 98.02 38.82 98.16 38.78 98.3 38.74 98.45 38.69 98.59 38.65 98.73 38.61 98.87 38.57 99.02 38.53 99.16 38.49 99.3 38.45 99.44 38.41 99.59 38.37 99.73 38.33 99.87 38.29 100.01 38.25 100.16 38.21 100.3 38.17 100.44 38.13 100.58 38.09 100.73 38.05 100.87 38.01 101.01 37.97 101.15 37.93 101.3 37.89 101.44 37.85 101.58 37.81 101.72 37.77 101.87 37.73 102.01 37.69 102.15 37.65 102.29 37.61 102.44 37.57 102.58 37.53 102.72 37.49 102.86 37.45 103.01 37.41 103.15 37.37 103.29 37.33 103.43 37.29 103.58 37.25 103.72 37.21 103.86 37.17 104 37.13 104.15 37.09 104.29 37.05 104.43 37.01 104.58 36.97 104.72 36.93 104.86 36.89 105 36.85 105.15 36.81 105.29 36.77 105.43 36.73 105.57 36.69 105.72 36.65 105.86 36.61 106 36.57 106.14 36.53 106.29 36.49 106.43 36.45 106.57 36.41 106.71 36.37 106.86 36.33 107 36.29 107.14 36.25 107.28 36.21 107.43 36.17 107.57 36.13 107.71 36.09 107.85 36.05 108 36.01 108.14 35.97 108.28 35.93 108.42 35.89 108.57 35.85 108.71 35.81 108.85 35.77 108.99 35.73 109.14 35.69 109.28 35.65 109.42 35.61 109.56 35.57 109.71 35.53 109.85 35.49 109.99 35.45 110.13 35.41 110.28 35.37 110.42 35.33 110.56 35.29 110.7 35.25 110.85 35.21 110.99 35.17 111.13 35.13 111.27 35.09 111.42 35.05 111.56 35.01 111.7 34.97 111.84 34.93 111.99 34.89 112.13 34.85 112.27 34.81 112.41 34.77 112.56 34.73 112.7 34.69 112.84 34.65 112.99 34.61 113.13 34.57 113.27 34.53 113.41 34.49 113.56 34.45 113.7 34.41 113.84 34.37 113.98 34.33 114.13 34.29 114.27 34.25 114.41 34.21 114.55 34.17 114.7 34.13 114.84 34.09 114.98 34.05 115.12 34.01 115.27 33.97 115.41 33.93 115.55 33.89 115.69 33.85 115.84 33.81 115.98 33.77 116.12 33.73 116.26 33.69 116.41 33.65 116.55 33.61 116.69 33.57 116.83 33.53 116.98 33.49 117.12 33.45 117.26 33.41 117.4 33.37 117.55 33.33 117.69 33.29 117.83 33.25 117.97 33.2 118.12 33.16 118.26 33.12 118.4 33.08 118.54 33.04 118.69 33 118.83 32.96 118.97 32.92 119.11 32.88 119.26 32.84 119.4 32.8 119.54 32.76 119.68 32.72 119.83 32.68 119.97 32.64 120.11 32.6 120.25 32.56 120.4 32.52 120.54 32.48 120.68 32.44 120.82 32.4 120.97 32.36 121.11 32.32 121.25 32.28 121.39 32.24 121.54 32.2 121.68 32.16 121.82 32.12 121.97 32.08 122.11 32.04 122.25 32 122.39 31.96 122.54 31.92 122.68 31.88 122.82 31.84 122.96 31.8 123.11 31.76 123.25 31.72 123.39 31.68 123.53 31.64 123.68 31.6 123.82 31.56 123.96 31.52 124.1 31.48 124.25 31.44 124.39 31.4 124.53 31.36 124.67 31.32 124.82 31.28 124.96 31.24 125.1 31.2 125.24 31.16 125.39 31.12 125.53 31.08 125.67 31.04 125.81 31 125.96 30.96 126.1 30.92 126.24 30.88 126.38 30.84 126.53 30.8 126.67 30.76 126.81 30.72 126.95 30.68 127.1 30.64 127.24 30.6 127.38 30.56 127.52 30.52 127.67 30.48 127.81 30.44 127.95 30.4 128.09 30.36 128.24 30.32 128.38 30.28 128.52 30.24 128.66 30.2 128.81 30.16 128.95 30.12 129.09 30.08 129.23 30.04 129.38 30 129.52 29.96 129.66 29.92 129.8 29.88 129.95 29.84 130.09 29.8 130.23 29.76 130.37 29.72 130.52 29.68 130.66 29.64 130.8 29.6 130.95 29.56 131.09 29.52 131.23 29.48 131.37 29.44 131.52 29.4 131.66 29.36 131.8 29.32 131.94 29.28 132.09 29.24 132.23 29.2 132.37 29.16 132.51 29.12 132.66 29.08 132.8 29.04 132.94 29 133.08 28.96 133.23 28.92 133.37 28.88 133.51 28.84 133.65 28.8 133.8 28.76 133.94 28.72 134.08 28.68 134.22 28.64 134.37 28.6 134.51 28.56 134.65 28.52 134.79 28.48 134.94 28.44 135.08 28.4 135.22 28.36 135.36 28.32 135.51 28.28 135.65 28.24 135.79 28.2 135.93 28.16 136.08 28.12 136.22 28.08 136.36 28.04 136.5 28 136.65 27.96 136.79 27.92 136.93 27.88 137.07 27.84 137.22 27.8 137.36 27.76 137.5 27.71 137.64 27.67 137.79 27.63 137.93 27.59 138.07 27.55 138.21 27.51 138.36 27.47 138.5 27.43 138.64 27.39 138.78 27.35 138.93 27.31 139.07 27.27 139.21 27.23 139.35 27.19 139.5 27.15 139.64 27.11 139.78 27.07 139.93 27.03 140.07 26.99 140.21 26.95 140.35 26.91 140.5 26.87 140.64 26.83 140.78 26.79 140.92 26.75 141.07 26.71 141.21 26.67 141.35 26.63 141.49 26.59 141.64 26.55 141.78 26.51 141.92 26.47 142.06 26.43 142.21 26.39 142.35 26.35 142.49 26.31 142.63 26.27 142.78 26.23 142.92 26.19 143.06 26.15 143.2 26.11 143.35 26.07 143.49 26.03 143.63 25.99 143.77 25.95 143.92 25.91 144.06 25.87 144.2 25.83 144.34 25.79 144.49 25.75 144.63 25.71 144.77 25.67 144.91 25.63 145.06 25.59 145.2 25.55 145.34 25.51 145.48 25.47 145.63 25.43 145.77 25.39 145.91 25.35 146.05 25.31 146.2 25.27 146.34 25.23 146.48 25.19 146.62 25.15 146.77 25.11 146.91 25.07 147.05 25.03 147.19 24.99 147.34 24.95 147.48 24.91 147.62 24.87 147.76 24.83 147.91 24.79 148.05 24.75 148.19 24.71 148.33 24.67 148.48 24.63 148.62 24.59 148.76 24.55 148.91 24.51 149.05 24.47 149.19 24.43 149.33 24.39 149.48 24.35 149.62 24.31 149.76 24.27 149.9 24.23 150.05 24.19 150.19 24.15 150.33 24.11 150.47 24.07 150.62 24.03 150.76 23.99 150.9 23.95 151.04 23.91 151.19 23.87 151.33 23.83 151.47 23.79 151.61 23.75 151.76 23.71 151.9 23.67 152.04 23.63 152.18 23.59 152.33 23.55 152.47 23.51 152.61 23.47 152.75 23.43 152.9 23.39 153.04 23.35 153.18 23.31 153.32 23.27 153.47 23.23 153.61 23.19 153.75 23.15 153.89 23.11 154.04 23.07 154.18 23.03 154.32 22.99 154.46 22.95 154.61 22.91 154.75 22.87 154.89 22.83 155.03 22.79"/>
      <polyline class="w" points="12.49 56.64 12.64 56.64 12.78 56.64 12.92 56.64 13.06 56.64 13.21 56.64 13.35 56.64 13.49 56.64 13.63 56.64 13.78 56.64 13.92 56.64 14.06 56.64 14.2 56.64 14.35 56.64 14.49 56.64 14.63 56.64 14.77 56.64 14.92 56.64 15.06 56.64 15.2 56.64 15.34 56.64 15.49 56.64 15.63 56.64 15.77 56.64 15.92 56.64 16.06 56.63 16.2 56.63 16.34 56.63 16.49 56.63 16.63 56.63 16.77 56.63 16.91 56.63 17.06 56.63 17.2 56.63 17.34 56.63 17.48 56.63 17.63 56.63 17.77 56.63 17.91 56.63 18.05 56.63 18.2 56.63 18.34 56.63 18.48 56.63 18.62 56.63 18.77 56.63 18.91 56.63 19.05 56.63 19.19 56.63 19.34 56.63 19.48 56.63 19.62 56.63 19.76 56.63 19.91 56.63 20.05 56.63 20.19 56.63 20.33 56.63 20.48 56.63 20.62 56.63 20.76 56.63 20.9 56.63 21.05 56.63 21.19 56.62 21.33 56.62 21.47 56.62 21.62 56.62 21.76 56.62 21.9 56.62 22.04 56.62 22.19 56.62 22.33 56.62 22.47 56.62 22.61 56.62 22.76 56.62 22.9 56.62 23.04 56.61 23.18 56.61 23.33 56.61 23.47 56.61 23.61 56.61 23.75 56.61 23.9 56.61 24.04 56.61 24.18 56.61 24.33 56.6 24.47 56.6 24.61 56.6 24.75 56.6 24.9 56.6 25.04 56.6 25.18 56.59 25.32 56.59 25.47 56.59 25.61 56.59 25.75 56.58 25.89 56.58 26.04 56.58 26.18 56.58 26.32 56.57 26.46 56.57 26.61 56.57 26.75 56.57 26.89 56.56 27.03 56.56 27.18 56.56 27.32 56.55 27.46 56.55 27.6 56.55 27.75 56.54 27.89 56.54 28.03 56.53 28.17 56.53 28.32 56.52 28.46 56.52 28.6 56.51 28.74 56.51 28.89 56.5 29.03 56.5 29.17 56.49 29.31 56.48 29.46 56.48 29.6 56.47 29.74 56.46 29.88 56.46 30.03 56.45 30.17 56.44 30.31 56.43 30.45 56.43 30.6 56.42 30.74 56.41 30.88 56.4 31.02 56.39 31.17 56.38 31.31 56.37 31.45 56.36 31.59 56.35 31.74 56.34 31.88 56.32 32.02 56.31 32.16 56.3 32.31 56.29 32.45 56.27 32.59 56.26 32.73 56.25 32.88 56.23 33.02 56.22 33.16 56.2 33.31 56.19 33.45 56.17 33.59 56.15 33.73 56.14 33.88 56.12 34.02 56.1 34.16 56.08 34.3 56.06 34.45 56.04 34.59 56.03 34.73 56.01 34.87 55.98 35.02 55.96 35.16 55.94 35.3 55.92 35.44 55.9 35.59 55.87 35.73 55.85 35.87 55.83 36.01 55.8 36.16 55.78 36.3 55.75 36.44 55.73 36.58 55.7 36.73 55.68 36.87 55.65 37.01 55.62 37.15 55.6 37.3 55.57 37.44 55.54 37.58 55.51 37.72 55.48 37.87 55.45 38.01 55.42 38.15 55.39 38.29 55.36 38.44 55.33 38.58 55.3 38.72 55.27 38.86 55.24 39.01 55.21 39.15 55.17 39.29 55.14 39.43 55.11 39.58 55.08 39.72 55.04 39.86 55.01 40 54.98 40.15 54.94 40.29 54.91 40.43 54.87 40.57 54.84 40.72 54.8 40.86 54.77 41 54.73 41.14 54.7 41.29 54.66 41.43 54.63 41.57 54.59 41.71 54.55 41.86 54.52 42 54.48 42.14 54.44 42.29 54.41 42.43 54.37 42.57 54.33 42.71 54.3 42.86 54.26 43 54.22 43.14 54.18 43.28 54.15 43.43 54.11 43.57 54.07 43.71 54.03 43.85 54 44 53.96 44.14 53.92 44.28 53.88 44.42 53.84 44.57 53.8 44.71 53.77 44.85 53.73 44.99 53.69 45.14 53.65 45.28 53.61 45.42 53.57 45.56 53.53 45.71 53.5 45.85 53.46 45.99 53.42 46.13 53.38 46.28 53.34 46.42 53.3 46.56 53.26 46.7 53.22 46.85 53.18 46.99 53.14 47.13 53.1 47.27 53.06 47.42 53.03 47.56 52.99 47.7 52.95 47.84 52.91 47.99 52.87 48.13 52.83 48.27 52.79 48.41 52.75 48.56 52.71 48.7 52.67 48.84 52.63 48.98 52.59 49.13 52.55 49.27 52.51 49.41 52.47 49.55 52.43 49.7 52.39 49.84 52.35 49.98 52.31 50.12 52.27 50.27 52.23 50.41 52.19 50.55 52.15 50.69 52.11 50.84 52.07 50.98 52.03 51.12 51.99 51.27 51.95 51.41 51.91 51.55 51.87 51.69 51.83 51.84 51.79 51.98 51.76 52.12 51.72 52.26 51.68 52.41 51.64 52.55 51.6 52.69 51.56 52.83 51.52 52.98 51.48 53.12 51.44 53.26 51.4 53.4 51.36 53.55 51.32 53.69 51.28 53.83 51.24 53.97 51.2 54.12 51.16 54.26 51.12 54.4 51.08 54.54 51.04 54.69 51 54.83 50.96 54.97 50.92 55.11 50.88 55.26 50.84 55.4 50.8 55.54 50.76 55.68 50.72 55.83 50.68 55.97 50.64 56.11 50.6 56.25 50.56 56.4 50.52 56.54 50.48 56.68 50.44 56.82 50.4 56.97 50.36 57.11 50.32 57.25 50.28 57.39 50.24 57.54 50.2 57.68 50.16 57.82 50.12 57.96 50.08 58.11 50.04 58.25 50 58.39 49.95 58.53 49.91 58.68 49.87 58.82 49.83 58.96 49.79 59.1 49.75 59.25 49.71 59.39 49.67 59.53 49.63 59.67 49.59 59.82 49.55 59.96 49.51 60.1 49.47 60.25 49.43 60.39 49.39 60.53 49.35 60.67 49.31 60.82 49.27 60.96 49.23 61.1 49.19 61.24 49.15 61.39 49.11 61.53 49.07 61.67 49.03 61.81 48.99 61.96 48.95 62.1 48.91 62.24 48.87 62.38 48.83 62.53 48.79 62.67 48.75 62.81 48.71 62.95 48.67 63.1 48.63 63.24 48.59 63.38 48.55 63.52 48.51 63.67 48.47 63.81 48.43 63.95 48.39 64.09 48.35 64.24 48.31 64.38 48.27 64.52 48.23 64.66 48.19 64.81 48.15 64.95 48.11 65.09 48.07 65.23 48.03 65.38 47.99 65.52 47.95 65.66 47.91 65.8 47.87 65.95 47.83 66.09 47.79 66.23 47.75 66.37 47.71 66.52 47.67 66.66 47.63 66.8 47.59 66.94 47.55 67.09 47.51 67.23 47.47 67.37 47.43 67.51 47.39 67.66 47.35 67.8 47.31 67.94 47.27 68.08 47.23 68.23 47.19 68.37 47.15 68.51 47.11 68.66 47.07 68.8 47.03 68.94 46.99 69.08 46.95 69.23 46.91 69.37 46.87 69.51 46.83 69.65 46.79 69.8 46.75 69.94 46.71 70.08 46.67 70.22 46.63 70.37 46.59 70.51 46.55 70.65 46.51 70.79 46.47 70.94 46.43 71.08 46.39 71.22 46.35 71.36 46.31 71.51 46.27 71.65 46.23 71.79 46.19 71.93 46.15 72.08 46.11 72.22 46.07 72.36 46.03 72.5 45.99 72.65 45.95 72.79 45.91 72.93 45.87 73.07 45.83 73.22 45.79 73.36 45.75 73.5 45.71 73.64 45.67 73.79 45.63 73.93 45.59 74.07 45.55 74.21 45.51 74.36 45.47 74.5 45.43 74.64 45.39 74.78 45.35 74.93 45.31 75.07 45.27 75.21 45.23 75.35 45.19 75.5 45.15 75.64 45.11 75.78 45.07 75.92 45.03 76.07 44.99 76.21 44.95 76.35 44.91 76.49 44.87 76.64 44.83 76.78 44.79 76.92 44.75 77.06 44.71 77.21 44.67 77.35 44.63 77.49 44.59 77.64 44.55 77.78 44.51 77.92 44.47 78.06 44.43 78.21 44.39 78.35 44.35 78.49 44.31 78.63 44.27 78.78 44.23 78.92 44.18 79.06 44.14 79.2 44.1 79.35 44.06 79.49 44.02 79.63 43.98 79.77 43.94 79.92 43.9 80.06 43.86 80.2 43.82 80.34 43.78 80.49 43.74 80.63 43.7 80.77 43.66 80.91 43.62 81.06 43.58 81.2 43.54 81.34 43.5 81.48 43.46 81.63 43.42 81.77 43.38 81.91 43.34 82.05 43.3 82.2 43.26 82.34 43.22 82.48 43.18 82.62 43.14 82.77 43.1 82.91 43.06 83.05 43.02 83.19 42.98 83.34 42.94 83.48 42.9 83.62 42.86 83.76 42.82 83.91 42.78 84.05 42.74 84.19 42.7 84.33 42.66 84.48 42.62 84.62 42.58 84.76 42.54 84.9 42.5 85.05 42.46 85.19 42.42 85.33 42.38 85.47 42.34 85.62 42.3 85.76 42.26 85.9 42.22 86.04 42.18 86.19 42.14 86.33 42.1 86.47 42.06 86.62 42.02 86.76 41.98 86.9 41.94 87.04 41.9 87.19 41.86 87.33 41.82 87.47 41.78 87.61 41.74 87.76 41.7 87.9 41.66 88.04 41.62 88.18 41.58 88.33 41.54 88.47 41.5 88.61 41.46 88.75 41.42 88.9 41.38 89.04 41.34 89.18 41.3 89.32 41.26 89.47 41.22 89.61 41.18 89.75 41.14 89.89 41.1 90.04 41.06 90.18 41.02 90.32 40.98 90.46 40.94 90.61 40.9 90.75 40.86 90.89 40.82 91.03 40.78 91.18 40.74 91.32 40.7 91.46 40.66 91.6 40.62 91.75 40.58 91.89 40.54 92.03 40.5 92.17 40.46 92.32 40.42 92.46 40.38 92.6 40.34 92.74 40.3 92.89 40.26 93.03 40.22 93.17 40.18 93.31 40.14 93.46 40.1 93.6 40.06 93.74 40.02 93.88 39.98 94.03 39.94 94.17 39.9 94.31 39.86 94.45 39.82 94.6 39.78 94.74 39.74 94.88 39.7 95.02 39.66 95.17 39.62 95.31 39.58 95.45 39.54 95.6 39.5 95.74 39.46 95.88 39.42 96.02 39.38 96.17 39.34 96.31 39.3 96.45 39.26 96.59 39.22 96.74 39.18 96.88 39.14 97.02 39.1 97.16 39.06 97.31 39.02 97.45 38.98 97.59 38.94 97.73 38.9 97.88 38.86 98.02 38.82 98.16 38.78 98.3 38.74 98.45 38.69 98.59 38.65 98.73 38.61 98.87 38.57 99.02 38.53 99.16 38.49 99.3 38.45 99.44 38.41 99.59 38.37 99.73 38.33 99.87 38.29 100.01 38.25 100.16 38.21 100.3 38.17 100.44 38.13 100.58 38.09 100.73 38.05 100.87 38.01 101.01 37.97 101.15 37.93 101.3 37.89 101.44 37.85 101.58 37.81 101.72 37.77 101.87 37.73 102.01 37.69 102.15 37.65 102.29 37.61 102.44 37.57 102.58 37.53 102.72 37.49 102.86 37.45 103.01 37.41 103.15 37.37 103.29 37.33 103.43 37.29 103.58 37.25 103.72 37.21 103.86 37.17 104 37.13 104.15 37.09 104.29 37.05 104.43 37.01 104.58 36.97 104.72 36.93 104.86 36.89 105 36.85 105.15 36.81 105.29 36.77 105.43 36.73 105.57 36.69 105.72 36.65 105.86 36.61 106 36.57 106.14 36.53 106.29 36.49 106.43 36.45 106.57 36.41 106.71 36.37 106.86 36.33 107 36.29 107.14 36.25 107.28 36.21 107.43 36.17 107.57 36.13 107.71 36.09 107.85 36.05 108 36.01 108.14 35.97 108.28 35.93 108.42 35.89 108.57 35.85 108.71 35.81 108.85 35.77 108.99 35.73 109.14 35.69 109.28 35.65 109.42 35.61 109.56 35.57 109.71 35.53 109.85 35.49 109.99 35.45 110.13 35.41 110.28 35.37 110.42 35.33 110.56 35.29 110.7 35.25 110.85 35.21 110.99 35.17 111.13 35.13 111.27 35.09 111.42 35.05 111.56 35.01 111.7 34.97 111.84 34.93 111.99 34.89 112.13 34.85 112.27 34.81 112.41 34.77 112.56 34.73 112.7 34.69 112.84 34.65 112.99 34.61 113.13 34.57 113.27 34.53 113.41 34.49 113.56 34.45 113.7 34.41 113.84 34.37 113.98 34.33 114.13 34.29 114.27 34.25 114.41 34.21 114.55 34.17 114.7 34.13 114.84 34.09 114.98 34.05 115.12 34.01 115.27 33.97 115.41 33.93 115.55 33.89 115.69 33.85 115.84 33.81 115.98 33.77 116.12 33.73 116.26 33.69 116.41 33.65 116.55 33.61 116.69 33.57 116.83 33.53 116.98 33.49 117.12 33.45 117.26 33.41 117.4 33.37 117.55 33.33 117.69 33.29 117.83 33.25 117.97 33.2 118.12 33.16 118.26 33.12 118.4 33.08 118.54 33.04 118.69 33 118.83 32.96 118.97 32.92 119.11 32.88 119.26 32.84 119.4 32.8 119.54 32.76 119.68 32.72 119.83 32.68 119.97 32.64 120.11 32.6 120.25 32.56 120.4 32.52 120.54 32.48 120.68 32.44 120.82 32.4 120.97 32.36 121.11 32.32 121.25 32.28 121.39 32.24 121.54 32.2 121.68 32.16 121.82 32.12 121.97 32.08 122.11 32.04 122.25 32 122.39 31.96 122.54 31.92 122.68 31.88 122.82 31.84 122.96 31.8 123.11 31.76 123.25 31.72 123.39 31.68 123.53 31.64 123.68 31.6 123.82 31.56 123.96 31.52 124.1 31.48 124.25 31.44 124.39 31.4 124.53 31.36 124.67 31.32 124.82 31.28 124.96 31.24 125.1 31.2 125.24 31.16 125.39 31.12 125.53 31.08 125.67 31.04 125.81 31 125.96 30.96 126.1 30.92 126.24 30.88 126.38 30.84 126.53 30.8 126.67 30.76 126.81 30.72 126.95 30.68 127.1 30.64 127.24 30.6 127.38 30.56 127.52 30.52 127.67 30.48 127.81 30.44 127.95 30.4 128.09 30.36 128.24 30.32 128.38 30.28 128.52 30.24 128.66 30.2 128.81 30.16 128.95 30.12 129.09 30.08 129.23 30.04 129.38 30 129.52 29.96 129.66 29.92 129.8 29.88 129.95 29.84 130.09 29.8 130.23 29.76 130.37 29.72 130.52 29.68 130.66 29.64 130.8 29.6 130.95 29.56 131.09 29.52 131.23 29.48 131.37 29.44 131.52 29.4 131.66 29.36 131.8 29.32 131.94 29.28 132.09 29.24 132.23 29.2 132.37 29.16 132.51 29.12 132.66 29.08 132.8 29.04 132.94 29 133.08 28.96 133.23 28.92 133.37 28.88 133.51 28.84 133.65 28.8 133.8 28.76 133.94 28.72 134.08 28.68 134.22 28.64 134.37 28.6 134.51 28.56 134.65 28.52 134.79 28.48 134.94 28.44 135.08 28.4 135.22 28.36 135.36 28.32 135.51 28.28 135.65 28.24 135.79 28.2 135.93 28.16 136.08 28.12 136.22 28.08 136.36 28.04 136.5 28 136.65 27.96 136.79 27.92 136.93 27.88 137.07 27.84 137.22 27.8 137.36 27.76 137.5 27.71 137.64 27.67 137.79 27.63 137.93 27.59 138.07 27.55 138.21 27.51 138.36 27.47 138.5 27.43 138.64 27.39 138.78 27.35 138.93 27.31 139.07 27.27 139.21 27.23 139.35 27.19 139.5 27.15 139.64 27.11 139.78 27.07 139.93 27.03 140.07 26.99 140.21 26.95 140.35 26.91 140.5 26.87 140.64 26.83 140.78 26.79 140.92 26.75 141.07 26.71 141.21 26.67 141.35 26.63 141.49 26.59 141.64 26.55 141.78 26.51 141.92 26.47 142.06 26.43 142.21 26.39 142.35 26.35 142.49 26.31 142.63 26.27 142.78 26.23 142.92 26.19 143.06 26.15 143.2 26.11 143.35 26.07 143.49 26.03 143.63 25.99 143.77 25.95 143.92 25.91 144.06 25.87 144.2 25.83 144.34 25.79 144.49 25.75 144.63 25.71 144.77 25.67 144.91 25.63 145.06 25.59 145.2 25.55 145.34 25.51 145.48 25.47 145.63 25.43 145.77 25.39 145.91 25.35 146.05 25.31 146.2 25.27 146.34 25.23 146.48 25.19 146.62 25.15 146.77 25.11 146.91 25.07 147.05 25.03 147.19 24.99 147.34 24.95 147.48 24.91 147.62 24.87 147.76 24.83 147.91 24.79 148.05 24.75 148.19 24.71 148.33 24.67 148.48 24.63 148.62 24.59 148.76 24.55 148.91 24.51 149.05 24.47 149.19 24.43 149.33 24.39 149.48 24.35 149.62 24.31 149.76 24.27 149.9 24.23 150.05 24.19 150.19 24.15 150.33 24.11 150.47 24.07 150.62 24.03 150.76 23.99 150.9 23.95 151.04 23.91 151.19 23.87 151.33 23.83 151.47 23.79 151.61 23.75 151.76 23.71 151.9 23.67 152.04 23.63 152.18 23.59 152.33 23.55 152.47 23.51 152.61 23.47 152.75 23.43 152.9 23.39 153.04 23.35 153.18 23.31 153.32 23.27 153.47 23.23 153.61 23.19 153.75 23.15 153.89 23.11 154.04 23.07 154.18 23.03 154.32 22.99 154.46 22.95 154.61 22.91 154.75 22.87 154.89 22.83 155.03 22.79"/>
    </g>
  </g>
  <g id="n" data-name="Means">
    <g id="r" data-name="Ebene 7">
      <g>
        <line class="v" x1="69.51" y1="43.97" x2="69.51" y2="49.01"/>
        <line class="v" x1="69.51" y1="43.97" x2="69.51" y2="38.92"/>
        <line class="x" x1="67.98" y1="49.01" x2="71.04" y2="49.01"/>
        <line class="x" x1="67.98" y1="38.92" x2="71.04" y2="38.92"/>
      </g>
      <g>
        <line class="v" x1="98.02" y1="39.52" x2="98.02" y2="45.41"/>
        <line class="v" x1="98.02" y1="39.52" x2="98.02" y2="33.63"/>
        <line class="x" x1="96.49" y1="45.41" x2="99.55" y2="45.41"/>
        <line class="x" x1="96.49" y1="33.63" x2="99.55" y2="33.63"/>
      </g>
      <g>
        <line class="v" x1="126.53" y1="31" x2="126.53" y2="35.47"/>
        <line class="v" x1="126.53" y1="31" x2="126.53" y2="26.52"/>
        <line class="x" x1="125" y1="35.47" x2="128.06" y2="35.47"/>
        <line class="x" x1="125" y1="26.52" x2="128.06" y2="26.52"/>
      </g>
      <g>
        <line class="v" x1="155.03" y1="22.98" x2="155.03" y2="27.87"/>
        <line class="v" x1="155.03" y1="22.98" x2="155.03" y2="18.09"/>
        <line class="x" x1="153.5" y1="27.87" x2="156.57" y2="27.87"/>
        <line class="x" x1="153.5" y1="18.09" x2="156.57" y2="18.09"/>
      </g>
      <g>
        <line class="v" x1="12.49" y1="56.4" x2="12.49" y2="58"/>
        <line class="v" x1="12.49" y1="56.4" x2="12.49" y2="54.8"/>
        <line class="x" x1="10.96" y1="58" x2="14.03" y2="58"/>
        <line class="x" x1="10.96" y1="54.8" x2="14.03" y2="54.8"/>
      </g>
      <g>
        <line class="v" x1="41" y1="56.73" x2="41" y2="58.19"/>
        <line class="v" x1="41" y1="56.73" x2="41" y2="55.28"/>
        <line class="x" x1="39.47" y1="58.19" x2="42.53" y2="58.19"/>
        <line class="x" x1="39.47" y1="55.28" x2="42.53" y2="55.28"/>
      </g>
      <g>
        <rect class="ae" x="11.33" y="55.24" width="2.33" height="2.33" transform="translate(-36.22 25.35) rotate(-45)"/>
        <g class="aa">
          <path class="ab" d="M12.49,54.76l1.64,1.64-1.64,1.64-1.64-1.64,1.64-1.64M12.49,54.4l-.18.18-1.64,1.64-.18.18.18.18,1.64,1.64.18.18.18-.18,1.64-1.64.18-.18-.18-.18-1.64-1.64-.18-.18h0Z"/>
        </g>
      </g>
      <g>
        <rect class="ae" x="39.84" y="55.57" width="2.33" height="2.33" transform="translate(-28.11 45.61) rotate(-45)"/>
        <g class="aa">
          <path class="ab" d="M41,55.09l1.64,1.64-1.64,1.64-1.64-1.64,1.64-1.64M41,54.73l-.18.18-1.64,1.64-.18.18.18.18,1.64,1.64.18.18.18-.18,1.64-1.64.18-.18-.18-.18-1.64-1.64-.18-.18h0Z"/>
        </g>
      </g>
      <g>
        <rect class="ae" x="68.35" y="42.8" width="2.33" height="2.33" transform="translate(-10.73 62.03) rotate(-45)"/>
        <g class="aa">
          <path class="ab" d="M69.51,42.32l1.64,1.64-1.64,1.64-1.64-1.64,1.64-1.64M69.51,41.97l-.18.18-1.64,1.64-.18.18.18.18,1.64,1.64.18.18.18-.18,1.64-1.64.18-.18-.18-.18-1.64-1.64-.18-.18h0Z"/>
        </g>
      </g>
      <g>
        <rect class="ae" x="96.86" y="38.36" width="2.33" height="2.33" transform="translate(.76 80.88) rotate(-45)"/>
        <g class="aa">
          <path class="ab" d="M98.02,37.87l1.64,1.64-1.64,1.64-1.64-1.64,1.64-1.64M98.02,37.52l-.18.18-1.64,1.64-.18.18.18.18,1.64,1.64.18.18.18-.18,1.64-1.64.18-.18-.18-.18-1.64-1.64-.18-.18h0Z"/>
        </g>
      </g>
      <g>
        <rect class="ae" x="125.36" y="29.83" width="2.33" height="2.33" transform="translate(15.14 98.55) rotate(-45)"/>
        <g class="aa">
          <path class="ab" d="M126.53,29.35l1.64,1.64-1.64,1.64-1.64-1.64,1.64-1.64M126.53,29l-.18.18-1.64,1.64-.18.18.18.18,1.64,1.64.18.18.18-.18,1.64-1.64.18-.18-.18-.18-1.64-1.64-.18-.18h0Z"/>
        </g>
      </g>
      <g>
        <rect class="ae" x="153.87" y="21.82" width="2.33" height="2.33" transform="translate(29.16 116.36) rotate(-45)"/>
        <g class="aa">
          <path class="ab" d="M155.03,21.34l1.64,1.64-1.64,1.64-1.64-1.64,1.64-1.64M155.03,20.98l-.18.18-1.64,1.64-.18.18.18.18,1.64,1.64.18.18.18-.18,1.64-1.64.18-.18-.18-.18-1.64-1.64-.18-.18h0Z"/>
        </g>
      </g>
    </g>
  </g>
</svg>