<?xml version="1.0" encoding="UTF-8"?>
<svg xmlns="http://www.w3.org/2000/svg" viewBox="0 0 159.54 79.35">
  <defs>
    <style>
      .t, .u, .v, .w, .x, .y {
        fill: none;
      }

      .u {
        stroke: #fff;
      }

      .u, .v, .w, .x, .y {
        stroke-linecap: round;
        stroke-linejoin: round;
      }

      .u, .z {
        opacity: .5;
      }

      .v {
        stroke: #1f4277;
      }

      .v, .x {
        stroke-width: .5px;
      }

      .w {
        stroke: #8fb1d8;
        stroke-width: .75px;
      }

      .aa {
        fill: #fff;
      }

      .ab {
        fill: #e0ebf8;
      }

      .ab, .ac {
        opacity: .3;
      }

      .x {
        stroke: #000;
      }

      .ad, .ac {
        fill: #1e4377;
      }

      .y {
        stroke: #e0ebf8;
        stroke-width: .25px;
      }
    </style>
  </defs>
  <g id="a" data-name="background">
    <rect class="ab" x="12.42" y=".82" width="142.44" height="67.54"/>
  </g>
  <g id="c" data-name="Lines">
    <g>
      <line class="y" x1="12.44" y1=".69" x2="154.94" y2=".69"/>
      <line class="y" x1="12.44" y1="11.95" x2="154.94" y2="11.95"/>
      <line class="y" x1="12.44" y1="23.21" x2="154.94" y2="23.21"/>
      <line class="y" x1="12.44" y1="34.48" x2="154.94" y2="34.48"/>
      <line class="y" x1="12.44" y1="45.74" x2="154.94" y2="45.74"/>
      <line class="y" x1="12.44" y1="57" x2="154.94" y2="57"/>
    </g>
  </g>
  <g id="d" data-name="Axes">
    <g>
      <line class="x" x1="12.47" y1="68.06" x2="154.91" y2="68.06"/>
      <line class="x" x1="154.91" y1="68.06" x2="154.91" y2="66.64"/>
      <line class="x" x1="12.47" y1="68.06" x2="12.47" y2=".53"/>
      <line class="x" x1="12.44" y1=".53" x2="13.93" y2=".53"/>
      <line class="x" x1="12.44" y1="11.95" x2="13.93" y2="11.95"/>
      <line class="x" x1="12.44" y1="23.21" x2="13.93" y2="23.21"/>
      <line class="x" x1="12.44" y1="34.48" x2="13.93" y2="34.48"/>
      <line class="x" x1="12.44" y1="45.74" x2="13.93" y2="45.74"/>
      <line class="x" x1="12.44" y1="57" x2="13.93" y2="57"/>
    </g>
  </g>
  <g id="e" data-name="Layer 22" class="z">
    <circle class="ac" cx="12.48" cy="65.24" r="2.53"/>
    <circle class="ac" cx="40.1" cy="68.02" r="3.35" transform="translate(-29.39 105.51) rotate(-87.82)"/>
    <path class="ac" d="M70.1,63.92c0-1.31-1.07-2.38-2.38-2.38s-2.38,1.07-2.38,2.38,1.07,2.38,2.38,2.38,2.38-1.07,2.38-2.38Z"/>
    <circle class="ac" cx="95.34" cy="61.84" r="3.4" transform="translate(32.05 156.22) rotate(-89.12)"/>
    <circle class="ac" cx="123.06" cy="65.41" r="3.35" transform="translate(-1.85 3.61) rotate(-1.67)"/>
    <circle class="ac" cx="150.69" cy="65.88" r="2.53"/>
    <circle class="ac" cx="12.48" cy="54.54" r="3.07" transform="translate(-42.3 65.9) rotate(-88.84)"/>
    <circle class="ac" cx="40.1" cy="40.6" r="3.4"/>
    <circle class="ac" cx="67.72" cy="48.55" r="3.63"/>
    <circle class="ac" cx="95.34" cy="50.18" r="3.75"/>
    <circle class="ac" cx="123.06" cy="62.57" r="2.84" transform="translate(-1 2.01) rotate(-.93)"/>
    <circle class="ac" cx="150.69" cy="36.88" r="3.26" transform="translate(-.57 2.42) rotate(-.92)"/>
    <circle class="ac" cx="12.48" cy="53" r="3.52" transform="translate(-.87 .21) rotate(-.94)"/>
    <circle class="ac" cx="40.1" cy="40.35" r="3.24" transform="translate(-1.7 78.94) rotate(-87.9)"/>
    <circle class="ac" cx="67.72" cy="55.65" r="3.16" transform="translate(-.84 1.04) rotate(-.88)"/>
    <circle class="ac" cx="95.34" cy="35.94" r="3.67"/>
    <circle class="ac" cx="123.06" cy="48.87" r="3.67" transform="translate(-1.25 3.28) rotate(-1.52)"/>
    <circle class="ac" cx="150.69" cy="15.83" r="4.23"/>
    <circle class="ac" cx="12.48" cy="67.92" r="4.02" transform="translate(-55.8 78.26) rotate(-88.2)"/>
    <circle class="ac" cx="40.1" cy="67.68" r="3.75" transform="translate(-1.89 1.16) rotate(-1.62)"/>
    <circle class="ac" cx="67.72" cy="66.32" r="3.75" transform="translate(-1.68 1.76) rotate(-1.47)"/>
    <circle class="ac" cx="95.34" cy="67.28" r="3.96"/>
    <circle class="ac" cx="123.06" cy="68.07" r="3.63" transform="translate(51.12 188.91) rotate(-88.18)"/>
    <circle class="ac" cx="150.69" cy="68.1" r="3.85" transform="translate(-2.13 4.93) rotate(-1.86)"/>
    <path class="ac" d="M15.4,68.05c0-1.61-1.31-2.92-2.92-2.92s-2.92,1.31-2.92,2.92,1.31,2.92,2.92,2.92,2.92-1.31,2.92-2.92Z"/>
    <circle class="ac" cx="40.1" cy="67.36" r="3.21"/>
    <circle class="ac" cx="67.72" cy="50.58" r="3.9" transform="translate(-.67 .92) rotate(-.77)"/>
    <circle class="ac" cx="95.34" cy="56.86" r="3.33" transform="translate(-1 1.72) rotate(-1.03)"/>
    <circle class="ac" cx="123.06" cy="44.78" r="3.05" transform="translate(74.49 166.4) rotate(-88.23)"/>
    <circle class="ac" cx="150.69" cy="55.68" r="3.9" transform="translate(-1.34 3.77) rotate(-1.43)"/>
    <circle class="ac" cx="12.48" cy="48.94" r="4.15" transform="translate(-1.3 .35) rotate(-1.53)"/>
    <circle class="ac" cx="40.1" cy="46.33" r="3.38"/>
    <circle class="ac" cx="95.34" cy="16.69" r="4.52" transform="translate(76.09 111.55) rotate(-88.46)"/>
    <circle class="ac" cx="123.06" cy="13.39" r="4.52" transform="translate(106.53 136.07) rotate(-88.54)"/>
    <circle class="ac" cx="150.69" cy="20.42" r="3.75"/>
    <circle class="ac" cx="12.48" cy="40.55" r="4.15" transform="translate(-28.24 52.47) rotate(-89.21)"/>
    <circle class="ac" cx="40.1" cy="40.18" r="3.59" transform="translate(-.62 .63) rotate(-.89)"/>
    <circle class="ac" cx="67.72" cy="51.61" r="3.43" transform="translate(15.07 118.52) rotate(-89.11)"/>
    <circle class="ac" cx="123.06" cy="53.89" r="3.21"/>
    <circle class="ac" cx="12.48" cy="61.15" r="3.07" transform="translate(-48.92 72.38) rotate(-88.84)"/>
    <circle class="ac" cx="150.69" cy="53.75" r="3.4" transform="translate(-.81 2.32) rotate(-.88)"/>
    <circle class="ac" cx="40.1" cy="41.42" r="3.33" transform="translate(-2.02 80.78) rotate(-88.99)"/>
    <circle class="ac" cx="67.72" cy="55.78" r="3.04" transform="translate(9.41 121.33) rotate(-87.82)"/>
    <circle class="ac" cx="95.34" cy="39.91" r="3.43" transform="translate(-.61 1.48) rotate(-.89)"/>
    <circle class="ac" cx="123.06" cy="58.27" r="3.43" transform="translate(62.77 180.35) rotate(-89.05)"/>
    <circle class="ac" cx="12.48" cy="44.05" r="2.99"/>
    <circle class="ac" cx="40.1" cy="38.74" r="3.56"/>
    <circle class="ac" cx="67.72" cy="52.35" r="2.92" transform="translate(-.85 1.12) rotate(-.94)"/>
    <circle class="ac" cx="95.34" cy="18.38" r="3.8" transform="translate(75.5 113.44) rotate(-89.12)"/>
    <circle class="ac" cx="123.06" cy="16.71" r="4.52" transform="translate(103.22 139.3) rotate(-88.54)"/>
    <circle class="ac" cx="150.69" cy="17.51" r="4.52" transform="translate(-.2 1.79) rotate(-.68)"/>
  </g>
  <g id="f" data-name="Data-Dots">
    <g id="h" data-name="Ebene 12 Kopie">
      <circle class="ad" cx="40.11" cy="67.8" r=".38"/>
      <circle class="ad" cx="40.11" cy="40.4" r=".38"/>
      <circle class="ad" cx="67.74" cy="48.35" r=".38"/>
      <circle class="ad" cx="40.11" cy="40.16" r=".38"/>
      <circle class="ad" cx="40.11" cy="67.45" r=".38"/>
      <circle class="ad" cx="67.74" cy="50.38" r=".38"/>
      <circle class="ad" cx="40.11" cy="46.13" r=".38"/>
      <circle class="ad" cx="40.11" cy="39.98" r=".38"/>
      <circle class="ad" cx="67.74" cy="51.4" r=".38"/>
      <circle class="ad" cx="40.11" cy="41.22" r=".38"/>
      <circle class="ad" cx="40.11" cy="38.55" r=".38"/>
      <circle class="ad" cx="12.47" cy="65.02" r=".38"/>
      <circle class="ad" cx="67.74" cy="63.7" r=".38"/>
      <circle class="ad" cx="12.47" cy="54.32" r=".38"/>
      <circle class="ad" cx="12.47" cy="52.79" r=".38"/>
      <circle class="ad" cx="12.47" cy="67.69" r=".38"/>
      <circle class="ad" cx="67.74" cy="66.1" r=".38"/>
      <circle class="ad" cx="12.47" cy="67.82" r=".38"/>
      <circle class="ad" cx="40.11" cy="67.14" r=".38"/>
      <circle class="ad" cx="12.47" cy="48.73" r=".38"/>
      <circle class="ad" cx="12.47" cy="40.36" r=".38"/>
      <circle class="ad" cx="12.47" cy="60.93" r=".38"/>
      <circle class="ad" cx="12.47" cy="43.85" r=".38"/>
      <circle class="ad" cx="67.74" cy="52.14" r=".38"/>
      <circle class="ad" cx="67.74" cy="55.44" r=".38"/>
      <circle class="ad" cx="67.74" cy="55.57" r=".38"/>
      <circle class="ad" cx="95.37" cy="61.62" r=".38"/>
      <circle class="ad" cx="123.1" cy="65.19" r=".38"/>
      <circle class="ad" cx="95.37" cy="49.98" r=".38"/>
      <circle class="ad" cx="123.1" cy="62.35" r=".38"/>
      <circle class="ad" cx="95.37" cy="35.75" r=".38"/>
      <circle class="ad" cx="123.1" cy="48.67" r=".38"/>
      <circle class="ad" cx="95.37" cy="67.06" r=".38"/>
      <circle class="ad" cx="123.1" cy="67.84" r=".38"/>
      <circle class="ad" cx="95.37" cy="56.65" r=".38"/>
      <circle class="ad" cx="123.1" cy="44.58" r=".38"/>
      <circle class="ad" cx="95.37" cy="16.52" r=".38"/>
      <circle class="ad" cx="123.1" cy="13.22" r=".38"/>
      <circle class="ad" cx="123.1" cy="53.68" r=".38"/>
      <circle class="ad" cx="95.37" cy="39.72" r=".38"/>
      <circle class="ad" cx="123.1" cy="58.06" r=".38"/>
      <circle class="ad" cx="95.37" cy="18.21" r=".38"/>
      <circle class="ad" cx="123.1" cy="16.53" r=".38"/>
      <circle class="ad" cx="150.73" cy="65.66" r=".38"/>
      <circle class="ad" cx="150.73" cy="36.68" r=".38"/>
      <circle class="ad" cx="150.73" cy="15.66" r=".38"/>
      <circle class="ad" cx="150.73" cy="67.87" r=".38"/>
      <circle class="ad" cx="150.73" cy="55.47" r=".38"/>
      <circle class="ad" cx="150.73" cy="20.25" r=".38"/>
      <circle class="ad" cx="150.73" cy="53.54" r=".38"/>
      <circle class="ad" cx="150.73" cy="17.34" r=".38"/>
    </g>
  </g>
  <g id="j" data-name="Text">
    <g>
      <path d="M62.52,72.79l-.38,1.83h.01c.13-.16.3-.29.49-.39.19-.1.4-.14.62-.14.24,0,.45.04.63.12.18.08.32.18.44.32.12.13.2.3.26.49s.09.4.09.64c0,.28-.04.56-.13.83-.08.27-.21.5-.37.71-.16.21-.36.37-.6.5-.24.13-.51.19-.82.19-.17,0-.32-.02-.46-.07-.14-.04-.26-.1-.37-.17-.1-.07-.19-.15-.26-.24s-.11-.18-.13-.27h-.01l-.13.67h-.53l1.05-5h.59ZM64.03,75.24c-.04-.13-.09-.24-.15-.33-.07-.09-.15-.17-.26-.22-.1-.05-.22-.08-.36-.08-.26,0-.49.06-.67.18s-.34.27-.46.45-.21.38-.26.59c-.06.21-.08.42-.08.61,0,.29.09.51.27.67.18.16.42.24.71.24.21,0,.4-.06.57-.17.16-.11.3-.25.41-.42.11-.17.2-.35.25-.55.06-.2.08-.39.08-.56,0-.14-.02-.28-.05-.41Z"/>
      <path d="M66.67,72.79l-1.05,5h-.59l1.04-5h.6Z"/>
      <path d="M68.91,77.78l.11-.55h-.01c-.15.21-.34.37-.57.47s-.47.15-.72.15c-.34,0-.59-.07-.76-.22-.17-.15-.25-.38-.25-.7,0-.08,0-.18.03-.31s.04-.26.08-.4l.44-2.07h.59l-.46,2.11s-.02.08-.03.13c0,.05-.02.1-.03.16,0,.05-.02.11-.02.15s0,.09,0,.12c0,.17.06.3.18.38.12.08.27.12.45.12.17,0,.32-.03.47-.1.14-.07.27-.15.38-.26.11-.11.21-.24.28-.38.08-.14.13-.29.16-.44l.42-2h.59l-.76,3.62h-.57Z"/>
      <path d="M71.78,74.16l-.17.78h.01c.14-.25.32-.45.54-.62.22-.16.48-.25.78-.25.04,0,.07,0,.11,0,.03,0,.07,0,.11,0l-.14.64s-.05,0-.09,0h-.08c-.08,0-.14,0-.18,0-.05,0-.11.01-.18.03-.16.04-.31.11-.44.22-.13.1-.24.23-.33.37-.08.12-.14.25-.19.41-.05.16-.08.3-.11.44l-.34,1.6h-.59l.75-3.62h.56Z"/>
      <path d="M76.09,74.16l-.76,3.62h-.59l.75-3.62h.6ZM75.63,73.51l.15-.73h.6l-.15.73h-.6Z"/>
      <path d="M77.63,74.16l-.11.55h.01c.15-.21.34-.37.57-.47.23-.11.47-.16.72-.16.34,0,.59.08.76.22.17.15.25.38.25.71,0,.08,0,.18-.03.31s-.04.26-.08.4l-.44,2.06h-.59l.46-2.11s.01-.08.02-.13c0-.05.02-.1.03-.15,0-.05.02-.1.02-.15,0-.05.01-.09.01-.12,0-.17-.06-.3-.18-.38-.12-.08-.27-.12-.45-.12-.16,0-.33.04-.49.12-.16.08-.3.18-.41.3-.11.09-.19.21-.25.34s-.11.27-.15.42l-.42,2h-.59l.76-3.62h.57Z"/>
      <path d="M82.49,74.16l-.11.53h-.72l-.45,2.13s0,.08-.01.12c0,.04,0,.08,0,.12,0,.09.04.16.11.19s.16.05.25.05c.06,0,.12,0,.17-.02s.11-.03.17-.05l-.11.55c-.07,0-.14.02-.21.02-.07,0-.14.01-.21.01-.11,0-.22,0-.31-.02-.1-.02-.18-.05-.26-.09-.07-.04-.13-.1-.17-.18-.04-.07-.07-.17-.07-.29,0-.05,0-.1.01-.15,0-.05.01-.1.02-.15l.48-2.25h-.61l.11-.53h.61l.22-1.07h.6l-.22,1.07h.72Z"/>
      <path d="M83.09,76.47c0,.14.03.26.08.37.05.11.12.2.21.27.09.07.19.13.3.17.11.04.23.06.35.06.27,0,.49-.06.66-.18.17-.12.3-.29.38-.51h.6c-.05.2-.12.38-.22.53-.1.15-.23.28-.37.38-.14.1-.3.18-.48.23-.18.05-.36.08-.56.08-.3,0-.55-.04-.75-.14-.2-.09-.36-.21-.47-.35-.12-.14-.2-.3-.25-.47-.05-.17-.07-.33-.07-.49,0-.34.05-.66.15-.95.1-.29.24-.53.41-.74.17-.21.37-.36.59-.48.23-.11.46-.17.71-.17.53,0,.92.14,1.17.42.25.28.37.67.37,1.18,0,.09,0,.18-.02.27s-.03.15-.04.2h-2.72c-.01.1-.02.21-.02.32ZM85.27,75.25c-.03-.12-.07-.23-.14-.33-.07-.1-.16-.17-.27-.23-.11-.06-.25-.09-.41-.09s-.33.03-.46.08c-.14.05-.26.13-.36.22-.1.09-.19.2-.26.33-.07.12-.13.25-.17.4h2.1c0-.13,0-.25-.02-.38Z"/>
      <path d="M87.49,74.16l-.11.55h.01c.15-.21.34-.37.57-.47.23-.11.47-.16.72-.16.34,0,.59.08.76.22.17.15.25.38.25.71,0,.08,0,.18-.03.31-.02.13-.04.26-.08.4l-.44,2.06h-.59l.46-2.11s.01-.08.02-.13.02-.1.03-.15c0-.05.02-.1.02-.15,0-.05,0-.09,0-.12,0-.17-.06-.3-.18-.38-.12-.08-.27-.12-.45-.12-.16,0-.33.04-.49.12-.16.08-.3.18-.41.3-.11.09-.19.21-.25.34s-.11.27-.15.42l-.42,2h-.59l.76-3.62h.57Z"/>
      <path d="M92.35,74.76c-.15-.1-.33-.16-.54-.16-.09,0-.18,0-.27.02-.09.01-.18.04-.25.07s-.13.08-.18.14-.07.13-.07.23c0,.08.03.16.08.22s.13.12.22.17c.09.05.19.1.31.14.12.04.23.09.35.14.12.05.24.11.35.17.11.06.21.13.3.21.09.08.16.17.22.27.06.11.08.23.08.37,0,.2-.04.37-.13.51-.09.14-.2.26-.34.35-.14.09-.3.15-.47.19-.17.04-.35.06-.53.06-.21,0-.4-.02-.58-.06-.18-.04-.33-.11-.46-.2-.13-.09-.23-.22-.3-.38-.08-.16-.11-.35-.11-.58h.59c0,.13.01.24.06.33.05.09.12.16.2.22s.19.09.3.12c.11.02.23.04.36.04.1,0,.2,0,.29-.03.1-.02.19-.05.27-.09.08-.04.14-.1.19-.17.05-.07.07-.16.07-.26,0-.09-.03-.16-.08-.23-.06-.06-.13-.12-.22-.17-.09-.05-.19-.1-.3-.14-.11-.04-.23-.09-.35-.14-.12-.05-.24-.1-.35-.15-.12-.06-.22-.12-.31-.2s-.16-.17-.22-.27c-.05-.1-.08-.22-.08-.36,0-.17.04-.32.12-.45.08-.13.18-.24.3-.33.12-.09.27-.15.43-.2.16-.05.33-.07.49-.07s.33.02.5.06c.16.04.31.11.44.2.13.09.23.21.31.36.08.15.12.33.12.54h-.6c0-.21-.06-.36-.21-.47Z"/>
      <path d="M94.76,74.16l-.76,3.62h-.59l.75-3.62h.59ZM94.3,73.51l.15-.73h.6l-.15.73h-.6Z"/>
      <path d="M97.27,74.16l-.11.53h-.72l-.45,2.13s0,.08-.01.12c0,.04,0,.08,0,.12,0,.09.04.16.11.19s.16.05.25.05c.06,0,.12,0,.17-.02s.11-.03.17-.05l-.11.55c-.07,0-.14.02-.21.02-.07,0-.14.01-.21.01-.11,0-.22,0-.31-.02s-.18-.05-.26-.09c-.07-.04-.13-.1-.17-.18-.04-.07-.07-.17-.07-.29,0-.05,0-.1.01-.15,0-.05.01-.1.02-.15l.48-2.25h-.61l.11-.53h.61l.22-1.07h.6l-.22,1.07h.72Z"/>
      <path d="M98.12,78.73c-.08.11-.16.2-.25.27-.09.08-.19.14-.3.18-.11.04-.24.07-.39.07-.07,0-.14,0-.22-.02-.07-.02-.14-.04-.2-.07l.1-.48s.1.05.17.07.12.03.17.03c.14,0,.25-.04.33-.11s.16-.17.23-.28l.37-.6-.64-3.62h.64l.42,2.88h.01l1.52-2.88h.65l-2.39,4.23c-.07.12-.15.23-.22.33Z"/>
      <path d="M102.73,75.98c.06-.27.15-.51.29-.73s.3-.41.5-.57c.2-.16.42-.29.67-.37.25-.09.52-.13.81-.13h1.81l-.11.53h-.84c.15.14.25.32.3.56.04.24.04.48,0,.73-.05.22-.13.44-.24.67-.11.22-.26.43-.44.61-.18.18-.39.33-.62.45s-.5.17-.79.17-.51-.05-.7-.15c-.19-.1-.35-.23-.46-.4-.11-.17-.18-.37-.2-.6s0-.48.05-.74ZM103.36,75.98c-.05.23-.06.43-.04.6.02.17.07.31.15.43.07.11.17.2.29.26.12.06.25.08.4.08.18,0,.34-.03.49-.1.15-.07.28-.16.39-.28.11-.12.21-.26.29-.43.08-.17.14-.35.18-.55.07-.32.08-.58.03-.79-.04-.21-.13-.38-.25-.5h-.35c-.19,0-.37.03-.54.08-.17.05-.32.13-.46.24-.14.11-.26.24-.36.4-.1.16-.17.35-.22.57Z"/>
    </g>
    <g>
      <rect class="t" x="16.53" y="3.26" width="42.49" height="10.94"/>
      <path d="M19.07,4.14c.3,0,.55.06.73.19.18.12.31.3.39.52.08.23.11.5.09.82-.01.32-.06.68-.15,1.07-.08.39-.19.75-.31,1.06-.12.32-.27.59-.45.82-.17.23-.38.4-.61.53s-.5.19-.8.19-.55-.06-.73-.19c-.18-.13-.3-.31-.38-.54-.08-.23-.11-.5-.09-.82.01-.32.06-.67.14-1.05.08-.38.18-.73.3-1.05s.27-.59.45-.82c.17-.23.38-.41.61-.54s.5-.19.81-.19ZM18.07,8.82c.19,0,.35-.03.48-.1s.25-.17.35-.32.2-.34.28-.58c.09-.24.17-.54.26-.89h-1.96c-.07.35-.11.65-.13.89s0,.43.05.58.12.25.23.32.25.1.43.1ZM19.55,6.46c.05-.28.08-.54.09-.76s0-.41-.05-.56-.11-.27-.22-.35c-.1-.08-.24-.12-.42-.12-.19,0-.36.04-.49.12-.14.08-.26.2-.36.35s-.2.34-.28.56c-.08.22-.15.48-.22.76h1.95Z"/>
      <path d="M21.31,7.02v-.48h3.53v.48h-3.53ZM24.83,7.96v.48h-3.53v-.48h3.53Z"/>
      <path d="M26.51,9.26l.8-3.77c-.22.05-.44.09-.64.11-.2.02-.42.03-.64.03l.1-.48c.15,0,.31-.02.47-.05.16-.03.31-.09.45-.16.15-.07.28-.16.4-.27.12-.11.22-.23.29-.37h.46l-1.06,4.96h-.63Z"/>
      <path d="M29.29,6.8c.04-.23.09-.46.16-.69s.17-.46.29-.68c.12-.22.25-.41.41-.58s.34-.3.55-.41c.21-.1.44-.15.7-.15.43,0,.77.15.99.44s.34.77.34,1.44c0,.15-.02.34-.05.55-.03.21-.08.44-.14.68-.07.24-.15.47-.26.7s-.24.44-.4.62-.34.33-.55.44c-.21.11-.45.17-.73.17-.26,0-.48-.05-.65-.15-.18-.1-.32-.23-.42-.41-.11-.17-.18-.38-.23-.61-.04-.23-.07-.49-.07-.76,0-.19.02-.39.05-.62ZM30.05,8.47c.12.24.33.35.62.35.18,0,.35-.05.49-.15.14-.1.27-.23.38-.39s.2-.33.27-.53c.07-.19.13-.38.17-.57.04-.18.08-.35.1-.5s.03-.26.03-.33c0-.09,0-.19,0-.3,0-.11,0-.22,0-.33,0-.11-.02-.22-.05-.33-.03-.11-.07-.2-.12-.28s-.13-.15-.22-.2c-.09-.05-.21-.07-.36-.07-.18,0-.34.05-.48.15-.14.1-.27.23-.38.39-.11.16-.2.34-.28.54s-.14.4-.2.6c-.05.2-.09.39-.11.57s-.03.32-.03.44c0,.4.06.71.18.95Z"/>
      <path d="M33.57,4.93c.05-.13.13-.24.22-.33.09-.09.2-.17.33-.22s.26-.08.41-.08.28.03.41.08.24.13.33.22c.09.09.17.2.22.33s.08.26.08.41-.03.28-.08.41-.13.24-.22.33-.2.17-.33.22c-.13.05-.26.08-.41.08s-.28-.03-.41-.08c-.13-.05-.24-.13-.33-.22s-.17-.2-.22-.33c-.05-.13-.08-.26-.08-.41s.03-.28.08-.41ZM34.04,5.83c.13.13.29.2.49.2s.36-.06.49-.2c.13-.13.2-.29.2-.49s-.07-.36-.2-.49c-.13-.13-.29-.2-.49-.2s-.36.07-.49.2c-.13.13-.2.29-.2.49s.06.36.2.49Z"/>
    </g>
  </g>
  <g id="l" data-name="numbers 5pt">
    <rect class="t" x="158.8" y="-.24" width="16.24" height="10.78"/>
    <g>
      <rect class="t" x="1.2" y="-.24" width="9.68" height="13.15"/>
      <path d="M8.57,1.01c-.09-.09-.23-.14-.42-.14-.17,0-.31.04-.42.12-.12.08-.21.18-.29.3-.08.12-.14.26-.19.41-.05.15-.09.28-.13.42h.01c.08-.12.2-.21.34-.27s.29-.08.44-.08.28.03.4.08c.12.05.23.13.32.22.09.1.16.21.21.33s.07.26.07.41c0,.18-.03.35-.09.51-.06.16-.14.3-.25.41-.11.12-.24.21-.4.27-.15.06-.33.1-.53.1-.18,0-.34-.03-.48-.09-.13-.06-.25-.14-.33-.25-.09-.1-.15-.23-.19-.38-.04-.15-.06-.3-.06-.47,0-.12,0-.24.02-.37s.03-.26.06-.38c.03-.13.06-.25.09-.37s.08-.23.12-.33c.13-.3.3-.53.51-.7.21-.17.49-.25.84-.25.29,0,.52.08.68.24.16.16.24.39.25.68h-.45c0-.18-.05-.32-.13-.41ZM8.29,2.33c-.11-.13-.27-.19-.48-.19-.13,0-.24.02-.33.07s-.18.11-.25.19c-.07.08-.12.17-.15.28s-.05.22-.05.34c0,.21.05.38.16.51.11.13.27.2.5.2.13,0,.24-.02.34-.08.1-.05.18-.12.24-.2.06-.09.11-.18.15-.29s.05-.22.05-.34c0-.2-.06-.37-.17-.49Z"/>
      <path d="M11.15.38l-.96,1.44h-.34l.75-1.44h.54Z"/>
    </g>
    <g>
      <rect class="t" x="4.73" y="68.71" width="12.98" height="10.04"/>
      <path d="M9.16,71.24c.02-.16.06-.32.12-.49.05-.17.12-.33.21-.48.08-.16.18-.29.29-.41.11-.12.25-.22.4-.29.15-.07.32-.11.5-.11.31,0,.55.1.71.31.16.21.25.55.25,1.03,0,.11-.01.24-.03.4-.02.15-.06.31-.1.48-.05.17-.11.33-.19.5-.08.17-.17.31-.29.44s-.25.24-.4.32c-.15.08-.32.12-.52.12-.19,0-.34-.04-.47-.1-.12-.07-.23-.17-.3-.29s-.13-.27-.16-.44c-.03-.17-.05-.35-.05-.54,0-.13.01-.28.04-.44ZM9.7,72.43c.09.17.23.25.44.25.13,0,.25-.04.35-.11s.19-.17.27-.28.14-.24.19-.38c.05-.14.09-.27.12-.41s.06-.25.07-.36c.01-.11.02-.19.02-.24,0-.07,0-.14,0-.22,0-.08,0-.16,0-.24,0-.08-.02-.16-.04-.24-.02-.08-.05-.14-.09-.2s-.09-.1-.16-.14c-.07-.04-.15-.05-.25-.05-.13,0-.24.04-.35.11s-.19.17-.27.28c-.08.11-.15.24-.2.39-.06.14-.1.29-.14.43-.04.14-.06.28-.08.41-.02.13-.02.23-.02.31,0,.28.04.51.13.68Z"/>
      <path d="M13.71,69.33l-.96,1.43h-.34l.75-1.43h.54Z"/>
    </g>
    <g>
      <rect class="t" x="145.05" y="68.71" width="10.22" height="10.04"/>
      <path d="M149.01,73l.58-2.7c-.16.04-.31.06-.46.08-.14.01-.3.02-.46.02l.07-.34c.11,0,.22-.01.33-.04.11-.02.22-.06.32-.12.1-.05.2-.12.28-.19.08-.08.15-.17.21-.26h.33l-.75,3.54h-.45Z"/>
      <path d="M151.92,69.89l-.28.96h.01c.09-.06.18-.11.29-.14.11-.03.22-.05.33-.05.16,0,.3.03.42.08.12.06.23.13.31.23s.15.21.19.34c.04.13.06.27.06.42,0,.19-.03.37-.09.54s-.17.32-.3.45c-.14.12-.29.21-.44.26-.15.05-.32.07-.5.07-.32,0-.58-.09-.77-.26-.19-.17-.29-.42-.29-.75h.45c0,.42.21.63.64.63.14,0,.26-.02.37-.07.11-.05.2-.12.27-.2.07-.08.13-.18.17-.3.04-.11.06-.23.06-.36,0-.23-.06-.41-.18-.53-.12-.12-.29-.18-.52-.18-.13,0-.25.03-.37.09-.12.06-.21.15-.26.25h-.38l.55-1.87h1.79l-.08.38h-1.46Z"/>
      <path d="M155.55,69.33l-.95,1.43h-.34l.75-1.43h.54Z"/>
    </g>
  </g>
  <g id="m" data-name="Fits">
    <g>
      <polyline class="u" points="154.91 31.16 150.73 32.08 150.73 32.08 150.6 32.11 150.46 32.14 150.32 32.17 150.18 32.2 150.04 32.23 149.9 32.26 149.77 32.29 149.63 32.32 149.49 32.35 149.35 32.38 149.21 32.41 149.08 32.44 148.94 32.47 148.8 32.5 148.66 32.53 148.52 32.56 148.38 32.59 148.25 32.62 148.11 32.65 147.97 32.68 147.83 32.71 147.69 32.75 147.55 32.78 147.42 32.81 147.28 32.84 147.14 32.87 147 32.9 146.86 32.93 146.72 32.96 146.59 32.99 146.45 33.02 146.31 33.05 146.17 33.08 146.03 33.11 145.9 33.14 145.76 33.17 145.62 33.2 145.48 33.23 145.34 33.26 145.2 33.29 145.07 33.32 144.93 33.35 144.79 33.38 144.65 33.41 144.51 33.45 144.37 33.48 144.24 33.51 144.1 33.54 143.96 33.57 143.82 33.6 143.68 33.63 143.54 33.66 143.41 33.69 143.27 33.72 143.13 33.75 142.99 33.78 142.85 33.81 142.72 33.84 142.58 33.87 142.44 33.9 142.3 33.93 142.16 33.96 142.02 33.99 141.89 34.02 141.75 34.05 141.61 34.08 141.47 34.11 141.33 34.15 141.19 34.18 141.06 34.21 140.92 34.24 140.78 34.27 140.64 34.3 140.5 34.33 140.36 34.36 140.23 34.39 140.09 34.42 139.95 34.45 139.81 34.48 139.67 34.51 139.54 34.54 139.4 34.57 139.26 34.6 139.12 34.63 138.98 34.66 138.84 34.69 138.71 34.72 138.57 34.75 138.43 34.78 138.29 34.81 138.15 34.84 138.01 34.88 137.88 34.91 137.74 34.94 137.6 34.97 137.46 35 137.32 35.03 137.18 35.06 137.05 35.09 136.91 35.12 136.77 35.15 136.63 35.18 136.49 35.21 136.36 35.24 136.22 35.27 136.08 35.3 135.94 35.33 135.8 35.36 135.66 35.39 135.53 35.42 135.39 35.45 135.25 35.48 135.11 35.51 134.97 35.54 134.83 35.58 134.7 35.61 134.56 35.64 134.42 35.67 134.28 35.7 134.14 35.73 134 35.76 133.87 35.79 133.73 35.82 133.59 35.85 133.45 35.88 133.31 35.91 133.18 35.94 133.04 35.97 132.9 36 132.76 36.03 132.62 36.06 132.48 36.09 132.35 36.12 132.21 36.15 132.07 36.18 131.93 36.21 131.79 36.24 131.65 36.28 131.52 36.31 131.38 36.34 131.24 36.37 131.1 36.4 130.96 36.43 130.82 36.46 130.69 36.49 130.55 36.52 130.41 36.55 130.27 36.58 130.13 36.61 130 36.64 129.86 36.67 129.72 36.7 129.58 36.73 129.44 36.76 129.3 36.79 129.17 36.82 129.03 36.85 128.89 36.88 128.75 36.91 128.61 36.94 128.47 36.98 128.34 37.01 128.2 37.04 128.06 37.07 127.92 37.1 127.78 37.13 127.64 37.16 127.51 37.19 127.37 37.22 127.23 37.25 127.09 37.28 126.95 37.31 126.82 37.34 126.68 37.37 126.54 37.4 126.4 37.43 126.26 37.46 126.12 37.49 125.99 37.52 125.85 37.55 125.71 37.58 125.57 37.61 125.43 37.64 125.29 37.67 125.16 37.71 125.02 37.74 124.88 37.77 124.74 37.8 124.6 37.83 124.46 37.86 124.33 37.89 124.19 37.92 124.05 37.95 123.91 37.98 123.77 38.01 123.64 38.04 123.5 38.07 123.36 38.1 123.22 38.13 123.1 38.16 123.08 38.16 122.94 38.19 122.81 38.22 122.67 38.25 122.53 38.28 122.39 38.31 122.25 38.34 122.11 38.37 121.98 38.41 121.84 38.44 121.7 38.47 121.56 38.5 121.42 38.53 121.28 38.56 121.15 38.59 121.01 38.62 120.87 38.65 120.73 38.68 120.59 38.71 120.45 38.74 120.32 38.77 120.18 38.8 120.04 38.83 119.9 38.86 119.76 38.89 119.63 38.92 119.49 38.95 119.35 38.98 119.21 39.01 119.07 39.04 118.93 39.07 118.8 39.11 118.66 39.14 118.52 39.17 118.38 39.2 118.24 39.23 118.1 39.26 117.97 39.29 117.83 39.32 117.69 39.35 117.55 39.38 117.41 39.41 117.27 39.44 117.14 39.47 117 39.5 116.86 39.53 116.72 39.56 116.58 39.59 116.45 39.62 116.31 39.65 116.17 39.68 116.03 39.71 115.89 39.74 115.75 39.77 115.62 39.8 115.48 39.84 115.34 39.87 115.2 39.9 115.06 39.93 114.92 39.96 114.79 39.99 114.65 40.02 114.51 40.05 114.37 40.08 114.23 40.11 114.09 40.14 113.96 40.17 113.82 40.2 113.68 40.23 113.54 40.26 113.4 40.29 113.27 40.32 113.13 40.35 112.99 40.38 112.85 40.41 112.71 40.44 112.57 40.47 112.44 40.5 112.3 40.54 112.16 40.57 112.02 40.6 111.88 40.63 111.74 40.66 111.61 40.69 111.47 40.72 111.33 40.75 111.19 40.78 111.05 40.81 110.91 40.84 110.78 40.87 110.64 40.9 110.5 40.93 110.36 40.96 110.22 40.99 110.09 41.02 109.95 41.05 109.81 41.08 109.67 41.11 109.53 41.14 109.39 41.17 109.26 41.2 109.12 41.24 108.98 41.27 108.84 41.3 108.7 41.33 108.56 41.36 108.43 41.39 108.29 41.42 108.15 41.45 108.01 41.48 107.87 41.51 107.73 41.54 107.6 41.57 107.46 41.6 107.32 41.63 107.18 41.66 107.04 41.69 106.91 41.72 106.77 41.75 106.63 41.78 106.49 41.81 106.35 41.84 106.21 41.87 106.08 41.9 105.94 41.94 105.8 41.97 105.66 42 105.52 42.03 105.38 42.06 105.25 42.09 105.11 42.12 104.97 42.15 104.83 42.18 104.69 42.21 104.55 42.24 104.42 42.27 104.28 42.3 104.14 42.33 104 42.36 103.86 42.39 103.73 42.42 103.59 42.45 103.45 42.48 103.31 42.51 103.17 42.54 103.03 42.57 102.9 42.6 102.76 42.63 102.62 42.67 102.48 42.7 102.34 42.73 102.2 42.76 102.07 42.79 101.93 42.82 101.79 42.85 101.65 42.88 101.51 42.91 101.37 42.94 101.24 42.97 101.1 43 100.96 43.03 100.82 43.06 100.68 43.09 100.55 43.12 100.41 43.15 100.27 43.18 100.13 43.21 99.99 43.24 99.85 43.27 99.72 43.3 99.58 43.33 99.44 43.37 99.3 43.4 99.16 43.43 99.02 43.46 98.89 43.49 98.75 43.52 98.61 43.55 98.47 43.58 98.33 43.61 98.19 43.64 98.06 43.67 97.92 43.7 97.78 43.73 97.64 43.76 97.5 43.79 97.37 43.82 97.23 43.85 97.09 43.88 96.95 43.91 96.81 43.94 96.67 43.97 96.54 44 96.4 44.03 96.26 44.07 96.12 44.1 95.98 44.13 95.84 44.16 95.71 44.19 95.57 44.22 95.43 44.25 95.37 44.26 95.29 44.28 95.15 44.31 95.01 44.34 94.88 44.37 94.74 44.4 94.6 44.43 94.46 44.46 94.32 44.49 94.19 44.52 94.05 44.55 93.91 44.58 93.77 44.61 93.63 44.64 93.49 44.67 93.36 44.7 93.22 44.73 93.08 44.76 92.94 44.8 92.8 44.83 92.66 44.86 92.53 44.89 92.39 44.92 92.25 44.95 92.11 44.98 91.97 45.01 91.83 45.04 91.7 45.07 91.56 45.1 91.42 45.13 91.28 45.16 91.14 45.19 91 45.22 90.87 45.25 90.73 45.28 90.59 45.31 90.45 45.34 90.31 45.37 90.18 45.4 90.04 45.43 89.9 45.46 89.76 45.5 89.62 45.53 89.48 45.56 89.35 45.59 89.21 45.62 89.07 45.65 88.93 45.68 88.79 45.71 88.65 45.74 88.52 45.77 88.38 45.8 88.24 45.83 88.1 45.86 87.96 45.89 87.82 45.92 87.69 45.95 87.55 45.98 87.41 46.01 87.27 46.04 87.13 46.07 87 46.1 86.86 46.13 86.72 46.16 86.58 46.19 86.44 46.23 86.3 46.26 86.17 46.29 86.03 46.32 85.89 46.35 85.75 46.38 85.61 46.41 85.47 46.44 85.34 46.47 85.2 46.5 85.06 46.53 84.92 46.56 84.78 46.59 84.64 46.62 84.51 46.65 84.37 46.68 84.23 46.71 84.09 46.74 83.95 46.77 83.82 46.8 83.68 46.83 83.54 46.86 83.4 46.89 83.26 46.92 83.12 46.96 82.99 46.99 82.85 47.02 82.71 47.05 82.57 47.08 82.43 47.11 82.29 47.14 82.16 47.17 82.02 47.2 81.88 47.23 81.74 47.26 81.6 47.29 81.46 47.32 81.33 47.35 81.19 47.38 81.05 47.41 80.91 47.44 80.77 47.47 80.64 47.5 80.5 47.53 80.36 47.56 80.22 47.59 80.08 47.62 79.94 47.65 79.81 47.68 79.67 47.71 79.53 47.75 79.39 47.78 79.25 47.81 79.11 47.84 78.98 47.87 78.84 47.9 78.7 47.93 78.56 47.96 78.42 47.99 78.28 48.02 78.15 48.05 78.01 48.08 77.87 48.11 77.73 48.14 77.59 48.17 77.46 48.2 77.32 48.23 77.18 48.26 77.04 48.29 76.9 48.32 76.76 48.35 76.63 48.38 76.49 48.41 76.35 48.44 76.21 48.47 76.07 48.5 75.93 48.53 75.8 48.56 75.66 48.59 75.52 48.62 75.38 48.65 75.24 48.68 75.1 48.71 74.97 48.74 74.83 48.77 74.69 48.8 74.55 48.83 74.41 48.86 74.28 48.89 74.14 48.92 74 48.95 73.86 48.98 73.72 49.01 73.58 49.04 73.45 49.07 73.31 49.1 73.17 49.13 73.03 49.16 72.89 49.19 72.75 49.22 72.62 49.25 72.48 49.28 72.34 49.31 72.2 49.34 72.06 49.37 71.92 49.4 71.79 49.43 71.65 49.46 71.51 49.49 71.37 49.52 71.23 49.55 71.1 49.58 70.96 49.61 70.82 49.64 70.68 49.67 70.54 49.7 70.4 49.72 70.27 49.75 70.13 49.78 69.99 49.81 69.85 49.84 69.71 49.87 69.57 49.9 69.44 49.93 69.3 49.96 69.16 49.98 69.02 50.01 68.88 50.04 68.74 50.07 68.61 50.1 68.47 50.13 68.33 50.15 68.19 50.18 68.05 50.21 67.92 50.24 67.78 50.27 67.74 50.27 67.64 50.29 67.5 50.32 67.36 50.35 67.22 50.37 67.09 50.4 66.95 50.43 66.81 50.46 66.67 50.48 66.53 50.51 66.39 50.53 66.26 50.56 66.12 50.59 65.98 50.61 65.84 50.64 65.7 50.66 65.56 50.69 65.43 50.71 65.29 50.74 65.15 50.76 65.01 50.79 64.87 50.81 64.73 50.84 64.6 50.86 64.46 50.88 64.32 50.91 64.18 50.93 64.04 50.95 63.91 50.98 63.77 51 63.63 51.02 63.49 51.04 63.35 51.06 63.21 51.09 63.08 51.11 62.94 51.13 62.8 51.15 62.66 51.17 62.52 51.19 62.38 51.21 62.25 51.23 62.11 51.25 61.97 51.27 61.83 51.28 61.69 51.3 61.55 51.32 61.42 51.34 61.28 51.35 61.14 51.37 61 51.39 60.86 51.4 60.73 51.42 60.59 51.43 60.45 51.45 60.31 51.46 60.17 51.48 60.03 51.49 59.9 51.51 59.76 51.52 59.62 51.53 59.48 51.55 59.34 51.56 59.2 51.57 59.07 51.58 58.93 51.59 58.79 51.6 58.65 51.62 58.51 51.63 58.37 51.64 58.24 51.65 58.1 51.66 57.96 51.67 57.82 51.67 57.68 51.68 57.55 51.69 57.41 51.7 57.27 51.71 57.13 51.72 56.99 51.72 56.85 51.73 56.72 51.74 56.58 51.74 56.44 51.75 56.3 51.76 56.16 51.76 56.02 51.77 55.89 51.78 55.75 51.78 55.61 51.79 55.47 51.79 55.33 51.8 55.19 51.8 55.06 51.81 54.92 51.81 54.78 51.81 54.64 51.82 54.5 51.82 54.37 51.83 54.23 51.83 54.09 51.83 53.95 51.84 53.81 51.84 53.67 51.84 53.54 51.85 53.4 51.85 53.26 51.85 53.12 51.86 52.98 51.86 52.84 51.86 52.71 51.86 52.57 51.86 52.43 51.87 52.29 51.87 52.15 51.87 52.01 51.87 51.88 51.88 51.74 51.88 51.6 51.88 51.46 51.88 51.32 51.88 51.19 51.88 51.05 51.88 50.91 51.89 50.77 51.89 50.63 51.89 50.49 51.89 50.36 51.89 50.22 51.89 50.08 51.89 49.94 51.89 49.8 51.9 49.66 51.9 49.53 51.9 49.39 51.9 49.25 51.9 49.11 51.9 48.97 51.9 48.83 51.9 48.7 51.9 48.56 51.9 48.42 51.9 48.28 51.9 48.14 51.9 48.01 51.91 47.87 51.91 47.73 51.91 47.59 51.91 47.45 51.91 47.31 51.91 47.18 51.91 47.04 51.91 46.9 51.91 46.76 51.91 46.62 51.91 46.48 51.91 46.35 51.91 46.21 51.91 46.07 51.91 45.93 51.91 45.79 51.91 45.65 51.91 45.52 51.91 45.38 51.91 45.24 51.91 45.1 51.91 44.96 51.91 44.83 51.91 44.69 51.91 44.55 51.91 44.41 51.91 44.27 51.91 44.13 51.91 44 51.91 43.86 51.91 43.72 51.91 43.58 51.92 43.44 51.92 43.3 51.92 43.17 51.92 43.03 51.92 42.89 51.92 42.75 51.92 42.61 51.92 42.47 51.92 42.34 51.92 42.2 51.92 42.06 51.92 41.92 51.92 41.78 51.92 41.65 51.92 41.51 51.92 41.37 51.92 41.23 51.92 41.09 51.92 40.95 51.92 40.82 51.92 40.68 51.92 40.54 51.92 40.4 51.92 40.26 51.92 40.12 51.92 40.11 51.92 39.99 51.92 39.85 51.92 39.71 51.92 39.57 51.92 39.43 51.92 39.29 51.92 39.16 51.92 39.02 51.92 38.88 51.92 38.74 51.92 38.6 51.92 38.47 51.92 38.33 51.92 38.19 51.92 38.05 51.92 37.91 51.92 37.77 51.92 37.64 51.92 37.5 51.92 37.36 51.92 37.22 51.92 37.08 51.92 36.94 51.92 36.81 51.92 36.67 51.92 36.53 51.92 36.39 51.92 36.25 51.92 36.11 51.92 35.98 51.92 35.84 51.92 35.7 51.92 35.56 51.92 35.42 51.92 35.28 51.92 35.15 51.92 35.01 51.92 34.87 51.92 34.73 51.92 34.59 51.92 34.46 51.92 34.32 51.92 34.18 51.92 34.04 51.92 33.9 51.92 33.76 51.92 33.63 51.92 33.49 51.92 33.35 51.92 33.21 51.92 33.07 51.92 32.93 51.92 32.8 51.92 32.66 51.92 32.52 51.92 32.38 51.92 32.24 51.92 32.1 51.92 31.97 51.92 31.83 51.92 31.69 51.92 31.55 51.92 31.41 51.92 31.28 51.92 31.14 51.92 31 51.92 30.86 51.92 30.72 51.92 30.58 51.92 30.45 51.92 30.31 51.92 30.17 51.92 30.03 51.92 29.89 51.92 29.75 51.92 29.62 51.92 29.48 51.92 29.34 51.92 29.2 51.92 29.06 51.92 28.92 51.92 28.79 51.92 28.65 51.92 28.51 51.92 28.37 51.92 28.23 51.92 28.1 51.92 27.96 51.92 27.82 51.92 27.68 51.92 27.54 51.92 27.4 51.92 27.27 51.92 27.13 51.92 26.99 51.92 26.85 51.92 26.71 51.92 26.57 51.92 26.44 51.92 26.3 51.92 26.16 51.92 26.02 51.92 25.88 51.92 25.74 51.92 25.61 51.92 25.47 51.92 25.33 51.92 25.19 51.92 25.05 51.92 24.92 51.92 24.78 51.92 24.64 51.92 24.5 51.92 24.36 51.92 24.22 51.92 24.09 51.92 23.95 51.92 23.81 51.92 23.67 51.92 23.53 51.92 23.39 51.92 23.26 51.92 23.12 51.92 22.98 51.92 22.84 51.92 22.7 51.92 22.56 51.92 22.43 51.92 22.29 51.92 22.15 51.92 22.01 51.92 21.87 51.92 21.74 51.92 21.6 51.92 21.46 51.92 21.32 51.92 21.18 51.92 21.04 51.92 20.91 51.92 20.77 51.92 20.63 51.92 20.49 51.92 20.35 51.92 20.21 51.92 20.08 51.92 19.94 51.92 19.8 51.92 19.66 51.92 19.52 51.92 19.38 51.92 19.25 51.92 19.11 51.92 18.97 51.92 18.83 51.92 18.69 51.92 18.56 51.92 18.42 51.92 18.28 51.92 18.14 51.92 18 51.92 17.86 51.92 17.73 51.92 17.59 51.92 17.45 51.92 17.31 51.92 17.17 51.92 17.03 51.92 16.9 51.92 16.76 51.92 16.62 51.92 16.48 51.92 16.34 51.92 16.2 51.92 16.07 51.92 15.93 51.92 15.79 51.92 15.65 51.92 15.51 51.92 15.38 51.92 15.24 51.92 15.1 51.92 14.96 51.92 14.82 51.92 14.68 51.92 14.55 51.92 14.41 51.92 14.27 51.92 14.13 51.92 13.99 51.92 13.85 51.92 13.72 51.92 13.58 51.92 13.44 51.92 13.3 51.92 13.16 51.92 13.02 51.92 12.89 51.92 12.75 51.92 12.61 51.92 12.47 51.92"/>
      <polyline class="w" points="154.91 31.16 150.73 32.08 150.73 32.08 150.6 32.11 150.46 32.14 150.32 32.17 150.18 32.2 150.04 32.23 149.9 32.26 149.77 32.29 149.63 32.32 149.49 32.35 149.35 32.38 149.21 32.41 149.08 32.44 148.94 32.47 148.8 32.5 148.66 32.53 148.52 32.56 148.38 32.59 148.25 32.62 148.11 32.65 147.97 32.68 147.83 32.71 147.69 32.75 147.55 32.78 147.42 32.81 147.28 32.84 147.14 32.87 147 32.9 146.86 32.93 146.72 32.96 146.59 32.99 146.45 33.02 146.31 33.05 146.17 33.08 146.03 33.11 145.9 33.14 145.76 33.17 145.62 33.2 145.48 33.23 145.34 33.26 145.2 33.29 145.07 33.32 144.93 33.35 144.79 33.38 144.65 33.41 144.51 33.45 144.37 33.48 144.24 33.51 144.1 33.54 143.96 33.57 143.82 33.6 143.68 33.63 143.54 33.66 143.41 33.69 143.27 33.72 143.13 33.75 142.99 33.78 142.85 33.81 142.72 33.84 142.58 33.87 142.44 33.9 142.3 33.93 142.16 33.96 142.02 33.99 141.89 34.02 141.75 34.05 141.61 34.08 141.47 34.11 141.33 34.15 141.19 34.18 141.06 34.21 140.92 34.24 140.78 34.27 140.64 34.3 140.5 34.33 140.36 34.36 140.23 34.39 140.09 34.42 139.95 34.45 139.81 34.48 139.67 34.51 139.54 34.54 139.4 34.57 139.26 34.6 139.12 34.63 138.98 34.66 138.84 34.69 138.71 34.72 138.57 34.75 138.43 34.78 138.29 34.81 138.15 34.84 138.01 34.88 137.88 34.91 137.74 34.94 137.6 34.97 137.46 35 137.32 35.03 137.18 35.06 137.05 35.09 136.91 35.12 136.77 35.15 136.63 35.18 136.49 35.21 136.36 35.24 136.22 35.27 136.08 35.3 135.94 35.33 135.8 35.36 135.66 35.39 135.53 35.42 135.39 35.45 135.25 35.48 135.11 35.51 134.97 35.54 134.83 35.58 134.7 35.61 134.56 35.64 134.42 35.67 134.28 35.7 134.14 35.73 134 35.76 133.87 35.79 133.73 35.82 133.59 35.85 133.45 35.88 133.31 35.91 133.18 35.94 133.04 35.97 132.9 36 132.76 36.03 132.62 36.06 132.48 36.09 132.35 36.12 132.21 36.15 132.07 36.18 131.93 36.21 131.79 36.24 131.65 36.28 131.52 36.31 131.38 36.34 131.24 36.37 131.1 36.4 130.96 36.43 130.82 36.46 130.69 36.49 130.55 36.52 130.41 36.55 130.27 36.58 130.13 36.61 130 36.64 129.86 36.67 129.72 36.7 129.58 36.73 129.44 36.76 129.3 36.79 129.17 36.82 129.03 36.85 128.89 36.88 128.75 36.91 128.61 36.94 128.47 36.98 128.34 37.01 128.2 37.04 128.06 37.07 127.92 37.1 127.78 37.13 127.64 37.16 127.51 37.19 127.37 37.22 127.23 37.25 127.09 37.28 126.95 37.31 126.82 37.34 126.68 37.37 126.54 37.4 126.4 37.43 126.26 37.46 126.12 37.49 125.99 37.52 125.85 37.55 125.71 37.58 125.57 37.61 125.43 37.64 125.29 37.67 125.16 37.71 125.02 37.74 124.88 37.77 124.74 37.8 124.6 37.83 124.46 37.86 124.33 37.89 124.19 37.92 124.05 37.95 123.91 37.98 123.77 38.01 123.64 38.04 123.5 38.07 123.36 38.1 123.22 38.13 123.1 38.16 123.08 38.16 122.94 38.19 122.81 38.22 122.67 38.25 122.53 38.28 122.39 38.31 122.25 38.34 122.11 38.37 121.98 38.41 121.84 38.44 121.7 38.47 121.56 38.5 121.42 38.53 121.28 38.56 121.15 38.59 121.01 38.62 120.87 38.65 120.73 38.68 120.59 38.71 120.45 38.74 120.32 38.77 120.18 38.8 120.04 38.83 119.9 38.86 119.76 38.89 119.63 38.92 119.49 38.95 119.35 38.98 119.21 39.01 119.07 39.04 118.93 39.07 118.8 39.11 118.66 39.14 118.52 39.17 118.38 39.2 118.24 39.23 118.1 39.26 117.97 39.29 117.83 39.32 117.69 39.35 117.55 39.38 117.41 39.41 117.27 39.44 117.14 39.47 117 39.5 116.86 39.53 116.72 39.56 116.58 39.59 116.45 39.62 116.31 39.65 116.17 39.68 116.03 39.71 115.89 39.74 115.75 39.77 115.62 39.8 115.48 39.84 115.34 39.87 115.2 39.9 115.06 39.93 114.92 39.96 114.79 39.99 114.65 40.02 114.51 40.05 114.37 40.08 114.23 40.11 114.09 40.14 113.96 40.17 113.82 40.2 113.68 40.23 113.54 40.26 113.4 40.29 113.27 40.32 113.13 40.35 112.99 40.38 112.85 40.41 112.71 40.44 112.57 40.47 112.44 40.5 112.3 40.54 112.16 40.57 112.02 40.6 111.88 40.63 111.74 40.66 111.61 40.69 111.47 40.72 111.33 40.75 111.19 40.78 111.05 40.81 110.91 40.84 110.78 40.87 110.64 40.9 110.5 40.93 110.36 40.96 110.22 40.99 110.09 41.02 109.95 41.05 109.81 41.08 109.67 41.11 109.53 41.14 109.39 41.17 109.26 41.2 109.12 41.24 108.98 41.27 108.84 41.3 108.7 41.33 108.56 41.36 108.43 41.39 108.29 41.42 108.15 41.45 108.01 41.48 107.87 41.51 107.73 41.54 107.6 41.57 107.46 41.6 107.32 41.63 107.18 41.66 107.04 41.69 106.91 41.72 106.77 41.75 106.63 41.78 106.49 41.81 106.35 41.84 106.21 41.87 106.08 41.9 105.94 41.94 105.8 41.97 105.66 42 105.52 42.03 105.38 42.06 105.25 42.09 105.11 42.12 104.97 42.15 104.83 42.18 104.69 42.21 104.55 42.24 104.42 42.27 104.28 42.3 104.14 42.33 104 42.36 103.86 42.39 103.73 42.42 103.59 42.45 103.45 42.48 103.31 42.51 103.17 42.54 103.03 42.57 102.9 42.6 102.76 42.63 102.62 42.67 102.48 42.7 102.34 42.73 102.2 42.76 102.07 42.79 101.93 42.82 101.79 42.85 101.65 42.88 101.51 42.91 101.37 42.94 101.24 42.97 101.1 43 100.96 43.03 100.82 43.06 100.68 43.09 100.55 43.12 100.41 43.15 100.27 43.18 100.13 43.21 99.99 43.24 99.85 43.27 99.72 43.3 99.58 43.33 99.44 43.37 99.3 43.4 99.16 43.43 99.02 43.46 98.89 43.49 98.75 43.52 98.61 43.55 98.47 43.58 98.33 43.61 98.19 43.64 98.06 43.67 97.92 43.7 97.78 43.73 97.64 43.76 97.5 43.79 97.37 43.82 97.23 43.85 97.09 43.88 96.95 43.91 96.81 43.94 96.67 43.97 96.54 44 96.4 44.03 96.26 44.07 96.12 44.1 95.98 44.13 95.84 44.16 95.71 44.19 95.57 44.22 95.43 44.25 95.37 44.26 95.29 44.28 95.15 44.31 95.01 44.34 94.88 44.37 94.74 44.4 94.6 44.43 94.46 44.46 94.32 44.49 94.19 44.52 94.05 44.55 93.91 44.58 93.77 44.61 93.63 44.64 93.49 44.67 93.36 44.7 93.22 44.73 93.08 44.76 92.94 44.8 92.8 44.83 92.66 44.86 92.53 44.89 92.39 44.92 92.25 44.95 92.11 44.98 91.97 45.01 91.83 45.04 91.7 45.07 91.56 45.1 91.42 45.13 91.28 45.16 91.14 45.19 91 45.22 90.87 45.25 90.73 45.28 90.59 45.31 90.45 45.34 90.31 45.37 90.18 45.4 90.04 45.43 89.9 45.46 89.76 45.5 89.62 45.53 89.48 45.56 89.35 45.59 89.21 45.62 89.07 45.65 88.93 45.68 88.79 45.71 88.65 45.74 88.52 45.77 88.38 45.8 88.24 45.83 88.1 45.86 87.96 45.89 87.82 45.92 87.69 45.95 87.55 45.98 87.41 46.01 87.27 46.04 87.13 46.07 87 46.1 86.86 46.13 86.72 46.16 86.58 46.19 86.44 46.23 86.3 46.26 86.17 46.29 86.03 46.32 85.89 46.35 85.75 46.38 85.61 46.41 85.47 46.44 85.34 46.47 85.2 46.5 85.06 46.53 84.92 46.56 84.78 46.59 84.64 46.62 84.51 46.65 84.37 46.68 84.23 46.71 84.09 46.74 83.95 46.77 83.82 46.8 83.68 46.83 83.54 46.86 83.4 46.89 83.26 46.92 83.12 46.96 82.99 46.99 82.85 47.02 82.71 47.05 82.57 47.08 82.43 47.11 82.29 47.14 82.16 47.17 82.02 47.2 81.88 47.23 81.74 47.26 81.6 47.29 81.46 47.32 81.33 47.35 81.19 47.38 81.05 47.41 80.91 47.44 80.77 47.47 80.64 47.5 80.5 47.53 80.36 47.56 80.22 47.59 80.08 47.62 79.94 47.65 79.81 47.68 79.67 47.71 79.53 47.75 79.39 47.78 79.25 47.81 79.11 47.84 78.98 47.87 78.84 47.9 78.7 47.93 78.56 47.96 78.42 47.99 78.28 48.02 78.15 48.05 78.01 48.08 77.87 48.11 77.73 48.14 77.59 48.17 77.46 48.2 77.32 48.23 77.18 48.26 77.04 48.29 76.9 48.32 76.76 48.35 76.63 48.38 76.49 48.41 76.35 48.44 76.21 48.47 76.07 48.5 75.93 48.53 75.8 48.56 75.66 48.59 75.52 48.62 75.38 48.65 75.24 48.68 75.1 48.71 74.97 48.74 74.83 48.77 74.69 48.8 74.55 48.83 74.41 48.86 74.28 48.89 74.14 48.92 74 48.95 73.86 48.98 73.72 49.01 73.58 49.04 73.45 49.07 73.31 49.1 73.17 49.13 73.03 49.16 72.89 49.19 72.75 49.22 72.62 49.25 72.48 49.28 72.34 49.31 72.2 49.34 72.06 49.37 71.92 49.4 71.79 49.43 71.65 49.46 71.51 49.49 71.37 49.52 71.23 49.55 71.1 49.58 70.96 49.61 70.82 49.64 70.68 49.67 70.54 49.7 70.4 49.72 70.27 49.75 70.13 49.78 69.99 49.81 69.85 49.84 69.71 49.87 69.57 49.9 69.44 49.93 69.3 49.96 69.16 49.98 69.02 50.01 68.88 50.04 68.74 50.07 68.61 50.1 68.47 50.13 68.33 50.15 68.19 50.18 68.05 50.21 67.92 50.24 67.78 50.27 67.74 50.27 67.64 50.29 67.5 50.32 67.36 50.35 67.22 50.37 67.09 50.4 66.95 50.43 66.81 50.46 66.67 50.48 66.53 50.51 66.39 50.53 66.26 50.56 66.12 50.59 65.98 50.61 65.84 50.64 65.7 50.66 65.56 50.69 65.43 50.71 65.29 50.74 65.15 50.76 65.01 50.79 64.87 50.81 64.73 50.84 64.6 50.86 64.46 50.88 64.32 50.91 64.18 50.93 64.04 50.95 63.91 50.98 63.77 51 63.63 51.02 63.49 51.04 63.35 51.06 63.21 51.09 63.08 51.11 62.94 51.13 62.8 51.15 62.66 51.17 62.52 51.19 62.38 51.21 62.25 51.23 62.11 51.25 61.97 51.27 61.83 51.28 61.69 51.3 61.55 51.32 61.42 51.34 61.28 51.35 61.14 51.37 61 51.39 60.86 51.4 60.73 51.42 60.59 51.43 60.45 51.45 60.31 51.46 60.17 51.48 60.03 51.49 59.9 51.51 59.76 51.52 59.62 51.53 59.48 51.55 59.34 51.56 59.2 51.57 59.07 51.58 58.93 51.59 58.79 51.6 58.65 51.62 58.51 51.63 58.37 51.64 58.24 51.65 58.1 51.66 57.96 51.67 57.82 51.67 57.68 51.68 57.55 51.69 57.41 51.7 57.27 51.71 57.13 51.72 56.99 51.72 56.85 51.73 56.72 51.74 56.58 51.74 56.44 51.75 56.3 51.76 56.16 51.76 56.02 51.77 55.89 51.78 55.75 51.78 55.61 51.79 55.47 51.79 55.33 51.8 55.19 51.8 55.06 51.81 54.92 51.81 54.78 51.81 54.64 51.82 54.5 51.82 54.37 51.83 54.23 51.83 54.09 51.83 53.95 51.84 53.81 51.84 53.67 51.84 53.54 51.85 53.4 51.85 53.26 51.85 53.12 51.86 52.98 51.86 52.84 51.86 52.71 51.86 52.57 51.86 52.43 51.87 52.29 51.87 52.15 51.87 52.01 51.87 51.88 51.88 51.74 51.88 51.6 51.88 51.46 51.88 51.32 51.88 51.19 51.88 51.05 51.88 50.91 51.89 50.77 51.89 50.63 51.89 50.49 51.89 50.36 51.89 50.22 51.89 50.08 51.89 49.94 51.89 49.8 51.9 49.66 51.9 49.53 51.9 49.39 51.9 49.25 51.9 49.11 51.9 48.97 51.9 48.83 51.9 48.7 51.9 48.56 51.9 48.42 51.9 48.28 51.9 48.14 51.9 48.01 51.91 47.87 51.91 47.73 51.91 47.59 51.91 47.45 51.91 47.31 51.91 47.18 51.91 47.04 51.91 46.9 51.91 46.76 51.91 46.62 51.91 46.48 51.91 46.35 51.91 46.21 51.91 46.07 51.91 45.93 51.91 45.79 51.91 45.65 51.91 45.52 51.91 45.38 51.91 45.24 51.91 45.1 51.91 44.96 51.91 44.83 51.91 44.69 51.91 44.55 51.91 44.41 51.91 44.27 51.91 44.13 51.91 44 51.91 43.86 51.91 43.72 51.91 43.58 51.92 43.44 51.92 43.3 51.92 43.17 51.92 43.03 51.92 42.89 51.92 42.75 51.92 42.61 51.92 42.47 51.92 42.34 51.92 42.2 51.92 42.06 51.92 41.92 51.92 41.78 51.92 41.65 51.92 41.51 51.92 41.37 51.92 41.23 51.92 41.09 51.92 40.95 51.92 40.82 51.92 40.68 51.92 40.54 51.92 40.4 51.92 40.26 51.92 40.12 51.92 40.11 51.92 39.99 51.92 39.85 51.92 39.71 51.92 39.57 51.92 39.43 51.92 39.29 51.92 39.16 51.92 39.02 51.92 38.88 51.92 38.74 51.92 38.6 51.92 38.47 51.92 38.33 51.92 38.19 51.92 38.05 51.92 37.91 51.92 37.77 51.92 37.64 51.92 37.5 51.92 37.36 51.92 37.22 51.92 37.08 51.92 36.94 51.92 36.81 51.92 36.67 51.92 36.53 51.92 36.39 51.92 36.25 51.92 36.11 51.92 35.98 51.92 35.84 51.92 35.7 51.92 35.56 51.92 35.42 51.92 35.28 51.92 35.15 51.92 35.01 51.92 34.87 51.92 34.73 51.92 34.59 51.92 34.46 51.92 34.32 51.92 34.18 51.92 34.04 51.92 33.9 51.92 33.76 51.92 33.63 51.92 33.49 51.92 33.35 51.92 33.21 51.92 33.07 51.92 32.93 51.92 32.8 51.92 32.66 51.92 32.52 51.92 32.38 51.92 32.24 51.92 32.1 51.92 31.97 51.92 31.83 51.92 31.69 51.92 31.55 51.92 31.41 51.92 31.28 51.92 31.14 51.92 31 51.92 30.86 51.92 30.72 51.92 30.58 51.92 30.45 51.92 30.31 51.92 30.17 51.92 30.03 51.92 29.89 51.92 29.75 51.92 29.62 51.92 29.48 51.92 29.34 51.92 29.2 51.92 29.06 51.92 28.92 51.92 28.79 51.92 28.65 51.92 28.51 51.92 28.37 51.92 28.23 51.92 28.1 51.92 27.96 51.92 27.82 51.92 27.68 51.92 27.54 51.92 27.4 51.92 27.27 51.92 27.13 51.92 26.99 51.92 26.85 51.92 26.71 51.92 26.57 51.92 26.44 51.92 26.3 51.92 26.16 51.92 26.02 51.92 25.88 51.92 25.74 51.92 25.61 51.92 25.47 51.92 25.33 51.92 25.19 51.92 25.05 51.92 24.92 51.92 24.78 51.92 24.64 51.92 24.5 51.92 24.36 51.92 24.22 51.92 24.09 51.92 23.95 51.92 23.81 51.92 23.67 51.92 23.53 51.92 23.39 51.92 23.26 51.92 23.12 51.92 22.98 51.92 22.84 51.92 22.7 51.92 22.56 51.92 22.43 51.92 22.29 51.92 22.15 51.92 22.01 51.92 21.87 51.92 21.74 51.92 21.6 51.92 21.46 51.92 21.32 51.92 21.18 51.92 21.04 51.92 20.91 51.92 20.77 51.92 20.63 51.92 20.49 51.92 20.35 51.92 20.21 51.92 20.08 51.92 19.94 51.92 19.8 51.92 19.66 51.92 19.52 51.92 19.38 51.92 19.25 51.92 19.11 51.92 18.97 51.92 18.83 51.92 18.69 51.92 18.56 51.92 18.42 51.92 18.28 51.92 18.14 51.92 18 51.92 17.86 51.92 17.73 51.92 17.59 51.92 17.45 51.92 17.31 51.92 17.17 51.92 17.03 51.92 16.9 51.92 16.76 51.92 16.62 51.92 16.48 51.92 16.34 51.92 16.2 51.92 16.07 51.92 15.93 51.92 15.79 51.92 15.65 51.92 15.51 51.92 15.38 51.92 15.24 51.92 15.1 51.92 14.96 51.92 14.82 51.92 14.68 51.92 14.55 51.92 14.41 51.92 14.27 51.92 14.13 51.92 13.99 51.92 13.85 51.92 13.72 51.92 13.58 51.92 13.44 51.92 13.3 51.92 13.16 51.92 13.02 51.92 12.89 51.92 12.75 51.92 12.61 51.92 12.47 51.92"/>
    </g>
  </g>
  <g id="n" data-name="Means">
    <g id="q" data-name="Ebene 6">
      <g>
        <line class="v" x1="12.47" y1="53.31" x2="12.47" y2="56.7"/>
        <line class="v" x1="12.47" y1="53.31" x2="12.47" y2="49.91"/>
        <line class="v" x1="10.93" y1="56.7" x2="14.02" y2="56.7"/>
        <line class="v" x1="10.93" y1="49.91" x2="14.02" y2="49.91"/>
      </g>
      <g>
        <line class="v" x1="40.11" y1="50.07" x2="40.11" y2="54.32"/>
        <line class="v" x1="40.11" y1="50.07" x2="40.11" y2="45.82"/>
        <line class="v" x1="38.56" y1="54.32" x2="41.65" y2="54.32"/>
        <line class="v" x1="38.56" y1="45.82" x2="41.65" y2="45.82"/>
      </g>
      <g>
        <line class="v" x1="67.74" y1="54.65" x2="67.74" y2="56.9"/>
        <line class="v" x1="67.74" y1="54.65" x2="67.74" y2="52.4"/>
        <line class="v" x1="66.19" y1="56.9" x2="69.29" y2="56.9"/>
        <line class="v" x1="66.19" y1="52.4" x2="69.29" y2="52.4"/>
      </g>
      <g>
        <line class="v" x1="123.1" y1="36.77" x2="123.1" y2="44.15"/>
        <line class="v" x1="123.1" y1="36.77" x2="123.1" y2="29.4"/>
        <line class="v" x1="121.55" y1="44.15" x2="124.65" y2="44.15"/>
        <line class="v" x1="121.55" y1="29.4" x2="124.65" y2="29.4"/>
      </g>
      <g>
        <line class="v" x1="150.73" y1="34.65" x2="150.73" y2="41.94"/>
        <line class="v" x1="150.73" y1="34.65" x2="150.73" y2="27.36"/>
        <line class="v" x1="149.19" y1="41.94" x2="152.28" y2="41.94"/>
        <line class="v" x1="149.19" y1="27.36" x2="152.28" y2="27.36"/>
      </g>
      <g>
        <line class="v" x1="95.37" y1="39.04" x2="95.37" y2="45.94"/>
        <line class="v" x1="93.83" y1="45.94" x2="96.92" y2="45.94"/>
        <line class="v" x1="95.37" y1="39.04" x2="95.37" y2="32.14"/>
        <line class="v" x1="93.83" y1="32.14" x2="96.92" y2="32.14"/>
      </g>
      <g>
        <rect class="ad" x="38.94" y="48.91" width="2.33" height="2.33" transform="translate(-23.66 43.02) rotate(-45)"/>
        <g class="z">
          <path class="aa" d="M40.11,48.42l1.64,1.64-1.64,1.64-1.64-1.64,1.64-1.64M40.11,48.07l-.18.18-1.64,1.64-.18.18.18.18,1.64,1.64.18.18.18-.18,1.64-1.64.18-.18-.18-.18-1.64-1.64-.18-.18h0Z"/>
        </g>
      </g>
      <g>
        <rect class="ad" x="94.21" y="37.88" width="2.33" height="2.33" transform="translate(.33 78.87) rotate(-45)"/>
        <g class="z">
          <path class="aa" d="M95.37,37.4l1.64,1.64-1.64,1.64-1.64-1.64,1.64-1.64M95.37,37.04l-.18.18-1.64,1.64-.18.18.18.18,1.64,1.64.18.18.18-.18,1.64-1.64.18-.18-.18-.18-1.64-1.64-.18-.18h0Z"/>
        </g>
      </g>
      <g>
        <rect class="ad" x="121.94" y="35.61" width="2.33" height="2.33" transform="translate(10.05 97.82) rotate(-45)"/>
        <g class="z">
          <path class="aa" d="M123.1,35.13l1.64,1.64-1.64,1.64-1.64-1.64,1.64-1.64M123.1,34.77l-.18.18-1.64,1.64-.18.18.18.18,1.64,1.64.18.18.18-.18,1.64-1.64.18-.18-.18-.18-1.64-1.64-.18-.18h0Z"/>
        </g>
      </g>
      <g>
        <rect class="ad" x="149.57" y="33.48" width="2.33" height="2.33" transform="translate(19.65 116.73) rotate(-45)"/>
        <g class="z">
          <path class="aa" d="M150.73,33l1.64,1.64-1.64,1.64-1.64-1.64,1.64-1.64M150.73,32.65l-.18.18-1.64,1.64-.18.18.18.18,1.64,1.64.18.18.18-.18,1.64-1.64.18-.18-.18-.18-1.64-1.64-.18-.18h0Z"/>
        </g>
      </g>
      <g>
        <rect class="ad" x="66.58" y="53.49" width="2.33" height="2.33" transform="translate(-18.8 63.91) rotate(-45)"/>
        <g class="z">
          <path class="aa" d="M67.74,53.01l1.64,1.64-1.64,1.64-1.64-1.64,1.64-1.64M67.74,52.65l-.18.18-1.64,1.64-.18.18.18.18,1.64,1.64.18.18.18-.18,1.64-1.64.18-.18-.18-.18-1.64-1.64-.18-.18h0Z"/>
        </g>
      </g>
      <g>
        <rect class="ad" x="11.31" y="52.14" width="2.33" height="2.33" transform="translate(-34.04 24.43) rotate(-45)"/>
        <g class="z">
          <path class="aa" d="M12.47,51.66l1.64,1.64-1.64,1.64-1.64-1.64,1.64-1.64M12.47,51.31l-.18.18-1.64,1.64-.18.18.18.18,1.64,1.64.18.18.18-.18,1.64-1.64.18-.18-.18-.18-1.64-1.64-.18-.18h0Z"/>
        </g>
      </g>
    </g>
  </g>
  <g id="s" data-name="Layer 19">
    <g>
      <path d="M1.68,49.71l.52.11v.72l2.13.45s.08,0,.12.01c.04,0,.08,0,.12,0,.09,0,.16-.04.19-.11.04-.07.05-.16.05-.25,0-.06,0-.12-.02-.17s-.03-.11-.05-.17l.55.11c0,.07.02.14.02.21,0,.07.01.14.01.21,0,.11,0,.22-.02.31-.02.1-.05.18-.09.26s-.1.13-.18.17-.17.07-.29.07c-.05,0-.1,0-.15-.01-.05,0-.1-.01-.15-.02l-2.25-.48v.61l-.52-.11v-.61l-1.07-.22v-.6l1.07.22v-.72Z"/>
      <path d="M.3,48.16l1.91.43h.01c-.21-.16-.37-.35-.47-.58-.1-.23-.16-.47-.16-.72,0-.34.07-.59.22-.76.15-.17.38-.25.71-.25.08,0,.18,0,.31.03s.26.04.4.08l2.06.44v.59l-2.11-.46s-.08-.01-.13-.02c-.05,0-.1-.02-.15-.03-.05,0-.1-.02-.15-.02-.05,0-.09-.01-.12-.01-.17,0-.3.06-.38.18-.08.12-.12.27-.12.45,0,.16.04.33.12.49.08.16.18.3.3.41.09.11.21.19.34.25s.27.11.42.15l2,.42v.59l-5-1.05v-.59Z"/>
      <path d="M1.68,44.6l.78.17h0c-.25-.15-.45-.33-.62-.55-.16-.22-.25-.48-.25-.78,0-.04,0-.07,0-.11,0-.03,0-.07,0-.11l.64.14s0,.05,0,.09v.08c0,.08,0,.14,0,.18,0,.05.01.11.03.18.04.16.11.31.22.44.1.13.23.24.37.33.12.08.25.14.41.19.16.05.3.08.44.11l1.6.34v.59l-3.62-.75v-.56Z"/>
      <path d="M3.99,43.01c.14,0,.26-.03.37-.08.11-.05.2-.12.27-.21s.13-.19.17-.3.06-.23.06-.35c0-.27-.06-.49-.18-.66-.12-.17-.29-.3-.51-.39v-.59c.2.05.38.12.53.22s.28.23.38.37c.1.15.18.31.23.48.05.18.08.36.08.56,0,.3-.05.55-.14.75-.09.2-.21.36-.35.47-.14.12-.3.2-.47.25-.17.05-.33.07-.49.07-.35,0-.66-.05-.95-.15-.29-.1-.53-.24-.74-.41-.21-.17-.36-.37-.48-.59-.11-.23-.17-.46-.17-.71,0-.53.14-.92.42-1.17.28-.25.67-.37,1.18-.37.09,0,.18,0,.27.02.08.01.15.03.2.04v2.72c.1.01.21.02.31.02ZM2.77,40.83c-.12.03-.23.07-.33.14-.1.07-.17.16-.23.27-.06.11-.09.25-.09.41,0,.17.03.33.08.47.05.14.13.26.22.36s.2.19.33.26c.12.07.26.13.4.17v-2.1c-.13,0-.25,0-.37.02Z"/>
      <path d="M2.28,37.64c-.1.15-.16.33-.16.54,0,.09,0,.18.02.27.01.09.04.18.07.25s.08.13.14.18c.06.05.13.07.23.07.08,0,.16-.03.22-.08.06-.05.12-.13.17-.22s.1-.19.14-.31.09-.23.14-.35c.05-.12.11-.24.17-.35s.13-.22.21-.3c.08-.09.17-.16.27-.22s.23-.08.37-.08c.2,0,.37.04.51.13.14.09.26.2.35.34.09.14.15.3.19.47s.06.35.06.53c0,.21-.02.4-.06.58-.04.18-.11.33-.2.46-.09.13-.22.23-.37.3-.16.07-.35.11-.58.11v-.59c.13,0,.24-.01.33-.06.09-.05.16-.12.22-.2.05-.09.09-.19.12-.3s.04-.23.04-.36c0-.1,0-.2-.03-.29-.02-.1-.05-.19-.09-.27-.04-.08-.1-.14-.17-.19-.07-.05-.16-.07-.26-.07-.09,0-.16.03-.23.08-.06.06-.12.13-.17.22-.05.09-.1.19-.14.3-.04.11-.09.23-.14.35-.05.12-.1.24-.15.35s-.12.22-.2.31c-.08.09-.17.16-.27.22-.1.05-.22.08-.36.08-.17,0-.32-.04-.45-.12-.13-.08-.24-.18-.33-.3s-.15-.27-.2-.43c-.05-.16-.07-.33-.07-.49s.02-.33.06-.5.1-.31.2-.44c.09-.13.21-.23.36-.31s.33-.12.54-.12v.59c-.21,0-.36.06-.47.21Z"/>
      <path d="M.3,34.93l1.91.43h.01c-.21-.16-.37-.35-.47-.58-.1-.23-.16-.47-.16-.72,0-.34.07-.59.22-.76s.38-.25.71-.25c.08,0,.18,0,.31.03.13.02.26.04.4.08l2.06.44v.6l-2.11-.46s-.08-.01-.13-.02c-.05,0-.1-.02-.15-.03-.05,0-.1-.02-.15-.02-.05,0-.09-.01-.12-.01-.17,0-.3.06-.38.18-.08.12-.12.27-.12.45,0,.16.04.33.12.49.08.16.18.3.3.41.09.11.21.19.34.25s.27.11.42.15l2,.42v.59l-5-1.05v-.59Z"/>
      <path d="M3.02,32.4c-.27-.09-.52-.22-.73-.4-.21-.18-.38-.39-.5-.64s-.19-.53-.19-.85c0-.49.13-.86.38-1.12.25-.26.63-.38,1.12-.38.29,0,.58.04.85.13.28.09.52.22.73.39.21.17.38.38.51.63.13.25.19.53.19.85,0,.24-.04.45-.11.64-.07.19-.18.35-.31.48-.13.13-.29.23-.48.3-.18.07-.39.1-.61.1-.29,0-.58-.05-.85-.14ZM4.59,31.69c.18-.17.27-.42.27-.74,0-.22-.06-.41-.17-.58-.11-.17-.25-.31-.42-.42-.17-.11-.36-.2-.56-.26-.2-.06-.39-.09-.57-.09-.14,0-.27.02-.4.06-.13.04-.23.1-.33.18-.09.08-.16.18-.22.3-.05.12-.08.26-.08.42,0,.23.06.43.17.6.11.17.25.32.42.43s.36.2.56.26c.21.06.4.09.59.09.3,0,.54-.08.72-.25Z"/>
      <path d="M.3,27.03l5,1.05v.59l-5-1.04v-.59Z"/>
      <path d="M5.3,24.46l-.52-.13h0c.23.19.39.37.47.56s.12.4.12.65c0,.23-.04.43-.11.61-.07.18-.17.33-.3.45-.13.12-.28.21-.47.27-.18.06-.38.09-.6.09-.28,0-.55-.05-.82-.14-.27-.09-.52-.22-.74-.39s-.4-.38-.54-.63-.21-.53-.21-.85c0-.11.01-.23.03-.34.02-.12.06-.23.1-.33.05-.1.11-.2.2-.28.08-.08.18-.14.3-.17h0s-1.93-.4-1.93-.4v-.59l5,1.06v.56ZM4.6,26.15c.17-.15.26-.38.26-.71,0-.22-.06-.42-.18-.6-.12-.18-.26-.33-.44-.44-.18-.12-.37-.21-.58-.27s-.41-.09-.6-.09c-.27,0-.49.08-.67.23-.18.16-.27.38-.27.68,0,.24.06.45.16.62.11.18.25.33.42.45.17.12.36.21.57.27.21.06.42.09.62.09.29,0,.53-.07.7-.22Z"/>
      <path d="M.86,18.23l4.44.94v.67l-4.44-.94v1.68l-.56-.12v-4.03l.56.13v1.68Z"/>
    </g>
  </g>
</svg>