<?xml version="1.0" encoding="UTF-8"?>
<svg id="Layer_1" xmlns="http://www.w3.org/2000/svg" version="1.1" viewBox="0 0 96 96">
  <!-- Generator: Adobe Illustrator 30.2.1, SVG Export Plug-In . SVG Version: 2.1.1 Build 1)  -->
  <defs>
    <style>
      .st0 {
        fill: #f3f9fd;
      }

      .st1 {
        fill: #f3f6fa;
      }

      .st2 {
        fill: #1b4a7d;
      }

      .st3 {
        isolation: isolate;
        opacity: .5;
      }

      .st4 {
        fill: #8fb1d8;
      }

      .st5 {
        fill: #b6cbe4;
      }

      .st6 {
        fill: #072240;
      }
    </style>
  </defs>
  <g>
    <polygon class="st2" points="73.4 .3 53.2 30.5 63.3 30.5 83.4 .3 73.4 .3"/>
    <polygon class="st1" points="63.3 .3 43.2 30.5 53.2 30.5 73.4 .3 63.3 .3"/>
    <polygon class="st4" points="53.2 .3 33.1 30.5 43.2 30.5 63.3 .3 53.2 .3"/>
  </g>
  <g class="st3">
    <polygon class="st2" points="49.9 5.3 44.9 12.9 56.6 30.5 63.3 30.5 65 28 49.9 5.3"/>
  </g>
  <g>
    <path class="st6" d="M65,35.5c0,.9-.8,1.7-1.7,1.7h-30.2c-.9,0-1.7-.8-1.7-1.7v-6.7c0-.9.8-1.7,1.7-1.7h30.2c.9,0,1.7.8,1.7,1.7v6.7ZM29.8,23.8c-.9,0-1.7.8-1.7,1.7v15.1c0,.9.8,1.7,1.7,1.7h36.9c.9,0,1.7-.8,1.7-1.7v-15.1c0-.9-.8-1.7-1.7-1.7H29.8Z"/>
    <circle class="st5" cx="48.2" cy="64.3" r="31.3"/>
    <path class="st6" d="M48.6,35.9c-16,0-28.9,13-28.9,29s1.2,9.3,3.2,13.2c-1-3.2-1.6-6.5-1.6-10,0-17,13.1-30.8,29.7-32.1-.8,0-1.6-.1-2.4-.1"/>
    <path class="st2" d="M70.4,46.4c8.2,14.3,3.9,32.7-10.2,42.2-2.9,1.9-6,3.4-9.2,4.3,4.4-.5,8.8-2.1,12.8-4.8,13.3-8.9,16.9-26.7,8-39.8-.4-.7-.9-1.3-1.4-1.9"/>
    <polygon class="st4" points="48.2 51.7 48.2 41.5 43.1 57.4 45.4 60.3 48.2 51.7"/>
    <polygon class="st6" points="51 60.3 53.4 57.4 48.2 41.5 48.2 51.7 51 60.3"/>
    <polygon class="st6" points="52.7 65.6 56.6 67.2 70.1 57.4 60 60.3 52.7 65.6"/>
    <polygon class="st2" points="60 60.3 70.1 57.4 53.4 57.4 51 60.3 60 60.3"/>
    <polygon class="st2" points="45.4 60.3 43.1 57.4 26.4 57.4 36.4 60.3 45.4 60.3"/>
    <polygon class="st6" points="36.4 60.3 26.4 57.4 39.9 67.2 43.7 65.6 36.4 60.3"/>
    <polygon class="st6" points="52.7 65.6 55.5 74.1 61.7 83.1 56.6 67.2 52.7 65.6"/>
    <polygon class="st4" points="48.2 68.8 48.2 73.3 61.7 83.1 55.5 74.1 48.2 68.8"/>
    <polygon class="st4" points="43.7 65.6 39.9 67.2 34.7 83.1 40.9 74.1 43.7 65.6"/>
    <polygon class="st6" points="40.9 74.1 34.7 83.1 48.2 73.3 48.2 68.8 40.9 74.1"/>
    <polygon class="st0" points="51 60.3 48.2 51.7 45.4 60.3 36.4 60.3 43.7 65.6 40.9 74.1 48.2 68.8 55.5 74.1 52.7 65.6 60 60.3 51 60.3"/>
  </g>
  <polygon class="st4" points="33.1 30.5 43.2 30.5 23.1 .3 13 .3 33.1 30.5"/>
  <polygon class="st1" points="43.2 30.5 53.2 30.5 33.1 .3 23.1 .3 43.2 30.5"/>
  <polygon class="st2" points="53.2 30.5 63.3 30.5 43.2 .3 33.1 .3 53.2 30.5"/>
</svg>